<svg width="21" height="14" viewBox="0 0 21 14" fill="none" xmlns="http://www.w3.org/2000/svg">
<g clip-path="url(#clip0_1_703)">
<path d="M19.716 12.17L15.136 7.244C15.008 7.107 15.008 6.895 15.136 6.758L19.715 1.958C19.815 1.854 19.969 1.821 20.103 1.874C20.237 1.928 20.326 2.058 20.326 2.203V11.926C20.326 12.071 20.237 12.202 20.102 12.255C19.966 12.308 19.812 12.273 19.713 12.167M1.11 1.956L5.693 6.756C5.822 6.892 5.822 7.106 5.693 7.242L1.113 12.17C1.014 12.276 0.86 12.311 0.724 12.258C0.589 12.205 0.5 12.074 0.5 11.929V2.2C0.5 2.055 0.588 1.926 0.723 1.872C0.857 1.818 1.01 1.851 1.11 1.956ZM6.464 8.105C6.531 8.034 6.624 7.994 6.722 7.994C6.82 7.994 6.913 8.034 6.98 8.105L8.106 9.285C8.748 9.822 9.559 10.116 10.396 10.115C11.266 10.112 12.108 9.802 12.772 9.24L13.853 8.108C13.92 8.037 14.013 7.997 14.111 7.997C14.208 7.997 14.301 8.037 14.368 8.108L18.848 12.928C18.947 13.031 18.975 13.183 18.918 13.314C18.862 13.446 18.732 13.53 18.589 13.528H2.24C2.097 13.529 1.968 13.445 1.911 13.314C1.854 13.183 1.882 13.031 1.98 12.928L6.464 8.105ZM18.889 0.299997C19.031 0.298997 19.16 0.383997 19.216 0.514997C19.272 0.645997 19.244 0.797997 19.145 0.899997L11.987 8.4C11.096 9.15 9.8 9.169 8.887 8.445L1.684 0.899997C1.586 0.796997 1.559 0.645997 1.615 0.514997C1.671 0.384997 1.799 0.299997 1.941 0.299997H18.889Z" fill="white"/>
</g>
<defs>
<clipPath id="clip0_1_703">
<rect width="20" height="13" fill="white" transform="translate(0.5 0.299988)"/>
</clipPath>
</defs>
</svg>
