<svg width="26" height="25" viewBox="0 0 26 25" fill="none" xmlns="http://www.w3.org/2000/svg">
<path fill-rule="evenodd" clip-rule="evenodd" d="M12.9969 0.577759C6.27952 0.577759 0.832428 6.02371 0.832428 12.7422C0.832428 18.1167 4.31795 22.6764 9.15123 24.285C9.75911 24.3975 9.98238 24.021 9.98238 23.6998C9.98238 23.4099 9.9712 22.4514 9.96592 21.4349C6.58175 22.1709 5.86765 19.9997 5.86765 19.9997C5.31425 18.5938 4.51705 18.2198 4.51705 18.2198C3.41326 17.4648 4.60025 17.4803 4.60025 17.4803C5.82164 17.5661 6.46493 18.7341 6.46493 18.7341C7.54986 20.5937 9.31061 20.056 10.0049 19.7452C10.1141 18.959 10.4292 18.4222 10.7772 18.1185C8.07526 17.811 5.23486 16.7678 5.23486 12.1068C5.23486 10.7788 5.71011 9.69361 6.48833 8.8417C6.36204 8.5352 5.94562 7.29805 6.60619 5.62239C6.60619 5.62239 7.62773 5.29564 9.95211 6.86947C10.9225 6.5999 11.9632 6.46474 12.997 6.46004C14.0307 6.46474 15.0721 6.5999 16.0442 6.86947C18.3661 5.29564 19.3861 5.62239 19.3861 5.62239C20.0483 7.29805 19.6318 8.5352 19.5055 8.8417C20.2855 9.69361 20.7574 10.7788 20.7574 12.1068C20.7574 16.7791 17.9117 17.8076 15.2029 18.1089C15.6392 18.4864 16.0279 19.2266 16.0279 20.3615C16.0279 21.9891 16.0139 23.2991 16.0139 23.6998C16.0139 24.0236 16.2328 24.4029 16.8494 24.2835C21.6802 22.6732 25.1613 18.115 25.1613 12.7422C25.1613 6.02371 19.715 0.577759 12.9969 0.577759Z" fill="#FEFEFE"/>
<path d="M5.43978 18.0431C5.41302 18.1037 5.31782 18.1218 5.23124 18.0803C5.14294 18.0406 5.09356 17.9581 5.12206 17.8975C5.14824 17.8353 5.24341 17.818 5.33157 17.8596C5.41992 17.8993 5.47031 17.9825 5.43978 18.0431Z" fill="#FEFEFE"/>
<path d="M5.93254 18.5928C5.87456 18.6464 5.76098 18.6215 5.68403 18.5366C5.60437 18.4517 5.58965 18.3382 5.64852 18.2838C5.70833 18.23 5.81832 18.2552 5.89794 18.34C5.97765 18.4258 5.99314 18.5383 5.93254 18.5928Z" fill="#FEFEFE"/>
<path d="M6.41218 19.2933C6.3376 19.3452 6.21564 19.2966 6.14027 19.1884C6.0657 19.0802 6.06572 18.9504 6.14202 18.8984C6.21739 18.8465 6.33762 18.8933 6.41393 19.0006C6.4883 19.1106 6.48829 19.2404 6.41218 19.2933Z" fill="#FEFEFE"/>
<path d="M7.06921 19.9702C7.00248 20.0438 6.86042 20.0239 6.75661 19.9236C6.65017 19.8256 6.62066 19.6864 6.68733 19.6128C6.75505 19.5392 6.89786 19.5598 7.00247 19.6594C7.10811 19.7573 7.14018 19.8974 7.06921 19.9702Z" fill="#FEFEFE"/>
<path d="M7.97567 20.3633C7.94618 20.4584 7.80949 20.5017 7.67175 20.4612C7.53405 20.4195 7.44418 20.308 7.47189 20.2118C7.50039 20.1158 7.63785 20.0708 7.77653 20.114C7.91408 20.1555 8.00416 20.2663 7.97567 20.3633Z" fill="#FEFEFE"/>
<path d="M8.97127 20.436C8.97458 20.5364 8.85773 20.6196 8.71317 20.6214C8.56777 20.6247 8.44991 20.5435 8.44838 20.4447C8.44838 20.3434 8.56259 20.2611 8.70804 20.2586C8.85261 20.2558 8.97127 20.3365 8.97127 20.436Z" fill="#FEFEFE"/>
<path d="M9.89762 20.2784C9.91491 20.3762 9.81432 20.4767 9.67069 20.5034C9.52949 20.5294 9.3989 20.4688 9.38082 20.3718C9.36334 20.2715 9.46556 20.171 9.60667 20.145C9.75049 20.12 9.8793 20.1788 9.89762 20.2784Z" fill="#FEFEFE"/>
</svg>
