<svg width="15" height="14" viewBox="0 0 15 14" fill="none" xmlns="http://www.w3.org/2000/svg">
<path d="M7.27002 0.25C5.935 0.25 4.62996 0.645881 3.51992 1.38758C2.40989 2.12928 1.54473 3.18349 1.03384 4.41689C0.522944 5.65029 0.389272 7.00749 0.649722 8.31686C0.910172 9.62623 1.55305 10.829 2.49705 11.773C3.44106 12.717 4.64379 13.3598 5.95316 13.6203C7.26253 13.8808 8.61973 13.7471 9.85314 13.2362C11.0865 12.7253 12.1407 11.8601 12.8824 10.7501C13.6241 9.64007 14.02 8.33502 14.02 7C14.018 5.2104 13.3062 3.49466 12.0408 2.22922C10.7754 0.963781 9.05962 0.251985 7.27002 0.25ZM5.9619 9.75H8.57815C8.29461 10.6137 7.85082 11.4163 7.27002 12.1156C6.68922 11.4163 6.24543 10.6137 5.9619 9.75ZM5.60815 8.25C5.49065 7.42081 5.49065 6.57919 5.60815 5.75H8.9319C9.0494 6.57919 9.0494 7.42081 8.9319 8.25H5.60815ZM2.02002 7C2.02 6.57873 2.071 6.15901 2.1719 5.75H4.09627C3.9946 6.58023 3.9946 7.41977 4.09627 8.25H2.1719C2.071 7.84099 2.02 7.42127 2.02002 7ZM8.57815 4.25H5.9619C6.24543 3.38627 6.68922 2.58372 7.27002 1.88438C7.85082 2.58372 8.29461 3.38627 8.57815 4.25ZM10.4438 5.75H12.3681C12.5706 6.57103 12.5706 7.42897 12.3681 8.25H10.4438C10.5454 7.41977 10.5454 6.58023 10.4438 5.75ZM11.74 4.25H10.145C9.94166 3.51628 9.64883 2.81036 9.27315 2.14812C10.2954 2.5729 11.1583 3.30815 11.74 4.25ZM5.27002 2.14812C4.89325 2.81021 4.59938 3.51614 4.39502 4.25H2.80002C3.38252 3.30765 4.24661 2.57234 5.27002 2.14812ZM2.80002 9.75H4.39502C4.59938 10.4839 4.89325 11.1898 5.27002 11.8519C4.24661 11.4277 3.38252 10.6923 2.80002 9.75ZM9.27315 11.8519C9.64883 11.1896 9.94166 10.4837 10.145 9.75H11.74C11.1583 10.6918 10.2954 11.4271 9.27315 11.8519Z" fill="#52525B"/>
</svg>
