<?xml version="1.0" encoding="UTF-8"?>
<svg xmlns="http://www.w3.org/2000/svg" viewBox="0 0 2500 2500">
  <defs>
    <style>
      .cls-1 {
        fill: #fff;
      }
    </style>
  </defs>
  <g id="Background">
    <rect class="cls-1" width="2500" height="2500"/>
  </g>
  <g id="Illustration">
    <g id="School_supplies" data-name="School supplies">
      <g>
        <g>
          <path class="cls-1" d="M775.5,1294.3c-17.3,35.7-35.6,99.2-48.9,102.4-13.3,3.3-41.4-74-78.3-101.1-36.9-27.1-117.9-53.6-169.1,74.5-42,105.2-46.2,372.5,174.2,498.1,451.6,257.3,551.1-367.5,301.4-546.4-112.6-80.7-162-63.2-179.2-27.6Zm48.7,198.8c20.6,30.3,23.4,64.9,6.2,77.3-17.2,12.4-47.9-2.2-68.5-32.6-20.6-30.3-23.4-64.9-6.2-77.3,17.2-12.4,47.9,2.2,68.5,32.6Z"/>
          <path d="M849.7,1931.8c-59.3,0-125.5-20.6-197.5-61.6-122.3-69.7-168.9-178.8-186.5-258.1-22.6-101.6-8-194.2,11.4-242.7,21.2-53.2,49.6-85.2,84.3-95.1,39.9-11.4,74.9,9.9,88.1,19.6,20.2,14.9,37.6,44.1,51.6,67.7,9.5,16,20.3,34.1,24.9,33.1,7.6-1.9,19.1-31.5,29.3-57.7,4.1-10.4,8.2-21.2,12.4-30.9,.5-1.1,1.8-1.6,2.9-1.2,1.1,.5,1.6,1.8,1.2,2.9-4.1,9.6-8.3,20.3-12.3,30.7-14,36.1-23.2,58.1-32.4,60.4-7.4,1.8-15.3-10.8-29.7-35.1-13.8-23.2-30.9-52-50.4-66.4-12.7-9.3-46.3-29.8-84.3-18.9-33.4,9.5-60.8,40.7-81.5,92.5-45,112.7-40.4,373.6,173.2,495.3,162.7,92.7,300.2,78.5,377.1-39,44.6-68.2,63.7-166.8,50.9-263.8-13.3-101.2-58.8-187.6-124.9-237-1-.7-1.2-2.1-.4-3.1,.7-1,2.1-1.2,3.1-.4,67.1,50.1,113.2,137.5,126.7,239.9,12.9,98-6.4,197.8-51.6,266.8-35.8,54.7-86.4,88.8-146.3,98.8-12.7,2.1-25.7,3.2-39.1,3.2Z"/>
          <ellipse cx="612.9" cy="1394.4" rx="47.6" ry="46.1" transform="translate(-906.1 1282.1) rotate(-62)"/>
          <path d="M555,1582.4c-7.5,0-15-1.8-22.1-5.5-23.5-12.5-32.2-42.4-19.4-66.6,6.2-11.7,16.5-20.4,29-24.4,12.5-4,25.6-2.9,37,3.1,11.4,6.1,19.7,16.3,23.4,28.9,3.6,12.6,2.2,26-4,37.7-9,17-26.3,26.8-44,26.8Zm2.5-94.5c-4.5,0-9.1,.7-13.6,2.2-11.4,3.7-20.7,11.6-26.4,22.3-11.7,22.1-3.9,49.3,17.5,60.7,21.4,11.4,48.3,2.6,60.1-19.5,5.7-10.7,7-22.9,3.7-34.4-3.3-11.4-10.8-20.8-21.2-26.3-6.3-3.3-13.1-5-20-5Z"/>
          <path d="M592.4,1734.5c-7.6,0-15.2-1.9-22.1-5.5-11.4-6.1-19.7-16.3-23.4-28.9-3.6-12.6-2.2-26,4-37.7,12.9-24.2,42.5-33.8,66-21.3,23.5,12.5,32.2,42.4,19.4,66.6-6.2,11.7-16.5,20.4-29,24.4-4.9,1.6-10,2.4-15,2.4Zm2.5-94.5c-16.1,0-31.8,8.9-40.1,24.5-5.7,10.7-7,22.9-3.7,34.4,3.3,11.4,10.8,20.8,21.2,26.3,10.4,5.5,22.3,6.5,33.6,2.8,11.4-3.7,20.7-11.6,26.4-22.3,11.7-22.1,3.9-49.3-17.5-60.7-6.4-3.4-13.2-5-20-5Z"/>
          <path class="cls-1" d="M699,1833.2c-7.6,0-15.2-1.9-22.1-5.5-11.4-6.1-19.7-16.3-23.4-28.9-3.6-12.6-2.2-26,4-37.7,12.9-24.2,42.5-33.8,66-21.3,23.5,12.5,32.2,42.4,19.4,66.6-6.2,11.7-16.5,20.4-29,24.4-4.9,1.6-10,2.4-15,2.4Zm2.5-94.5c-16.1,0-31.8,8.9-40.1,24.5-5.7,10.7-7,22.9-3.7,34.4,3.3,11.4,10.8,20.8,21.2,26.3,10.4,5.5,22.3,6.5,33.6,2.8,11.4-3.7,20.7-11.6,26.4-22.3,11.7-22.1,3.9-49.3-17.5-60.7-6.4-3.4-13.2-5-20-5Z"/>
        </g>
        <g>
          <g>
            <path class="cls-1" d="M561.6,1146.8l43.6-52.4,305.9,283.5,36.7,57.9s-60.5-26.3-63.1-28.3l-323.1-260.7Z"/>
            <path d="M947.8,1438c-.3,0-.6,0-.9-.2-10.1-4.4-60.9-26.5-63.5-28.6l-323.1-260.7c-.5-.4-.7-.9-.8-1.5,0-.6,.1-1.2,.5-1.6l43.6-52.4c.4-.5,.9-.7,1.5-.8,.6,0,1.2,.2,1.6,.6l305.9,283.5c.1,.1,.3,.3,.4,.4l36.7,57.9c.5,.8,.4,1.9-.2,2.6-.4,.5-1,.8-1.7,.8Zm-383.1-291.5l321.4,259.3c2.2,1.5,32.6,14.9,56,25.1l-32.7-51.6-304-281.8-40.7,48.9Z"/>
          </g>
          <g>
            <polygon class="cls-1" points="561.6 1146.8 605.2 1094.4 673 1157.2 633.8 1205 561.6 1146.8"/>
            <path d="M633.8,1207.2c-.5,0-1-.2-1.4-.5l-72.2-58.2c-.5-.4-.7-.9-.8-1.5,0-.6,.1-1.2,.5-1.6l43.6-52.4c.4-.5,.9-.7,1.5-.8,.6,0,1.2,.2,1.6,.6l67.7,62.8c.9,.8,.9,2.1,.2,3l-39.1,47.8c-.4,.5-1.1,.8-1.7,.8Zm-69.1-60.8l68.8,55.5,36.5-44.5-64.5-59.8-40.7,48.9Z"/>
          </g>
          <path d="M470.5,1116.3c37.8,31.1,68.2,38.4,91.4,31.1,0,0,0,0,0,0l43.7-53.1s0,0,0-.1c2.9-24.5-10.2-53.4-48.4-84.8-56.7-46.6-179.6-58.6-179.6-58.6,0,0,36.2,118.9,92.8,165.5Z"/>
        </g>
        <g>
          <g>
            <rect class="cls-1" x="710.2" y="344.8" width="225.4" height="1240.6" transform="translate(-227.3 253.9) rotate(-15.4)"/>
            <path d="M879.4,1595.2c-1,0-1.8-.6-2.1-1.6L546.9,397.8c-.2-.6,0-1.2,.2-1.7,.3-.5,.8-.9,1.3-1l217.2-60c1.2-.3,2.4,.4,2.7,1.5l330.3,1195.8c.2,.6,0,1.2-.2,1.7-.3,.5-.8,.9-1.3,1l-217.2,60c-.2,0-.4,0-.6,0ZM551.8,398.7l329.2,1191.6,213-58.8L764.8,339.9l-213,58.8Z"/>
          </g>
          <g>
            <g>
              <path d="M1014.9,1427.5c-1,0-1.9-.7-2.1-1.7-.3-1.2,.4-2.4,1.6-2.7l46.9-11.8c1.2-.3,2.4,.4,2.7,1.6,.3,1.2-.4,2.4-1.6,2.7l-46.9,11.8c-.2,0-.4,0-.5,0Z"/>
              <path d="M1006.1,1397.7c-1,0-1.9-.7-2.1-1.7-.3-1.2,.5-2.4,1.7-2.6l47.7-11c1.2-.3,2.4,.5,2.6,1.7,.3,1.2-.5,2.4-1.7,2.6l-47.7,11c-.2,0-.3,0-.5,0Z"/>
              <path d="M998.9,1369.6c-1,0-1.9-.7-2.1-1.7-.3-1.2,.4-2.4,1.6-2.7l46.9-11.8c1.2-.3,2.4,.4,2.7,1.6,.3,1.2-.4,2.4-1.6,2.7l-46.9,11.8c-.2,0-.4,0-.5,0Z"/>
              <path d="M981.1,1346.7c-1,0-1.9-.7-2.1-1.7-.3-1.2,.5-2.4,1.6-2.6l55.7-13.2c1.2-.3,2.4,.5,2.6,1.6,.3,1.2-.5,2.4-1.6,2.6l-55.7,13.2c-.2,0-.3,0-.5,0Z"/>
              <path d="M961.2,1233.1c-1,0-1.9-.7-2.1-1.7-.3-1.2,.4-2.4,1.6-2.7l46.9-11.8c1.2-.3,2.4,.4,2.7,1.6,.3,1.2-.4,2.4-1.6,2.7l-46.9,11.8c-.2,0-.4,0-.5,0Z"/>
              <path d="M937.9,1211.8c-1,0-1.9-.7-2.1-1.7-.3-1.2,.4-2.4,1.6-2.7l61.2-14.7c1.2-.3,2.4,.4,2.7,1.6,.3,1.2-.4,2.4-1.6,2.7l-61.2,14.7c-.2,0-.3,0-.5,0Z"/>
              <path d="M981.9,1316.5c-1,0-1.9-.7-2.1-1.7-.3-1.2,.4-2.4,1.6-2.7l46.9-11.8c1.2-.3,2.4,.4,2.7,1.6,.3,1.2-.4,2.4-1.6,2.7l-46.9,11.8c-.2,0-.4,0-.5,0Z"/>
              <path d="M973,1286.6c-1,0-1.9-.7-2.1-1.7-.3-1.2,.5-2.4,1.7-2.6l47.7-11c1.2-.3,2.4,.5,2.6,1.7s-.5,2.4-1.7,2.6l-47.7,11c-.2,0-.3,0-.5,0Z"/>
              <path d="M968.1,1258c-1,0-1.9-.7-2.1-1.7-.3-1.2,.4-2.4,1.6-2.7l46.9-11.8c1.2-.3,2.4,.4,2.7,1.6,.3,1.2-.4,2.4-1.6,2.7l-46.9,11.8c-.2,0-.4,0-.5,0Z"/>
            </g>
            <g>
              <path d="M946.7,1182.6c-1,0-1.9-.7-2.1-1.7-.3-1.2,.5-2.4,1.7-2.6l47.7-11c1.2-.3,2.4,.5,2.6,1.7,.3,1.2-.5,2.4-1.7,2.6l-47.7,11c-.2,0-.3,0-.5,0Z"/>
              <path d="M939.5,1154.6c-1,0-1.9-.7-2.1-1.7-.3-1.2,.4-2.4,1.6-2.7l46.9-11.8c1.2-.3,2.4,.4,2.7,1.6,.3,1.2-.4,2.4-1.6,2.7l-46.9,11.8c-.2,0-.4,0-.5,0Z"/>
              <path d="M930.7,1124.7c-1,0-1.9-.7-2.1-1.7-.3-1.2,.5-2.4,1.7-2.6l47.7-11c1.2-.3,2.4,.5,2.6,1.7s-.5,2.4-1.7,2.6l-47.7,11c-.2,0-.3,0-.5,0Z"/>
              <path d="M923.5,1096.7c-1,0-1.9-.7-2.1-1.7-.3-1.2,.4-2.4,1.6-2.7l46.9-11.8c1.2-.3,2.4,.4,2.7,1.6,.3,1.2-.4,2.4-1.6,2.7l-46.9,11.8c-.2,0-.4,0-.5,0Z"/>
              <path d="M905.7,1073.8c-1,0-1.9-.7-2.1-1.7-.3-1.2,.5-2.4,1.6-2.6l55.7-13.2c1.2-.3,2.4,.5,2.6,1.6,.3,1.2-.5,2.4-1.6,2.6l-55.7,13.2c-.2,0-.3,0-.5,0Z"/>
              <path d="M885.8,960.2c-1,0-1.9-.7-2.1-1.7-.3-1.2,.4-2.4,1.6-2.7l46.9-11.8c1.2-.3,2.4,.4,2.7,1.6,.3,1.2-.4,2.4-1.6,2.7l-46.9,11.8c-.2,0-.4,0-.5,0Z"/>
              <path d="M862.5,938.8c-1,0-1.9-.7-2.1-1.7-.3-1.2,.4-2.4,1.6-2.7l61.2-14.7c1.2-.3,2.4,.4,2.7,1.6,.3,1.2-.4,2.4-1.6,2.7l-61.2,14.7c-.2,0-.3,0-.5,0Z"/>
              <path d="M906.5,1043.5c-1,0-1.9-.7-2.1-1.7-.3-1.2,.4-2.4,1.6-2.7l46.9-11.8c1.2-.3,2.4,.4,2.7,1.6,.3,1.2-.4,2.4-1.6,2.7l-46.9,11.8c-.2,0-.4,0-.5,0Z"/>
              <path d="M897.6,1013.7c-1,0-1.9-.7-2.1-1.7-.3-1.2,.5-2.4,1.7-2.6l47.7-11c1.2-.3,2.4,.5,2.6,1.7s-.5,2.4-1.7,2.6l-47.7,11c-.2,0-.3,0-.5,0Z"/>
              <path d="M892.7,985c-1,0-1.9-.7-2.1-1.7-.3-1.2,.4-2.4,1.6-2.7l46.9-11.8c1.2-.3,2.4,.4,2.7,1.6,.3,1.2-.4,2.4-1.6,2.7l-46.9,11.8c-.2,0-.4,0-.5,0Z"/>
            </g>
            <g>
              <path d="M871.3,909.7c-1,0-1.9-.7-2.1-1.7-.3-1.2,.5-2.4,1.7-2.6l47.7-11c1.2-.3,2.4,.5,2.6,1.7,.3,1.2-.5,2.4-1.7,2.6l-47.7,11c-.2,0-.3,0-.5,0Z"/>
              <path d="M864.1,881.6c-1,0-1.9-.7-2.1-1.7-.3-1.2,.4-2.4,1.6-2.7l46.9-11.8c1.2-.3,2.4,.4,2.7,1.6,.3,1.2-.4,2.4-1.6,2.7l-46.9,11.8c-.2,0-.4,0-.5,0Z"/>
              <path d="M855.3,851.8c-1,0-1.9-.7-2.1-1.7-.3-1.2,.5-2.4,1.7-2.6l47.7-11c1.2-.3,2.4,.5,2.6,1.7s-.5,2.4-1.7,2.6l-47.7,11c-.2,0-.3,0-.5,0Z"/>
              <path d="M848.1,823.7c-1,0-1.9-.7-2.1-1.7-.3-1.2,.4-2.4,1.6-2.7l46.9-11.8c1.2-.3,2.4,.4,2.7,1.6,.3,1.2-.4,2.4-1.6,2.7l-46.9,11.8c-.2,0-.4,0-.5,0Z"/>
              <path d="M830.3,800.8c-1,0-1.9-.7-2.1-1.7-.3-1.2,.5-2.4,1.6-2.6l55.7-13.2c1.2-.3,2.4,.5,2.6,1.6,.3,1.2-.5,2.4-1.6,2.6l-55.7,13.2c-.2,0-.3,0-.5,0Z"/>
              <path d="M810.4,687.3c-1,0-1.9-.7-2.1-1.7-.3-1.2,.4-2.4,1.6-2.7l46.9-11.8c1.2-.3,2.4,.4,2.7,1.6,.3,1.2-.4,2.4-1.6,2.7l-46.9,11.8c-.2,0-.4,0-.5,0Z"/>
              <path d="M787.1,665.9c-1,0-1.9-.7-2.1-1.7-.3-1.2,.4-2.4,1.6-2.7l61.2-14.7c1.2-.3,2.4,.4,2.7,1.6,.3,1.2-.4,2.4-1.6,2.7l-61.2,14.7c-.2,0-.3,0-.5,0Z"/>
              <path d="M831.1,770.6c-1,0-1.9-.7-2.1-1.7-.3-1.2,.4-2.4,1.6-2.7l46.9-11.8c1.2-.3,2.4,.4,2.7,1.6,.3,1.2-.4,2.4-1.6,2.7l-46.9,11.8c-.2,0-.4,0-.5,0Z"/>
              <path d="M822.2,740.7c-1,0-1.9-.7-2.1-1.7-.3-1.2,.5-2.4,1.7-2.6l47.7-11c1.2-.3,2.4,.5,2.6,1.7,.3,1.2-.5,2.4-1.7,2.6l-47.7,11c-.2,0-.3,0-.5,0Z"/>
              <path d="M817.3,712.1c-1,0-1.9-.7-2.1-1.7-.3-1.2,.4-2.4,1.6-2.7l46.9-11.8c1.2-.3,2.4,.4,2.7,1.6,.3,1.2-.4,2.4-1.6,2.7l-46.9,11.8c-.2,0-.4,0-.5,0Z"/>
            </g>
            <g>
              <path d="M795.9,636.7c-1,0-1.9-.7-2.1-1.7-.3-1.2,.5-2.4,1.7-2.6l47.7-11c1.2-.3,2.4,.5,2.6,1.7s-.5,2.4-1.7,2.6l-47.7,11c-.2,0-.3,0-.5,0Z"/>
              <path d="M788.7,608.7c-1,0-1.9-.7-2.1-1.7-.3-1.2,.4-2.4,1.6-2.7l46.9-11.8c1.2-.3,2.4,.4,2.7,1.6,.3,1.2-.4,2.4-1.6,2.7l-46.9,11.8c-.2,0-.4,0-.5,0Z"/>
              <path d="M779.9,578.8c-1,0-1.9-.7-2.1-1.7-.3-1.2,.5-2.4,1.7-2.6l47.7-11c1.2-.3,2.4,.5,2.6,1.7,.3,1.2-.5,2.4-1.7,2.6l-47.7,11c-.2,0-.3,0-.5,0Z"/>
              <path d="M772.7,550.8c-1,0-1.9-.7-2.1-1.7-.3-1.2,.4-2.4,1.6-2.7l46.9-11.8c1.2-.3,2.4,.4,2.7,1.6,.3,1.2-.4,2.4-1.6,2.7l-46.9,11.8c-.2,0-.4,0-.5,0Z"/>
              <path d="M754.9,527.9c-1,0-1.9-.7-2.1-1.7-.3-1.2,.5-2.4,1.6-2.6l55.7-13.2c1.2-.3,2.4,.5,2.6,1.6,.3,1.2-.5,2.4-1.6,2.6l-55.7,13.2c-.2,0-.3,0-.5,0Z"/>
              <path d="M735,414.3c-1,0-1.9-.7-2.1-1.7-.3-1.2,.4-2.4,1.6-2.7l46.9-11.8c1.2-.3,2.4,.4,2.7,1.6,.3,1.2-.4,2.4-1.6,2.7l-46.9,11.8c-.2,0-.4,0-.5,0Z"/>
              <path d="M711.7,392.9c-1,0-1.9-.7-2.1-1.7-.3-1.2,.4-2.4,1.6-2.7l61.2-14.7c1.2-.3,2.4,.4,2.7,1.6,.3,1.2-.4,2.4-1.6,2.7l-61.2,14.7c-.2,0-.3,0-.5,0Z"/>
              <path d="M755.7,497.6c-1,0-1.9-.7-2.1-1.7-.3-1.2,.4-2.4,1.6-2.7l46.9-11.8c1.2-.3,2.4,.4,2.7,1.6,.3,1.2-.4,2.4-1.6,2.7l-46.9,11.8c-.2,0-.4,0-.5,0Z"/>
              <path d="M746.8,467.8c-1,0-1.9-.7-2.1-1.7-.3-1.2,.5-2.4,1.7-2.6l47.7-11c1.2-.3,2.4,.5,2.6,1.7s-.5,2.4-1.7,2.6l-47.7,11c-.2,0-.3,0-.5,0Z"/>
              <path d="M741.9,439.1c-1,0-1.9-.7-2.1-1.7-.3-1.2,.4-2.4,1.6-2.7l46.9-11.8c1.2-.3,2.4,.4,2.7,1.6,.3,1.2-.4,2.4-1.6,2.7l-46.9,11.8c-.2,0-.4,0-.5,0Z"/>
            </g>
          </g>
        </g>
        <g>
          <g>
            <path class="cls-1" d="M581.7,780.9l-72.6,54.2,509.8,680.3c5.4,7.2,17.4,8.4,29.2,2.5,14.2-7,26.7-16.4,37.5-28,9-9.7,11.3-21.5,5.9-28.7l-509.8-680.3Z"/>
            <path d="M1033.3,1523.8c-6.8,0-12.6-2.4-16.2-7.1L507.3,836.4c-.4-.5-.5-1.1-.4-1.6,0-.6,.4-1.1,.9-1.5l72.6-54.2c1-.7,2.3-.5,3.1,.4l509.8,680.3c6.1,8.2,3.6,21.1-6,31.5-10.9,11.8-23.7,21.3-38.1,28.5-5.4,2.7-10.8,4-15.8,4ZM512.2,835.5l508.5,678.5c4.8,6.4,15.7,7.2,26.5,1.8,13.9-6.9,26.3-16.1,36.8-27.5,8.2-8.8,10.5-19.5,5.7-25.9l-508.5-678.5-69.1,51.5Z"/>
          </g>
          <path d="M940.1,1369.1c-.7,0-1.3-.3-1.8-.9l-215.5-287.5c-.7-1-.5-2.4,.4-3.1,1-.7,2.4-.5,3.1,.4l215.5,287.5c.7,1,.5,2.4-.4,3.1-.4,.3-.9,.4-1.3,.4Z"/>
          <path d="M675.4,1015.8c-.7,0-1.3-.3-1.8-.9l-93.5-124.8c-.7-1-.5-2.4,.4-3.1,1-.7,2.4-.5,3.1,.4l93.5,124.8c.7,1,.5,2.4-.4,3.1-.4,.3-.9,.4-1.3,.4Z"/>
          <path d="M1029.4,1433.2c-.7,0-1.3-.3-1.8-.9l-358.3-478.1c-.7-1-.5-2.4,.4-3.1,1-.7,2.4-.5,3.1,.4l358.3,478.1c.7,1,.5,2.4-.4,3.1-.4,.3-.9,.4-1.3,.4Z"/>
          <g>
            <path class="cls-1" d="M462.1,656.6h0c-5,6.3-13.8,13.6-20.5,18.5-6.7,5-10.8,7.3-18.2,10.4l85.5,149.4c30.1-10.2,54.3-28.3,72.6-54.2l-119.5-124.2Z"/>
            <path d="M509,837.2c-.8,0-1.5-.4-1.9-1.1l-85.5-149.4c-.3-.6-.4-1.2-.2-1.8,.2-.6,.7-1.1,1.2-1.3,7.2-3,11.2-5.3,17.7-10.1,4-3,13.9-10.7,19.7-17.6,.1-.3,.3-.6,.5-.8,.9-.8,2.3-.8,3.1,0h0c0,0,0,.1,0,.1l119.4,124.1c.7,.8,.8,1.9,.2,2.8-18.5,26.2-43.3,44.7-73.7,55-.2,0-.5,.1-.7,.1Zm-82.4-150.5l83.4,145.7c28.1-9.9,51.2-27.2,68.7-51.3l-116.5-121c-6.2,6.9-15.4,14-19.3,17-6.1,4.5-10.2,7-16.4,9.7Z"/>
          </g>
          <path d="M444.7,673.6c6.7-5,12.5-10.7,17.5-16.9l-73-75.9c-6.4-6.7-22.6,5.3-17.9,13.4l52.3,91.4c7.4-3.1,14.5-7,21.2-12Z"/>
        </g>
        <g>
          <rect x="946.9" y="353.9" width="7.8" height="36.4" rx="3" ry="3"/>
          <g>
            <path class="cls-1" d="M911.3,1061.2c-1.8,3.4-2.7,7.2-2.7,11.1l-.6,69.9,143.8-6.8-6-70.7c-.3-3.9-1.6-7.7-3.7-10.9l-2.3-3.6c-4.5-7.1-5-16.1-1.3-23.8l.5-1c1.9-4,2.8-8.4,2.4-12.8l-44.1-516c-.6-6.9-2.1-13.6-4.4-20l-.5-1.3c-25.2,2.4-50.4,2.5-75.6,4.4l-1.5,5.3c-1.1,4.1-1.7,8.4-1.8,12.7l-4.1,519.5c0,4.8,1.3,9.4,3.9,13.4,4.8,7.3,5.2,16.7,1.2,24.5l-3.2,6.2Z"/>
            <path d="M907.9,1144.4c-.6,0-1.1-.2-1.5-.6-.4-.4-.7-1-.7-1.6l.6-69.9c0-4.2,1.1-8.4,3-12.1l3.2-6.2c3.7-7.1,3.3-15.6-1-22.3-2.8-4.3-4.3-9.4-4.3-14.6l4.1-519.5c0-4.5,.7-8.9,1.9-13.2l1.5-5.3c.2-.9,1-1.5,2-1.6,11-.8,22.2-1.3,33-1.8,14-.6,28.4-1.3,42.6-2.6,1-.1,1.9,.5,2.3,1.4l.5,1.3c2.4,6.6,3.9,13.5,4.5,20.6l44.1,516c.4,4.8-.5,9.6-2.6,14l-.5,1c-3.4,6.9-2.9,15.2,1.2,21.6l2.3,3.6c2.3,3.6,3.7,7.7,4,11.9l6,70.7c0,.6-.1,1.2-.5,1.6-.4,.4-1,.7-1.6,.7l-143.8,6.8s0,0-.1,0Zm10.5-662.6l-1.1,3.8c-1.1,3.9-1.7,8-1.7,12.1l-4.1,519.5c0,4.4,1.2,8.6,3.5,12.2,5.2,7.9,5.7,18.2,1.3,26.7l-3.2,6.2c-1.6,3.1-2.5,6.6-2.5,10.1l-.6,67.6,139.2-6.6-5.8-68.4c-.3-3.5-1.5-7-3.4-9.9l-2.3-3.6c-4.9-7.7-5.5-17.6-1.4-25.9l.5-1c1.8-3.6,2.5-7.7,2.2-11.7l-44.1-516c-.6-6.6-2-13-4.1-19.2-13.7,1.2-27.6,1.9-41.1,2.4-10.3,.5-20.9,.9-31.3,1.7Zm-7.2,579.4h0Z"/>
          </g>
          <g>
            <path class="cls-1" d="M910.3,1261.1l-2.8-121.4,144.7-5.1,2.8,121.4c.5,22.2-16.6,40.9-38.3,41.6l-66.2,2.3c-21.7,.8-39.7-16.7-40.2-38.9Z"/>
            <path d="M949.1,1302.2c-10.4,0-20.2-3.9-27.8-11.1-8.3-7.8-12.9-18.4-13.2-30l-2.8-121.4c0-1.2,.9-2.2,2.1-2.2l144.7-5.1c.6,0,1.2,.2,1.6,.6,.4,.4,.7,1,.7,1.5l2.8,121.4c.5,23.4-17.6,43.1-40.4,43.9l-66.2,2.3c-.5,0-1,0-1.4,0Zm-36.6-41.2c.2,10.4,4.4,19.9,11.8,26.9,7.1,6.7,16.4,10.2,26.1,9.9l66.2-2.3c20.5-.7,36.7-18.4,36.2-39.4l-2.8-119.2-140.3,4.9,2.8,119.2Z"/>
          </g>
          <path class="cls-1" d="M943,1043c-1.2,0-2.2-.9-2.2-2.1,0-1.2,.9-2.2,2.1-2.3l68.5-1.7c1.1,0,2.2,.9,2.3,2.1,0,1.2-.9,2.2-2.1,2.3l-68.5,1.7h0Z"/>
          <path class="cls-1" d="M946.5,1264.9c-1.2,0-2.2-1-2.2-2.2l-1.5-92.9c0-1.2,.9-2.2,2.2-2.2,1.1,0,2.2,.9,2.2,2.2l1.5,92.9c0,1.2-.9,2.2-2.2,2.2h0Z"/>
          <path d="M946.5,372.1l-29.8,107.6c25.2-1.9,50.4-2,75.6-4.4l-37.1-103.2h-8.8Z"/>
        </g>
      </g>
      <g>
        <path d="M1312.3,645.1h-184.4c-43.1,0-78,34.9-78,78v51.2h45.2v-31.3c0-33.4,24.8-60.5,55.4-60.5h130.9c30.6,0,55.4,27.1,55.4,60.5v31.3h53.6v-51.2c0-43.1-34.9-78-78-78Z"/>
        <g>
          <path class="cls-1" d="M1633,1983H782.9c-32.9,0-59.4-29.4-58.5-64.9l26.5-1061.4c1.4-54.5,46.1-97.9,100.6-97.6l722.4,3.7c57,.3,103.4,45.7,105.1,102.6l29.6,1033.3c1.3,46.2-32.9,84.4-75.7,84.4Z"/>
          <path d="M1633,1985.2H782.9c-15.6,0-30.5-6.4-41.8-18-12.4-12.8-19.3-30.7-18.9-49.2l26.5-1061.4c1.4-55.1,47.2-99.7,102.3-99.7s.3,0,.5,0l722.4,3.7c58.5,.3,105.6,46.3,107.2,104.7l29.6,1033.3c.7,23.8-8.1,47-24.1,63.4-14.5,15-33.6,23.2-53.7,23.2ZM851,761.2c-52.7,0-96.6,42.7-97.9,95.5l-26.5,1061.4c-.4,17.3,6,34.1,17.6,46,10.5,10.8,24.2,16.7,38.7,16.7h850.1c18.9,0,36.9-7.8,50.6-21.9,15.2-15.6,23.5-37.6,22.9-60.2l-29.6-1033.3c-1.6-56.1-46.8-100.2-102.9-100.5l-722.4-3.7c-.2,0-.3,0-.5,0Z"/>
        </g>
        <path d="M855.1,753.8h730.6c9.6,0,17.3,7.8,17.3,17.3v357.4c0,62-50.3,112.3-112.3,112.3H952.3c-66.1,0-119.8-53.7-119.8-119.8v-344.5c0-12.5,10.2-22.7,22.7-22.7Z"/>
        <g>
          <path d="M947.7,1470.1h538.4c34,0,61.6,27.6,61.6,61.6v449H903.7v-466.6c0-24.3,19.7-44,44-44Z"/>
          <g>
            <path class="cls-1" d="M975.9,1502.9h477.3c34,0,61.6,27.6,61.6,61.6v417.3H931.9v-434.9c0-24.3,19.7-44,44-44Z"/>
            <path d="M1514.8,1984H931.9c-1.2,0-2.2-1-2.2-2.2v-434.9c0-25.5,20.7-46.2,46.2-46.2h477.3c35.2,0,63.8,28.6,63.8,63.8v417.3c0,1.2-1,2.2-2.2,2.2Zm-580.7-4.4h578.5v-415.1c0-32.8-26.6-59.4-59.4-59.4h-477.3c-23,0-41.8,18.7-41.8,41.8v432.7Z"/>
          </g>
        </g>
        <g>
          <path class="cls-1" d="M1794,1890.7c-1.2,24.7-23.7,43.9-50.3,43l-10.9-.4c-65.9,0-119.3-49.4-119.3-110.4v-310c0-25.7,22.5-46.5,50.2-46.5h73.9c21.3,0,39.4,14.6,42.1,34.2,17.1,125.7,21.1,256,14.4,390Z"/>
          <path d="M1745.4,1935.9c-.6,0-1.2,0-1.8,0l-10.9-.4c-66.9,0-121.5-50.5-121.5-112.6v-310c0-26.8,23.5-48.7,52.4-48.7h73.9c22.4,0,41.4,15.5,44.2,36.1,16.5,121.3,21.3,252.6,14.4,390.4h0c-1.3,25.2-23.9,45.1-50.8,45.1Zm-81.7-467.3c-26.5,0-48,19.9-48,44.3v310c0,59.7,52.5,108.2,117.1,108.2l11,.4c25.3,.8,46.9-17.5,48.1-40.9,6.9-137.5,2.1-268.6-14.4-389.6-2.5-18.4-19.7-32.3-39.9-32.3h-73.9Zm130.3,422h0Z"/>
          <path d="M1790.8,1592h-172c-13.8,0-24.3-9.8-22.1-20.5l19.6-98.2c2-9.9,12.9-17.2,25.6-17.1l122.3,1.2c17,.2,31.4,10,34.1,23.3l17.8,87.9c2.5,12.3-9.5,23.4-25.2,23.4Z"/>
        </g>
        <g>
          <g>
            <path class="cls-1" d="M651.2,1905.6c1.2,24.7,23.7,43.9,50.3,43l10.9-.4c65.9,0,119.3-49.4,119.3-110.4v-310c0-25.7-22.5-46.5-50.2-46.5h-73.9c-21.3,0-39.4,14.6-42.1,34.2-17.1,125.7-21.1,256-14.4,390Z"/>
            <path d="M699.8,1950.8c-26.9,0-49.5-19.9-50.8-45.1-6.9-137.8-2.1-269.2,14.4-390.4,2.8-20.6,21.8-36.1,44.2-36.1h73.9c28.9,0,52.4,21.8,52.4,48.7v310c0,62.1-54.5,112.6-121.5,112.6l-10.8,.4c-.6,0-1.2,0-1.8,0Zm7.8-467.3c-20.2,0-37.4,13.9-39.9,32.3-16.5,121-21.3,252.1-14.4,389.6,1.2,23.4,22.8,41.7,48.1,40.9l10.9-.4c64.7,0,117.2-48.5,117.2-108.2v-310c0-24.4-21.6-44.3-48-44.3h-73.9Z"/>
          </g>
          <path d="M654.5,1606.9h172c13.8,0,24.3-9.8,22.1-20.5l-19.6-98.2c-2-9.9-12.9-17.2-25.6-17.1l-122.3,1.2c-17,.2-31.4,10-34.1,23.3l-17.8,87.9c-2.5,12.3,9.5,23.4,25.2,23.4Z"/>
        </g>
      </g>
      <g>
        <g>
          <path class="cls-1" d="M1783.3,545.9h-499.9c-18.4,0-33.3,14.9-33.3,33.3s14.9,33.3,33.3,33.3h499.9c18.4,0,33.3-14.9,33.3-33.3s-14.9-33.3-33.3-33.3Z"/>
          <path d="M1783.3,614.7h-499.9c-19.6,0-35.5-15.9-35.5-35.5s15.9-35.5,35.5-35.5h499.9c19.6,0,35.5,15.9,35.5,35.5s-15.9,35.5-35.5,35.5Zm-499.9-66.7c-17.2,0-31.1,14-31.1,31.1s14,31.1,31.1,31.1h499.9c17.2,0,31.1-14,31.1-31.1s-14-31.1-31.1-31.1h-499.9Z"/>
        </g>
        <g>
          <g>
            <path class="cls-1" d="M1452.5,439.7h-276.1c-17.1,0-30.9,13.9-30.9,30.9s13.9,30.9,30.9,30.9h276.1c17.1,0,30.9-13.9,30.9-30.9s-13.9-30.9-30.9-30.9Z"/>
            <path d="M1452.5,503.8h-276.1c-18.3,0-33.1-14.9-33.1-33.1s14.9-33.2,33.1-33.2h276.1c18.3,0,33.1,14.9,33.1,33.2s-14.9,33.1-33.1,33.1Zm-276.1-61.9c-15.9,0-28.7,12.9-28.7,28.8s12.9,28.7,28.7,28.7h276.1c15.9,0,28.7-12.9,28.7-28.7s-12.9-28.8-28.7-28.8h-276.1Z"/>
          </g>
          <g>
            <circle class="cls-1" cx="1547.3" cy="470.7" r="30.9" transform="translate(611.5 1789.8) rotate(-71.6)"/>
            <path d="M1547.3,503.8c-18.3,0-33.1-14.9-33.1-33.1s14.9-33.2,33.1-33.2,33.1,14.9,33.1,33.2-14.9,33.1-33.1,33.1Zm0-61.9c-15.9,0-28.7,12.9-28.7,28.8s12.9,28.7,28.7,28.7,28.7-12.9,28.7-28.7-12.9-28.8-28.7-28.8Z"/>
          </g>
        </g>
      </g>
      <path d="M1940.4,735.3l-4.2-15.5-17.6,.8c-1.6-3.4-3.5-6.7-5.6-9.7l9.3-14.9-11.4-11.3-14.8,9.5c-3.1-2.1-6.3-4-9.7-5.5l.6-17.6-15.6-4.1-8.1,15.6c-3.7-.3-7.4-.3-11.2,0l-8.3-15.5-15.5,4.3,.8,17.6c-3.4,1.6-6.7,3.5-9.7,5.6l-14.9-9.3-11.3,11.4,9.5,14.8c-2.1,3.1-4,6.3-5.5,9.7l-17.6-.6-4.1,15.6,15.6,8.1c-.3,3.7-.3,7.4,0,11.2l-15.5,8.3,4.2,15.5,17.6-.8c1.6,3.4,3.5,6.7,5.6,9.7l-9.3,14.9,11.4,11.3,14.8-9.5c3.1,2.1,6.3,4,9.7,5.5l-.6,17.6,15.6,4.1,8.1-15.6c3.7,.3,7.4,.3,11.2,0l8.3,15.5,15.5-4.3-.8-17.6c3.4-1.6,6.7-3.5,9.7-5.6l14.9,9.3,11.3-11.4-9.5-14.8c2.1-3.1,4-6.3,5.5-9.7l17.6,.6,4.1-15.6-15.6-8.1c.3-3.7,.3-7.4,0-11.2l15.5-8.3Zm-71.5,54.2c-22.1,6-44.9-7-50.9-29-6-22.1,6.9-44.9,29-50.9,22.1-6,44.9,7,50.9,29,6,22.1-6.9,44.9-29,50.9Z"/>
      <g>
        <g>
          <path d="M1017.3,2124.6c-41.5,0-83.3-3.6-125.2-10.8-1.2-.2-2-1.3-1.8-2.5,.2-1.2,1.3-2,2.5-1.8,85.4,14.7,170.6,14.3,253.2-1.1,1.2-.2,2.3,.6,2.6,1.8,.2,1.2-.6,2.3-1.8,2.6-42.6,7.9-85.9,11.9-129.6,11.9Z"/>
          <path d="M853.7,2106.1c-.2,0-.3,0-.5,0-11.3-2.5-22.7-5.4-34-8.5-1.2-.3-1.9-1.5-1.5-2.7,.3-1.2,1.5-1.9,2.7-1.5,11.2,3.1,22.6,5.9,33.8,8.4,1.2,.3,1.9,1.4,1.7,2.6-.2,1-1.1,1.7-2.1,1.7Z"/>
          <path d="M1012.3,2089.9c-81.7,0-163.5-15.3-243.8-45.6-1.1-.4-1.7-1.7-1.3-2.8,.4-1.1,1.7-1.7,2.8-1.3,100.3,37.9,202.9,52.1,304.8,42.3,1.2-.1,2.3,.8,2.4,2s-.8,2.3-2,2.4c-21,2-41.9,3-62.9,3Z"/>
        </g>
        <g>
          <path d="M2044.6,752.9c-.4,0-.8-.1-1.2-.3-1-.7-1.3-2-.7-3,41.2-64.5,58.5-111,17.2-143.6-1-.8-1.1-2.1-.4-3.1,.8-1,2.1-1.1,3.1-.4,43.7,34.6,25.1,84.8-16.3,149.4-.4,.7-1.1,1-1.9,1Z"/>
          <path d="M2016.6,794.8c-.4,0-.9-.1-1.2-.4-1-.7-1.3-2.1-.6-3.1,5.3-7.7,11.4-16.8,17.3-25.6,.7-1,2-1.3,3-.6,1,.7,1.3,2,.6,3.1-5.9,8.9-12.1,17.9-17.3,25.6-.4,.6-1.1,1-1.8,1Z"/>
          <path d="M2062,537.5c-.5,0-1-.2-1.4-.5-13.6-11.2-29.7-22.4-47.8-33.3-1-.6-1.4-2-.8-3,.6-1,2-1.4,3-.7,18.2,11,34.5,22.3,48.3,33.7,.9,.8,1.1,2.2,.3,3.1-.4,.5-1.1,.8-1.7,.8Z"/>
          <path d="M2064.6,784.6c-.5,0-1-.2-1.4-.5-.9-.8-1-2.2-.2-3.1,80.1-91.7,83-166,9.4-233.7-.9-.8-1-2.2-.1-3.1,.8-.9,2.2-1,3.1-.1,39.2,36,56.8,73.5,54,114.8-2.6,38.6-23.2,79.5-63.1,125.1-.4,.5-1,.8-1.7,.8Z"/>
        </g>
        <g>
          <path d="M1738.5,425.8c-.5,0-1.1-.2-1.5-.6-.9-.8-.9-2.2,0-3.1l8.1-8.5c.8-.9,2.2-.9,3.1,0,.9,.8,.9,2.2,0,3.1l-8.1,8.5c-.4,.5-1,.7-1.6,.7Z"/>
          <path d="M1710.2,455.4c-.5,0-1.1-.2-1.5-.6-.9-.8-.9-2.2,0-3.1l8.1-8.5c.8-.9,2.2-.9,3.1,0,.9,.8,.9,2.2,0,3.1l-8.1,8.5c-.4,.5-1,.7-1.6,.7Z"/>
          <path d="M1718.1,426.3c-.6,0-1.1-.2-1.5-.6l-8.2-8.1c-.9-.9-.9-2.2,0-3.1,.9-.9,2.2-.9,3.1,0l8.2,8.1c.9,.9,.9,2.2,0,3.1-.4,.4-1,.7-1.6,.7Z"/>
          <path d="M1746.9,454.6c-.6,0-1.1-.2-1.5-.6l-8.2-8.1c-.9-.9-.9-2.2,0-3.1,.9-.9,2.2-.9,3.1,0l8.2,8.1c.9,.9,.9,2.2,0,3.1-.4,.4-1,.7-1.6,.7Z"/>
        </g>
      </g>
      <g>
        <g>
          <g>
            <path d="M1285.7,2047.9h764.7c21,0,38.1-17,38.1-38V946.3c-.6-28.5-14.3-44.8-38.1-44.8h-764.7c-18.9,0-35,13.7-38,32.5V2009.9c0,21,17,38,38,38Z"/>
            <g>
              <path class="cls-1" d="M1254.1,2048.9h764.8c21,0,38.1-17.1,38.1-38.1V945.1c-.6-28.5-14.3-44.8-38.1-44.8h-764.8c-18.9,0-35,13.8-38,32.5V2010.8c0,21,17,38.1,38.1,38.1Z"/>
              <path d="M2018.9,2051.1h-764.8c-10.8,0-20.9-4.2-28.5-11.8-7.6-7.6-11.8-17.7-11.8-28.5V932.9c0-.1,0-.2,0-.4,3.2-19.9,20.1-34.4,40.2-34.4h764.8c25,0,39.7,17.1,40.2,46.9V2010.8c0,10.8-4.1,20.9-11.8,28.5-7.6,7.6-17.7,11.8-28.5,11.8ZM1218.3,933.1V2010.8c0,9.6,3.7,18.6,10.5,25.4,6.8,6.8,15.8,10.5,25.4,10.5h764.8c9.6,0,18.6-3.7,25.4-10.5,6.8-6.8,10.5-15.8,10.5-25.4V945.1c-.6-27.4-13.3-42.6-35.9-42.6h-764.8c-17.9,0-32.9,12.8-35.8,30.5Z"/>
            </g>
          </g>
          <g>
            <g>
              <rect class="cls-1" x="1452.8" y="866.9" width="389" height="115.7" rx="22.9" ry="22.9"/>
              <path d="M1818.9,984.8h-343.2c-13.8,0-25.1-11.3-25.1-25.1v-69.9c0-13.8,11.3-25.1,25.1-25.1h343.2c13.8,0,25.1,11.3,25.1,25.1v69.9c0,13.8-11.3,25.1-25.1,25.1Zm-343.2-115.7c-11.4,0-20.7,9.3-20.7,20.7v69.9c0,11.4,9.3,20.7,20.7,20.7h343.2c11.4,0,20.7-9.3,20.7-20.7v-69.9c0-11.4-9.3-20.7-20.7-20.7h-343.2Z"/>
            </g>
            <g>
              <path class="cls-1" d="M1647.1,773.1c-36.8,0-66.5,29.8-66.5,66.6v99.8c0,9,7.3,16.2,16.2,16.2h100.4c9,0,16.2-7.3,16.2-16.2v-99.8c0-36.8-29.7-66.6-66.5-66.6Zm3.7,91.2c-17.7,2.2-32.6-12.7-30.4-30.4,1.5-12.1,11.3-21.8,23.3-23.3,17.7-2.2,32.6,12.7,30.3,30.4-1.5,12.1-11.3,21.8-23.3,23.3Z"/>
              <path d="M1697.3,958h-100.4c-10.2,0-18.4-8.3-18.4-18.4v-99.8c0-37.9,30.8-68.8,68.7-68.8s68.7,30.9,68.7,68.8v99.8c0,10.2-8.3,18.4-18.4,18.4Zm-50.2-182.7c-35.4,0-64.3,28.9-64.3,64.4v99.8c0,7.7,6.3,14,14,14h100.4c7.7,0,14-6.3,14-14v-99.8c0-35.5-28.8-64.4-64.3-64.4Zm.2,91.4c-7.8,0-15.1-3-20.7-8.6-6.4-6.4-9.5-15.4-8.3-24.5,1.6-13,12.2-23.6,25.2-25.2,9.1-1.1,18,1.9,24.5,8.3,6.4,6.4,9.5,15.4,8.3,24.5-1.6,13-12.2,23.6-25.2,25.2-1.3,.2-2.5,.2-3.8,.2Zm0-54.1c-1.1,0-2.1,0-3.2,.2-11,1.4-20,10.4-21.4,21.4-1,7.8,1.6,15.3,7.1,20.8,5.5,5.5,13.1,8.1,20.8,7.1,11-1.4,20-10.4,21.4-21.4,1-7.8-1.6-15.3-7.1-20.8-4.7-4.7-11-7.3-17.6-7.3Z"/>
            </g>
          </g>
        </g>
        <g>
          <g>
            <g>
              <path d="M1938.7,1107.3h-53.2c-12.3,0-22.3-10-22.3-22.3v-53.2c0-12.3,10-22.3,22.3-22.3h53.2c12.3,0,22.3,10,22.3,22.3v53.2c0,12.3-10,22.3-22.3,22.3Zm-53.2-93.4c-9.9,0-17.9,8-17.9,17.9v53.2c0,9.9,8,17.9,17.9,17.9h53.2c9.9,0,17.9-8,17.9-17.9v-53.2c0-9.9-8-17.9-17.9-17.9h-53.2Z"/>
              <path d="M1905.1,1086.3c-.3,0-.7,0-1,0-2-.4-3.7-1.8-4.3-3.8l-11.2-29.1c-.4-1.1,.1-2.4,1.3-2.8,1.1-.4,2.4,.1,2.8,1.3l11.2,29.2c.2,.7,.8,.9,1,.9,.2,0,.7,0,1.1-.3l30.9-49.3c.6-1,2-1.3,3-.7,1,.6,1.3,2,.7,3l-31,49.4c0,0-.1,.2-.2,.2-1.1,1.3-2.7,2-4.3,2Z"/>
            </g>
            <g>
              <path d="M1938.7,1248h-53.2c-12.3,0-22.3-10-22.3-22.3v-53.2c0-12.3,10-22.3,22.3-22.3h53.2c12.3,0,22.3,10,22.3,22.3v53.2c0,12.3-10,22.3-22.3,22.3Zm-53.2-93.4c-9.9,0-17.9,8-17.9,17.9v53.2c0,9.9,8,17.9,17.9,17.9h53.2c9.9,0,17.9-8,17.9-17.9v-53.2c0-9.9-8-17.9-17.9-17.9h-53.2Z"/>
              <path d="M1905.1,1227c-.3,0-.7,0-1,0-2-.4-3.7-1.8-4.3-3.8l-11.2-29.1c-.4-1.1,.1-2.4,1.3-2.8,1.1-.4,2.4,.1,2.8,1.3l11.2,29.2c.2,.7,.8,.9,1,.9,.2,0,.7,0,1.1-.3l30.9-49.3c.6-1,2-1.3,3-.7,1,.6,1.3,2,.7,3l-31,49.4c0,0-.1,.2-.2,.2-1.1,1.3-2.7,2-4.3,2Z"/>
            </g>
            <path d="M1865.4,1349.3c-1.2,0-2.2-1-2.2-2.2v-39.5c0-9.2,7.5-16.8,16.8-16.8h64.3c9.2,0,16.8,7.5,16.8,16.8v39c0,1.2-1,2.2-2.2,2.2s-2.2-1-2.2-2.2v-39c0-6.8-5.5-12.4-12.4-12.4h-64.3c-6.8,0-12.4,5.5-12.4,12.4v39.5c0,1.2-1,2.2-2.2,2.2Z"/>
          </g>
          <g>
            <path d="M1680.3,1077.4h-365.3c-8.7,0-15.8-7.1-15.8-15.8s7.1-15.8,15.8-15.8h365.3c8.7,0,15.8,7.1,15.8,15.8s-7.1,15.8-15.8,15.8Zm-365.3-27.2c-6.3,0-11.4,5.1-11.4,11.4s5.1,11.4,11.4,11.4h365.3c6.3,0,11.4-5.1,11.4-11.4s-5.1-11.4-11.4-11.4h-365.3Z"/>
            <path d="M1452.5,1218.1h-137.5c-8.7,0-15.8-7.1-15.8-15.8s7.1-15.8,15.8-15.8h137.5c8.7,0,15.8,7.1,15.8,15.8s-7.1,15.8-15.8,15.8Zm-137.5-27.2c-6.3,0-11.4,5.1-11.4,11.4s5.1,11.4,11.4,11.4h137.5c6.3,0,11.4-5.1,11.4-11.4s-5.1-11.4-11.4-11.4h-137.5Z"/>
            <path d="M1756,1218.1h-227.7c-8.7,0-15.8-7.1-15.8-15.8s7.1-15.8,15.8-15.8h227.7c8.7,0,15.8,7.1,15.8,15.8s-7.1,15.8-15.8,15.8Zm-227.7-27.2c-6.3,0-11.4,5.1-11.4,11.4s5.1,11.4,11.4,11.4h227.7c6.3,0,11.4-5.1,11.4-11.4s-5.1-11.4-11.4-11.4h-227.7Z"/>
            <path d="M1560.7,1358.7h-245.7c-8.7,0-15.8-7.1-15.8-15.8s7.1-15.8,15.8-15.8h245.7c8.7,0,15.8,7.1,15.8,15.8s-7.1,15.8-15.8,15.8Zm-245.7-27.2c-6.3,0-11.4,5.1-11.4,11.4s5.1,11.4,11.4,11.4h245.7c6.3,0,11.4-5.1,11.4-11.4s-5.1-11.4-11.4-11.4h-245.7Z"/>
            <path d="M1615.6,1499.5h-300.6c-8.7,0-15.8-7.1-15.8-15.8s7.1-15.8,15.8-15.8h300.6c8.7,0,15.8,7.1,15.8,15.8s-7.1,15.8-15.8,15.8Zm-300.6-27.2c-6.3,0-11.4,5.1-11.4,11.4s5.1,11.4,11.4,11.4h300.6c6.3,0,11.4-5.1,11.4-11.4s-5.1-11.4-11.4-11.4h-300.6Z"/>
            <path d="M1584.6,1640.6h-95.1c-8.7,0-15.8-7.1-15.8-15.8s7.1-15.8,15.8-15.8h95.1c8.7,0,15.8,7.1,15.8,15.8s-7.1,15.8-15.8,15.8Zm-95.1-27.2c-6.3,0-11.4,5.1-11.4,11.4s5.1,11.4,11.4,11.4h95.1c6.3,0,11.4-5.1,11.4-11.4s-5.1-11.4-11.4-11.4h-95.1Z"/>
          </g>
        </g>
      </g>
      <g>
        <g>
          <g>
            <g>
              <path class="cls-1" d="M1852.3,2079.1l2.3,36.9c.1,1-.6,2-1.5,2l-18,1.1c-.8,0-1.4-.6-1.6-1.5l-5.9-34.6,24.7-4Z"/>
              <path d="M1835.1,2121.4c-1.9,0-3.4-1.4-3.6-3.4l-5.9-34.5c-.1-.6,0-1.2,.4-1.7,.3-.5,.9-.8,1.4-.9l24.7-4c.6-.1,1.2,0,1.7,.4,.5,.4,.8,1,.8,1.6l2.3,36.9c.1,1-.2,2.2-.9,3-.7,.8-1.6,1.3-2.6,1.3l-18,1.1c0,0-.2,0-.2,0Zm.7-4h0s0,0,0,0Zm-5.6-32.4l5.5,32,16.8-1-2.2-34.2-20.1,3.3Z"/>
            </g>
            <g>
              <path class="cls-1" d="M1857.5,2106.6c1.2,4.3,3.7,16.4,4.8,23.6,.7,4.6-2.2,8.9-6.6,10.1-12.5,3.4-42.3,3.2-67.1,4.3-1.7,0-4.8-.8-6.2-4.9-4.7-14,21.4-18.3,47.1-32.5,.5-.3,1.1-.3,1.6,0,.3,.2,.7,.5,1.1,.8,4.5,2.9,11.9,2.9,16.5,.1l5.1-3.1c1.4-.8,3.2-.1,3.7,1.5Z"/>
              <path d="M1788.3,2146.9c-2.8,0-6.5-1.6-8.1-6.4-3.9-11.6,9.1-17.3,25.7-24.5,6.9-3,14.8-6.4,22.5-10.6,1.2-.7,2.8-.6,3.9,.2,.3,.2,.6,.4,1,.7,3.8,2.4,10.3,2.4,14.2,0l5.1-3.1c1.3-.8,2.8-.9,4.1-.3,1.4,.5,2.4,1.7,2.8,3.1,1.3,4.5,3.8,16.6,4.8,23.9,.8,5.6-2.7,11-8.2,12.5-9.5,2.6-28.2,3.1-47.9,3.7-6.6,.2-13.3,.4-19.6,.7-.1,0-.2,0-.3,0Zm41.8-37.4c-7.8,4.3-15.6,7.6-22.5,10.6-16.5,7.2-25.8,11.6-23.3,19,1.1,3.3,3.6,3.4,4,3.4,6.4-.3,13.1-.5,19.7-.7,18.6-.6,37.9-1.1,46.9-3.6,3.4-.9,5.5-4.2,5-7.6-1-6.9-3.5-19-4.7-23.4,0,0,0-.2-.2-.2-.1,0-.2,0-.2,0l-5.1,3.1c-5.3,3.2-13.7,3.1-18.8-.1-.3-.2-.6-.4-.8-.6Zm-.4-.3s0,0,0,0c0,0,0,0,0,0Z"/>
            </g>
            <g>
              <path class="cls-1" d="M1863,2133.6c0,.1,0,.2,0,.3,.7,4.6-3.7,7.4-7.8,9.3-12.3,5.8-61.9,2.5-63.8,2.3,0,0,0,0-.1,0-.6,0-6.9,0-8.7-3.9-.2-.5-.4-1.2-.4-1.8-.1-1,0-2.1,.2-3.1,.2-.8,1-1.4,1.8-1.2,9.2,2.4,30.7,3.1,52.2,.8,14.3-1.6,20.5-4.7,23.8-6.7,.9-.5,2.1,0,2.3,1,.2,.9,.4,1.9,.6,3Z"/>
              <path d="M1822.6,2148.7c-14.6,0-28.5-.9-31.3-1.1-1.3,0-8.3-.1-10.7-5.2-.3-.6-.5-1.4-.6-2.4-.2-1.3-.1-2.6,.2-3.9,.2-1,.8-1.9,1.7-2.4,.9-.5,1.9-.7,2.8-.4,8.4,2.2,29.3,3.1,51.4,.7,13.5-1.5,19.5-4.3,22.9-6.4,1-.6,2.3-.7,3.4-.2,1.1,.5,1.9,1.5,2.1,2.7l.6,3h0s0,.4,0,.4c1,6.9-6.3,10.3-9.1,11.6-6.1,2.8-20.1,3.6-33.6,3.6Zm-31.3-5.5c0,0,.2,0,.2,0,17.6,1.2,53.3,2.3,62.8-2.1,4.9-2.3,6.9-4.5,6.6-7l2.1-.6-2.2,.4-.4-2.1c-3.9,2.2-10.5,5-23.8,6.5-22,2.4-43,1.5-52.3-.6,0,.6,0,1.2,0,1.7,.1,.8,.2,1.1,.3,1.2,1,2.1,4.9,2.7,6.7,2.6h0Z"/>
            </g>
            <path d="M1827.7,2120.8c-.5,0-.9-.1-1.3-.4l-7.5-5.7c-1-.7-1.2-2.1-.4-3.1s2.1-1.2,3.1-.4l7.5,5.7c1,.7,1.2,2.1,.4,3.1-.4,.6-1.1,.9-1.8,.9Z"/>
            <path d="M1817.7,2124.9c-.5,0-.9-.1-1.3-.4l-6.6-4.9c-1-.7-1.2-2.1-.4-3.1,.7-1,2.1-1.2,3.1-.4l6.6,4.9c1,.7,1.2,2.1,.4,3.1-.4,.6-1.1,.9-1.8,.9Z"/>
          </g>
          <g>
            <path d="M1904.8,1744s14.3,28.6,19.1,58.8c4.5,28.1,20.9,143.6,61.1,236.3,4.5,10.5-.7,21.4-11.9,23.9-4.5,1-6.4-.6-10.2-2.5-2-1-5.3-3.8-5.3-3.8,0,0-71-59.4-100-215.2-18.6-100.2-15.5-92.3-15.5-92.3l62.8-5.2Z"/>
            <path d="M1884.8,1757.1s8.3,54.4-7.4,94.6c-15.2,38.7-24.9,190.4-19.2,234.2,.4,2.8-1.6,5.3-4.3,5.7-6.9,1-19.3,2.3-27.9,.7-1.6-.3-2.8-1.4-3.2-3-5.6-22.2-52.2-223.2-19.4-326.2l81.4-6Z"/>
            <path class="cls-1" d="M1869.5,1898.8c-1.2,0-2.2-.9-2.2-2.1,0-.9-.6-22,8.2-42.3,3-6.9,3.4-13.8,3.1-22.7,0-1.2,.9-2.2,2.1-2.3,1.2-.1,2.2,.9,2.3,2.1,.3,9.2-.2,16.9-3.5,24.6-8.3,19.4-7.8,40.2-7.8,40.4,0,1.2-.9,2.2-2.1,2.3h0Z"/>
            <path class="cls-1" d="M1835.9,1842.8c-2.2,0-4.4-.4-6.4-1.4l-14.9-6.7c-5.3-2.4-8.7-7.7-8.5-13.6l.9-29.4c0-1.6,.8-3.1,2-4.1,1.2-1,2.8-1.5,4.4-1.4,17.6,1.9,34.1,.1,42.4-1.1,1.7-.3,3.4,.3,4.7,1.4,1.3,1.2,1.9,2.8,1.9,4.5l-1.7,30.8c-.2,4.3-2.4,8.3-5.9,10.9l-9.7,7c-2.7,2-6,3-9.2,3Zm-23.1-52.1c-.4,0-.7,.2-.9,.3-.2,.1-.4,.5-.5,.9l-.9,29.4c-.1,4,2.2,7.7,5.9,9.4l14.9,6.7c3.7,1.7,8,1.2,11.2-1.2l9.7-7c2.4-1.8,3.9-4.5,4.1-7.5l1.7-30.8c0-.5-.3-.9-.4-1-.2-.2-.5-.4-1.1-.3-8.5,1.2-25.4,3-43.5,1.1,0,0-.1,0-.1,0Zm43.4-3.3h0Z"/>
            <path class="cls-1" d="M1911.2,1835.9c-.9,0-1.8-.2-2.6-.6l-16.4-8.4c-1.8-.9-2.9-2.6-3.1-4.6l-3.7-34.2c-.3-3.1,1.8-5.9,4.9-6.4l20-3.1c1.2-.2,2.3,.6,2.5,1.8,.2,1.2-.6,2.3-1.8,2.5l-20,3.1c-.8,.1-1.3,.8-1.2,1.6l3.7,34.2c0,.5,.3,.9,.8,1.1l16.4,8.4c.5,.2,1,.2,1.5-.1l9.9-7c1-.7,2.4-.5,3.1,.5s.5,2.4-.5,3.1l-9.9,7c-1,.7-2.2,1.1-3.4,1.1Z"/>
          </g>
          <g>
            <path class="cls-1" d="M1973.2,2080.6c-2.2-11-3.1-13.2-8.4-21.6-3.9-6.3,5.6-15.7,10.4-16.5,8.1-1.7,6.8,.9,16,12.7l7.2,8.9s-23.3,26.1-25.2,16.5Z"/>
            <path d="M1975.3,2084.9c-.4,0-.8,0-1.1-.1-1-.3-2.6-1.1-3.2-3.7-1.9-9.6-2.5-12.1-6.3-18.5-.6-1-.3-2.4,.8-3,1-.6,2.4-.3,3,.8,4.2,7,4.9,10.1,6.9,19.9,0,.3,.1,.4,.1,.4,2.1,.5,11.3-7.1,20-16.6l-5.7-6.9c-2.7-3.4-4.3-6.1-5.8-8.6-.6-1-.3-2.4,.8-3,1-.6,2.4-.3,3,.8,1.4,2.3,3,4.9,5.5,8.1l6.8,8.3c.7,.8,.7,2.1,0,2.9-5.4,6-18.1,19.3-24.8,19.3Z"/>
            <g>
              <path class="cls-1" d="M1971.9,2076.5l9.3-14.1c4.4-6.6,13.6-7.6,19.3-2l10.7,9s2,6.2,1.4,10.1c-.8,5.2-2.5,12.6-5.7,19.9-5,11.3-18.7,33.9-23.6,41.8-1,1.7-3.6,3.3-5.4,2.5-2.1-.9-4.3-2.7-6.4-4.6-3.3-3.1-2.2-17.5-1-27.5,.8-6.4,.2-22.8,0-29.6,0-2,.5-3.9,1.5-5.5Z"/>
              <path d="M1978.9,2146.2c-.6,0-1.3-.1-1.9-.4-2.1-1-4.4-2.6-7-5.1-2-1.9-4.3-6.9-1.7-29.4,.7-6.3,.2-22.5,0-29.2,0-2.4,.6-4.8,1.9-6.8l9.3-14.1c2.4-3.7,6.4-6.1,10.8-6.5,4.4-.5,8.7,1,11.9,4.1l10.6,8.9c.3,.3,.5,.6,.7,1,.2,.7,2.2,6.8,1.5,11.2-.8,5.1-2.5,12.8-5.9,20.4-4.9,11.2-18.2,33.2-23.7,42.1-1.1,1.8-3.7,3.8-6.2,3.8Zm12.8-87.2c-.4,0-.7,0-1.1,0-3.1,.3-5.8,2-7.5,4.6l-9.3,14.1c-.8,1.2-1.2,2.7-1.2,4.2,.3,6.8,.8,23.3,0,29.9-2.6,21.7-.2,25.2,.3,25.6,2.2,2.1,4.2,3.5,5.8,4.2,.4,.2,1.9-.6,2.6-1.7,5.4-8.8,18.6-30.6,23.4-41.6,3.2-7.2,4.8-14.5,5.6-19.4,.4-2.5-.6-6.6-1.1-8.5l-10.2-8.6c-2.1-2-4.7-3.1-7.4-3.1Zm-19.8,17.5h0Z"/>
            </g>
            <path d="M1970.8,2094.8c-1,0-1.9-.6-2.1-1.6-.3-1.2,.4-2.4,1.5-2.7l10.1-2.8c1.2-.3,2.4,.4,2.7,1.5,.3,1.2-.4,2.4-1.5,2.7l-10.1,2.8c-.2,0-.4,0-.6,0Z"/>
            <path d="M1971.5,2103.8c-1,0-1.9-.6-2.1-1.6-.3-1.2,.4-2.4,1.5-2.7l10.1-2.8c1.2-.3,2.4,.4,2.7,1.5,.3,1.2-.4,2.4-1.5,2.7l-10.1,2.8c-.2,0-.4,0-.6,0Z"/>
            <g>
              <path class="cls-1" d="M1981.8,2144.5c-1,0-2-.2-2.9-.5-3-1-10.5-3.3-9.7-14,.9-11.2,9.4-16.8,15.5-24.2,4.7-5.6,4.3-28.9,5.7-33.5,2.7-8.2,14.6-9.4,20.7-2.9,3.8,4.1,4.3,13,3.9,19.6-.7,12.3-7.9,36.7-17,48.5-4.4,5.8-11.3,7.1-16.3,7.1Z"/>
              <path d="M1981.8,2146.7c-1.3,0-2.5-.2-3.6-.6h-.3c-3.2-1.2-11.8-4.1-10.9-16.3,.7-9.4,6.3-15.1,11.6-20.6,1.5-1.6,3.1-3.2,4.4-4.8,2.7-3.1,3.5-14.8,4.1-22.5,.4-5.4,.7-8.5,1.2-10.3,1.4-4.2,4.8-7.2,9.5-8.2,5.4-1.2,11.2,.6,14.9,4.5,4.4,4.8,4.9,14.1,4.5,21.2-.7,11.9-7.8,37.2-17.5,49.7-5.3,6.9-13.6,7.9-18,7.9Zm19.6-79.3c-.8,0-1.7,0-2.5,.3-3.1,.7-5.4,2.6-6.3,5.3-.4,1.3-.7,5.2-1,9.2-.9,11.8-1.8,21.1-5.1,25-1.5,1.7-3.1,3.4-4.6,5-5,5.2-9.8,10.1-10.4,17.9-.6,8.1,3.8,10.3,7.9,11.7h.3c.7,.3,1.4,.4,2.2,.4,3.6,0,10.3-.8,14.5-6.2,9.2-11.8,15.9-35.9,16.6-47.3,.5-8.6-.7-15.2-3.3-17.9-2-2.2-5.1-3.5-8.2-3.5Z"/>
            </g>
            <path d="M1981.8,2146.7c-3,0-5.8-1.2-7.6-3.2-1.6-1.9-2.3-4.3-2-6.8,1.7-12,8.1-18.1,14.9-24.7,4.9-4.7,6.3-22.5,6.8-30.2,.3-3.3,.4-4.8,.6-5.6,1.1-3.9,5.8-7.3,10.8-7.9,4.6-.5,8.6,1.6,10.8,5.7,.6,1.1,.2,2.4-.9,3-1.1,.6-2.4,.2-3-.9-1.7-3.2-4.4-3.7-6.4-3.4-3.4,.4-6.5,2.8-7,4.7-.1,.5-.3,2.7-.5,4.8-1,13.2-2.6,27.6-8.2,33-6.5,6.3-12.1,11.7-13.6,22.1-.2,1.3,.1,2.5,.9,3.4,1,1.1,2.5,1.7,4.3,1.7s2.1,0,3.2-.2c1.2-.1,2.3,.7,2.5,1.9,.2,1.2-.7,2.3-1.9,2.5-1.2,.2-2.5,.2-3.7,.2Z"/>
          </g>
        </g>
        <g>
          <g>
            <path class="cls-1" d="M1918.9,1518.7s10.8-33,11.4-43.8c.5-10.8-10.3-60.6-14.6-76.8,0,0,4-30.4-19.1-35.7-1.6-.4-2.7-1.6-3.2-3.2-1.9-5.1-2.7-8.5-4.5-14.6-1.5-5.1-9-2.9-8.3,2.9,.2,2.2,2.5,20.8,3.5,28.3,.1,1-.3,2.4-1,3.1-1.5,1.8-3.2,5.5,0,12.1,4.9,10.2,7.1,7.3,12.4,15.7,5.3,8.5,6.9,38.9,7.3,55.2,.4,16.2-6.4,30-9.9,36-3.5,6,26.2,20.7,26.2,20.7Z"/>
            <path d="M1918.9,1520.9c-.3,0-.7,0-1-.2-4.2-2.1-25.3-12.9-27.5-20.2-.5-1.7,0-2.9,.4-3.7,3-5.1,9.9-18.7,9.6-34.9-.5-21.5-2.5-47-6.9-54.1-2.2-3.5-3.7-4.8-5.3-6.2-2.1-1.8-4.2-3.7-7.2-9.7-3.8-7.9-1.5-12.5,.3-14.5,.3-.3,.5-1.1,.5-1.4-1-7.7-3.2-26.1-3.5-28.3-.5-4.5,2.5-7.5,5.6-8.1,3.2-.6,6.1,1.1,7,4.3,.6,2,1.1,3.7,1.6,5.3,.9,3.2,1.7,5.8,2.9,9.1,.4,1,1,1.7,1.7,1.8,23.2,5.3,21.2,33.7,20.8,37.7,4.1,15.5,15.1,65.7,14.6,77.1-.5,11-11,43-11.5,44.4-.2,.6-.7,1.1-1.2,1.3-.3,.1-.6,.2-.9,.2Zm-33.7-177c-.1,0-.3,0-.4,0-1.2,.2-2.3,1.4-2.1,3.3,.2,2.1,2.5,20.7,3.5,28.3,.2,1.6-.4,3.6-1.5,4.8-1.8,2.1-1.7,5.5,.4,9.7,2.5,5.3,4.2,6.7,6.1,8.3,1.7,1.5,3.6,3.1,6.2,7.2,6,9.6,7.3,42.6,7.6,56.3,.4,17.3-7,31.8-10.2,37.2-.3,2.4,10.4,10,23,16.5,2.5-7.8,10-32.1,10.5-40.8,.5-10.3-10.1-59.3-14.5-76.1,0-.3,0-.6,0-.9,.2-1.2,3.5-28.5-17.4-33.3-2.2-.5-3.9-2.1-4.8-4.6-1.3-3.5-2.1-6.3-3-9.5-.4-1.6-.9-3.3-1.5-5.2-.3-1-.9-1.3-1.5-1.3Z"/>
          </g>
          <g>
            <path class="cls-1" d="M1901.8,1484.1c-4-.9-8.2,1.2-10.1,4.8-4,7.4-32.3,38.2-36.5,41.6-5.2,4.1-20.2,29.1-52.5,28.5-1.9,0-3.7,.6-5.2,1.8-3.7,3.1-12.4,9.1-27.5,13.7-9.1,2.8-16.4,11.5-17.2,31.4-1,23.7-25.6,69.9-18.4,87.6,12.5,30.8,32.4,22.2,51.3,15.9,0,0,1.3,0,.2,27.7-1.7,42.4-2.7,44.2,55.9,40.3,44.1-2.9,84.4-9.2,84.8-18.4,.3-6.8-11.4-43.6-13.9-87.9s5.3-111.9,10.2-129.1c4.4-15.4-1.3-53.5-21.1-57.8Z"/>
            <path d="M1812.4,1781c-12,0-19.4-1.4-23.8-5.7-6.2-6.1-5.8-16.8-5-36.2v-2c.7-15.3,.6-21.9,.4-24.7l-.6,.2c-18,6.1-38.4,12.9-51-18.2-4.5-11,2-30.6,8.7-51.2,4.5-13.6,9.1-27.7,9.5-37.3,.8-18.6,7.1-29.8,18.8-33.4,14.6-4.4,23-10.2,26.7-13.3,1.9-1.6,4.3-2.3,6.7-2.3,25.5,.5,39.5-15.3,47-23.8,1.7-2,3-3.4,4.1-4.2,4-3.2,32.1-33.8,35.9-40.9,2.4-4.6,7.6-7,12.5-5.9h0c6.1,1.3,11.4,5.6,15.6,12.5,8.3,13.9,10.5,36.5,7.2,48-4.8,16.9-12.6,84.2-10.1,128.4,1.6,29.4,7.5,55.9,11,71.7,1.9,8.7,3.1,13.9,3,16.5-.6,12.2-47.6,17.9-86.9,20.5-12.1,.8-21.8,1.4-29.6,1.4Zm-26.7-73.8c.6,0,1.2,.3,1.6,.7,.7,.8,1.9,1.9,.8,29.3v2c-.8,18.2-1.2,28.2,3.6,32.9,5.6,5.4,18.8,5.1,50,3.1,65.1-4.3,82.6-12.6,82.8-16.3,0-2-1.2-7.9-2.9-15.3-3.5-15.9-9.4-42.6-11.1-72.4-2.5-44.6,5.4-112.8,10.3-129.9,3-10.6,.8-31.9-6.7-44.5-3.5-5.9-7.8-9.4-12.7-10.5-3-.7-6.2,.9-7.7,3.7-4.1,7.7-32.4,38.5-37.1,42.3-.8,.6-2,2-3.5,3.7-7.4,8.4-22.9,25.8-50.4,25.3-1.4,0-2.7,.4-3.8,1.3-4,3.3-12.9,9.4-28.2,14.1-9.7,2.9-15,12.8-15.7,29.4-.4,10.2-4.9,24-9.7,38.5-6.2,19-12.7,38.7-8.8,48.2,11,27.3,27.8,21.6,45.5,15.7l3-1c.2,0,.5-.1,.7-.1Z"/>
          </g>
          <path d="M1782.3,1714.7c-.9,0-1.8-.6-2.1-1.5-.4-1.1,.2-2.4,1.3-2.8,.3-.1,15.8-6.9,13.2-50.2,0-1.2,.9-2.3,2.1-2.3,1.2,0,2.3,.9,2.3,2.1,2.8,47.3-15.3,54.3-16.1,54.6-.2,0-.5,.1-.7,.1Z"/>
        </g>
        <g>
          <g>
            <path class="cls-1" d="M1839,1466.1c1.1,3.8,3.3,13.3,5.6,16.2,5.7,7.3,10.6,30.6,1.7,46.6-5.1,9.1-5.6,16.4-5.2,20.7,.3,2.8-1.1,5.6-3.5,7.2h0c-5.8,3.9-12.3,6.2-19.2,6.9l-2,.2c-3.2,.3-6.3-1.4-7.8-4.3-4.3-8.9-13.7-27.3-19.8-32-8.1-6.2-54.3-58.4-23.5-74.6,53.4-28.2,70.3,1.3,73.8,13.2Z"/>
            <path d="M1815.5,1566.1c-3.8,0-7.3-2.2-9-5.6-8-16.4-15.1-28.1-19.1-31.2-5.6-4.3-36.7-37.9-34.7-61.5,.6-7.5,4.5-13.2,11.5-16.9,23-12.1,42-15.2,56.4-9,14.5,6.2,19.4,19.6,20.5,23.6,.2,.8,.5,1.7,.8,2.8,1.1,4,2.8,10.6,4.4,12.7,6,7.7,11.3,32.2,1.9,49.1-4.8,8.5-5.3,15.2-4.9,19.4,.3,3.6-1.4,7.2-4.5,9.2-6.1,4-13.1,6.5-20.3,7.2l-2,.2c-.3,0-.6,0-1,0Zm-11-122.9c-10.8,0-23.6,3.9-38.3,11.6-5.7,3-8.7,7.4-9.2,13.3-1.8,20.4,26,52.2,33,57.6,6.3,4.9,15.5,22.6,20.4,32.8,1,2.1,3.2,3.3,5.6,3.1l2-.2c6.5-.6,12.8-2.9,18.2-6.4,1.8-1.2,2.8-3.2,2.6-5.2-.4-4.8,.2-12.5,5.5-21.9,8.4-15,3.7-37.5-1.5-44.2-2-2.5-3.6-8.2-5.2-14.2-.3-1.1-.5-2-.7-2.7-1-3.5-5.3-15.3-18-20.8-4.3-1.8-9.1-2.7-14.3-2.7Z"/>
          </g>
          <path d="M1837.5,1505.7h0c-6.1-.2-10.1-7.3-10.9-14.2-.6-6,1.2-10.3,4.8-11.2,4-1,6.5,3.6,6.8,4.1,.6,1.1,.2,2.4-.9,3-1.1,.6-2.4,.2-3-.9-.6-1.1-1.6-1.9-1.9-1.9-1,.2-1.9,2.8-1.5,6.5,.5,5,3.1,10.2,6.6,10.3,1.2,0,2.2,1,2.1,2.3,0,1.2-1,2.1-2.2,2.1Z"/>
          <path d="M1850.7,1472.2s-1.7-43-30-48.7c-28.3-5.7-62.2,3.6-71.4,16.2-9.2,12.5-1.2,33.5-1.2,33.5,0,0-10.9,19.8,3.5,28.9s28.9,32.4,44,24.7c15.1-7.7,23.3-16.5,22.6-31.8-.9-20.4,32.4-22.8,32.4-22.8Z"/>
        </g>
      </g>
      <g>
        <g>
          <g>
            <g>
              <g>
                <polygon class="cls-1" points="1238.7 2030.4 1229.2 2097.3 1204.8 2097.4 1203.6 2031.6 1238.7 2030.4"/>
                <path d="M1204.8,2099.6c-1.2,0-2.2-1-2.2-2.2l-1.1-65.8c0-1.2,.9-2.2,2.1-2.2l35-1.2c.7,0,1.3,.2,1.7,.7,.4,.5,.6,1.1,.5,1.8l-9.5,66.9c-.2,1.1-1.1,1.9-2.2,1.9h-24.4c0,0,0,0,0,0Zm1.1-65.8l1.1,61.4h20.3c0,0,8.9-62.5,8.9-62.5l-30.2,1Z"/>
              </g>
              <g>
                <path class="cls-1" d="M1230,2161.2c-9.6,1-23.8,1.4-42.8-.2-6.8-.6-11.6-6.9-10.5-13.6,3-18.1,11.2-50.2,24.2-64.8l6.4,9.1,3.8-9.5c.6-1,16.8-1.7,17.1,.2l1,9.2,9.2-10.3-.5,33.7c0,3.7,.3,7.4,1.1,11.1l2.4,11.7c1.4,7-.3,14.5-5.2,19.7-1.9,2-4,3.5-6.1,3.7Z"/>
                <path d="M1211.5,2164.3c-6.8,0-15-.3-24.5-1.1-3.9-.3-7.3-2.2-9.7-5.3-2.4-3.1-3.4-7-2.8-10.9,.8-4.8,8.1-47.1,24.7-65.9,.4-.5,1.1-.7,1.8-.7,.7,0,1.3,.4,1.7,.9l4.1,5.8,2.3-5.7c0-.1,0-.2,.2-.3,1.7-2.8,16.2-1.9,17.6-1.7,.9,.2,3.2,.6,3.6,2.6l.5,4.4,5.9-6.6c.6-.7,1.6-.9,2.4-.6,.9,.3,1.4,1.2,1.4,2.1l-.5,33.7c0,3.6,.3,7.1,1,10.6l2.4,11.7c1.6,7.9-.5,16-5.8,21.6-2.4,2.6-5,4.1-7.4,4.4-4.5,.5-10.7,.9-18.7,.9Zm-10.8-78.2c-11.8,15.4-19.3,45.5-21.9,61.6-.4,2.6,.3,5.4,1.9,7.5,1.6,2.1,4,3.4,6.6,3.6,20.3,1.8,34.3,1.1,42.4,.2,1.3-.1,3-1.2,4.7-3,4.3-4.6,6-11.2,4.7-17.7l-2.4-11.7c-.8-3.8-1.2-7.7-1.1-11.6l.4-27.8-5.2,5.9c-.6,.6-1.5,.9-2.3,.6-.8-.3-1.4-1-1.5-1.9l-.9-8.1c-2.7-.5-10.7-.4-13.3,.2l-3.5,8.6c-.3,.7-1,1.3-1.8,1.4-.8,.1-1.6-.3-2.1-.9l-4.8-6.8Zm11.5-2.1h0Z"/>
              </g>
              <path d="M1212.6,2152.4c-6.7,0-15-.5-24.4-2.2-1.2-.2-2-1.4-1.8-2.5,.2-1.2,1.3-2,2.5-1.8,23.5,4.1,40.2,.8,40.4,.8,1.2-.2,2.4,.5,2.6,1.7,.2,1.2-.5,2.4-1.7,2.6-.4,0-7,1.4-17.6,1.4Z"/>
              <path d="M1220.3,2126.7h-22.1c-1.2,0-2.2-1-2.2-2.2s1-2.2,2.2-2.2h22.1c1.2,0,2.2,1,2.2,2.2s-1,2.2-2.2,2.2Z"/>
            </g>
            <g>
              <g>
                <polygon class="cls-1" points="1413.6 2036.4 1422.1 2114.3 1454.9 2121.2 1452.9 2029.8 1413.6 2036.4"/>
                <path d="M1454.9,2123.4c-.2,0-.3,0-.5,0l-32.8-6.9c-.9-.2-1.6-1-1.7-1.9l-8.6-77.9c-.1-1.2,.7-2.2,1.8-2.4l39.4-6.6c.6-.1,1.3,0,1.8,.5s.8,1,.8,1.6l2,91.4c0,.7-.3,1.3-.8,1.7-.4,.3-.9,.5-1.4,.5Zm-30.8-10.9l28.5,6-1.9-86.1-34.8,5.8,8.2,74.3Z"/>
              </g>
              <g>
                <path class="cls-1" d="M1408.3,2151.5c-.7-13.7-.7-38.8,7.6-50.9l26.2,9.3v-5.6c0-1.8,1.3-3.3,2.9-3.4l14.6-.8c5.5-.3,10.9,.8,15.9,3.3,14.7,7.2,59.4,25.8,65.6,46.6,1.8,6.1-3,12.3-9.4,12.5-14.7,.4-50.1,.9-113.6-1.3-5.3-.2-9.6-4.4-9.8-9.7Z"/>
                <path d="M1502.4,2165c-19.5,0-47.1-.4-84.3-1.6-6.5-.2-11.6-5.3-12-11.7-.7-14.1-.7-39.7,8-52.3,.6-.8,1.6-1.2,2.6-.8l23.3,8.3v-2.5c0-3,2.2-5.4,5-5.6l14.6-.8c5.8-.3,11.7,.9,17,3.5,1.8,.9,3.9,1.9,6.4,3.1,19.1,9,54.6,25.6,60.3,44.9,1,3.5,.4,7.2-1.8,10.2-2.2,3.1-5.8,5-9.7,5.1-6.3,.2-15.9,.4-29.4,.4Zm-85.6-61.8c-7,12-7,35.1-6.3,48.1,.2,4.2,3.5,7.4,7.7,7.6,62.9,2.2,98.1,1.7,113.5,1.3,2.4,0,4.8-1.3,6.2-3.3,1.4-1.9,1.8-4.2,1.1-6.4-5.2-17.4-40.9-34.1-58-42.2-2.5-1.2-4.7-2.2-6.5-3.1-4.6-2.3-9.8-3.3-14.8-3l-14.6,.8c-.5,0-.9,.6-.9,1.2v5.6c0,.7-.3,1.4-.9,1.8-.6,.4-1.3,.5-2,.3l-24.6-8.7Z"/>
              </g>
              <path d="M1492.2,2152.1c-18.6,0-43.7-.8-71.2-4-1.2-.1-2.1-1.2-1.9-2.4,.1-1.2,1.2-2.1,2.4-1.9,55.8,6.5,102,3.1,102.4,3.1,1.2,0,2.3,.8,2.4,2,0,1.2-.8,2.3-2,2.4-.2,0-12.6,.9-32.1,.9Z"/>
              <path d="M1484.1,2129.7c-.4,0-.9-.1-1.3-.4l-25.2-18.2c-1-.7-1.2-2.1-.5-3.1,.7-1,2.1-1.2,3.1-.5l25.2,18.2c1,.7,1.2,2.1,.5,3.1-.4,.6-1.1,.9-1.8,.9Z"/>
            </g>
            <g>
              <path d="M1423.8,1492s47,361.2,37,576.3l-14.7,1.5c-7.9,.8-15.8,1-23.7,.6l-13.9-.7s-56-365.6-84-419.9c0,0-76.1,329.5-79,408.2,0,0-33.8,3.4-47.3-1.5-7.2-76-9.3-193.5-9.7-242.9-1-141.3,12.5-205.5,19.9-235.9,6.8-28,14.1-50.7,19.4-66.1l17.8-50.7,178.2,31.1Z"/>
              <path class="cls-1" d="M1325.3,1657.2c-.1,0-.3,0-.4,0-1.2-.2-2-1.4-1.8-2.6l4.4-24.3c2.4-8.7,9.2-15.1,17.8-16.9l7.3-1.5c1.2-.2,2.4,.5,2.6,1.7,.2,1.2-.5,2.4-1.7,2.6l-7.3,1.5c-7,1.4-12.5,6.6-14.4,13.5l-4.3,24.1c-.2,1.1-1.1,1.8-2.2,1.8Z"/>
              <path class="cls-1" d="M1228.9,1615.7c-1.1,0-2-.8-2.2-1.8-.2-1.2,.6-2.3,1.8-2.5,40.7-6.8,48.8-38.6,48.9-38.9,.3-1.2,1.5-1.9,2.7-1.6,1.2,.3,1.9,1.5,1.6,2.7,0,.4-9,35-52.5,42.2-.1,0-.2,0-.4,0Z"/>
              <path class="cls-1" d="M1425.9,1587.2c-.3,0-.6,0-.9-.2-25.5-11.1-24.9-35.3-24.9-35.6,0-1.2,1-2.2,2.3-2.1,1.2,0,2.2,1.1,2.1,2.3,0,.9-.4,21.5,22.3,31.4,1.1,.5,1.6,1.8,1.1,2.9-.4,.8-1.2,1.3-2,1.3Z"/>
            </g>
          </g>
          <path d="M1203.3,1522.3c-4.3,14.6-11,34.8-3.6,44.5,13.5,17.6,24.7,14.8,41.3,8.7,33.3-12.1,86.4-31.3,101.9-20.6l.7-32.6h-140.3Z"/>
          <g>
            <path class="cls-1" d="M1394,1209.5c27.6-.1,52.9,15.5,65,40.2,14,28.6,33.8,103.4,34.5,136.1,1.3,57.1-48.7,60.3-50.2,60.4,0,0,0,0,0,0,.2,1.7,6,63.7,6.5,74.7,.8,20.2-36.5,51.6-79.5,36.1-42.7-15.4-159.4-46.1-171.3-20,0,0,0,0,0,0l49-181.6s0,0,0,0l-40.2,1.9s0,0,0,0l-32.7-18.9s0,0,0,0l8.3-36.7c15.7-62.7,57.9-91.5,112.2-91.8l98.5-.5Z"/>
            <path d="M1393.6,1563.4c-8,0-16.2-1.4-24-4.2-53.4-19.3-158.4-43.5-168.5-21.1-.5,1-1.7,1.6-2.8,1.2-1.1-.4-1.7-1.6-1.4-2.7l48.2-178.8-37.2,1.8c-.4,0-.9,0-1.2-.3l-32.7-18.9c-.8-.5-1.3-1.5-1.1-2.4l8.3-36.7c15.1-60,55.7-93.2,114.4-93.5l98.5-.5h.3c28.2,0,54.3,16.2,66.6,41.4,13.7,27.9,34,103.5,34.8,137,1.2,52.8-39.7,61.2-50,62.5,1.1,11.2,5.9,62.7,6.3,72.7,.4,9.6-6.7,20.9-18.4,29.5-11.7,8.6-25.7,13-40,13Zm-163.8-38.7c11.6,0,26.2,1.5,43.7,4.6,35.5,6.2,75.4,17.7,97.6,25.7,20.5,7.4,42.9,4.3,59.9-8.2,10.4-7.7,17-17.8,16.6-25.8-.5-10.9-6.2-72-6.5-74.6-.1-1.2,.8-2.3,2-2.4,2.1-.1,49.5-3.4,48.2-58.2-.8-33-20.8-107.6-34.3-135.2-11.7-23.8-36.4-39.1-63-38.9l-98.5,.5c-56.5,.3-95.6,32.3-110.1,90.1l-7.9,35.1,30.8,17.8,39.5-1.9c.7,0,1.5,.3,1.9,.9,.4,.6,.5,1.3,.3,2l-46.8,173.6c5.6-3.3,14.5-4.9,26.5-4.9Zm164.2-315.3h0Z"/>
          </g>
          <g>
            <path class="cls-1" d="M1265.2,1349.6c-7.5-1.4-5.5-10.1-31.9-11.7-76.2-4.5-39.3-43.2,4.4-35.8,14.5,2.4,20.1,11.8,25.6,14.2,45.6,19.9,16.9,36.1,1.9,33.3Z"/>
            <path d="M1268.8,1352.1c-1.4,0-2.7-.1-4-.4h0c-3.1-.6-4.8-2.1-6.7-3.7-3.3-2.9-7.9-6.9-24.9-7.9-25.5-1.5-41.1-7-45.1-15.7-1.7-3.8-1.1-8.1,1.9-11.9,6.9-9,26.8-16.1,48.1-12.6,10.4,1.8,16.5,6.9,21,10.6,1.9,1.6,3.6,3,5.1,3.7,24.5,10.7,27.4,20.2,25.6,26.2-2.2,7.2-12.3,11.6-21,11.6Zm-3.2-4.7c7.2,1.3,18.2-2.4,20-8.2,1.9-6.1-6.6-13.7-23.1-20.9-2-.9-3.9-2.5-6.2-4.3-4.3-3.6-9.7-8.1-18.9-9.7-19.7-3.3-37.7,2.9-43.9,10.9-2,2.6-2.5,5.1-1.4,7.4,1.5,3.3,8.6,11.2,41.4,13.1,18.5,1.1,23.7,5.7,27.5,9,1.6,1.4,2.7,2.4,4.6,2.7Z"/>
          </g>
        </g>
        <g>
          <g>
            <g>
              <path class="cls-1" d="M1361,1220.2c2.5-2.2,1.2-6.3-2.1-6.7l-5.2-.6c-5.5-.7-10.2-4.4-12-9.5l-8.5-62.8-17.4,6.2-23.1-11.4,2.1,67.1c-.2,5.9-4,11-9.6,13l-6.7,2.4c-3.5,1.3-3.7,6.1-.3,7.6,13.7,6,69.6,6,82.9-5.4Z"/>
              <path d="M1312,1231.7c-15,0-28.8-1.6-34.7-4.2-2.4-1-3.9-3.4-3.8-6,0-2.6,1.7-4.8,4.2-5.7l6.7-2.4c4.8-1.7,8-6.1,8.2-11l-2.1-67c0-.8,.4-1.5,1-1.9,.6-.4,1.5-.5,2.2-.1l22.2,11,16.6-5.9c.6-.2,1.3-.2,1.9,.2,.6,.3,.9,.9,1,1.6l8.5,62.6c1.6,4.3,5.4,7.2,10.1,7.8l5.2,.6c2.4,.3,4.4,1.9,5.1,4.3,.7,2.3,0,4.7-1.8,6.3h0c-8.2,7-30.4,9.9-50.5,9.9Zm-17-92.8l2,63.5c-.2,6.9-4.5,12.8-11.1,15.2l-6.7,2.4c-1.2,.4-1.3,1.4-1.3,1.7,0,.3,0,1.3,1.2,1.8,12.6,5.5,67.8,5.9,80.6-5,.7-.6,.6-1.4,.5-1.7,0-.3-.4-1.1-1.4-1.2l-5.2-.6c-6.4-.8-11.7-5-13.8-10.9,0-.1,0-.3-.1-.4l-8.1-60.1-14.9,5.3c-.6,.2-1.2,.2-1.7,0l-19.8-9.8Zm66,81.2h0Z"/>
            </g>
            <g>
              <path class="cls-1" d="M1341,1090.6c29.7,10.9,24.6,30.2,24.6,30.2-.4,5.3-.6,15,.4,18.5,.8,2.9,5.6,8.4,5.8,10,.2,1.6-2.3,4.9-7.5,6.1,0,0-2,25.7-8.7,29.9-6.7,4.2-32.7-3.9-32.7-3.9l-4.4-1.8c-14.1-5.6-22.7-17.4-26.8-31.9,0,0-18.9-82.2,49.2-57.1Z"/>
              <path d="M1349.2,1188.6c-9.7,0-23.5-4.1-26.9-5.2l-4.5-1.8c-13.8-5.5-23.5-17-28.1-33.3-.4-1.8-9.4-41.8,9.1-58.1,9.3-8.2,23.8-8.8,42.9-1.7,29.3,10.8,26.5,30.1,26,32.5-.4,6.4-.4,14.9,.3,17.6,.3,1.2,1.9,3.5,3.1,5.2,1.7,2.5,2.6,3.8,2.8,5,.4,2.7-2.5,6.4-7.6,8.1-.6,6.7-2.9,25.9-9.6,30.1-1.8,1.1-4.5,1.5-7.6,1.5Zm-30.9-100.6c-6.8,0-12.4,1.8-16.6,5.5-16.5,14.6-7.9,53.3-7.8,53.7,4.2,14.8,13,25.3,25.4,30.3l4.4,1.8c9.5,2.9,26.4,6.7,30.7,4,4-2.5,6.9-18,7.7-28.2,0-1,.8-1.8,1.7-2,3.9-.9,5.5-3,5.8-3.7-.3-.6-1.3-2-2-3.1-1.6-2.3-3.2-4.6-3.7-6.5-1.2-4.3-.8-15.3-.5-19.2,0-.1,0-.3,0-.4,.2-.7,4.1-17.5-23.3-27.6h0c-8.4-3.1-15.7-4.6-21.9-4.6Zm51.4,61.6h0Z"/>
            </g>
            <path d="M1331.2,1076.6c7.8,1.9,15.5,6.8,19.5,7.2,6.5,.7,11.2-7.7,19.4-4.6,7.2,2.7,11.3,8.8,12.3,15.8,.2,1.2,.2,2.4,.1,3.7-1.5,17.5-12.5,21.3-17,22.1,0,0-25.8-2.4-30.8-1.2-4.7,1.1-12,8.5-14.2,18.9-.3,1.3-1.5,2.3-2.8,2.4-1.6,.1-3.1-1-3.3-2.6-.9-5-3.2-15-8.3-15.3-5.9-.3-13.5,11.4-5.7,18.7,2.4,2.3,1.6,6.4-1.5,7.6-2.5,1-5.7,1.1-9.2-1.7,0,0-15.3-26.8-8-49.4,7.3-22.6,39-24.1,49.4-21.6Z"/>
          </g>
          <g>
            <path d="M1372.7,1149.5c-.6,0-1.2-.2-1.6-.7-.8-.9-.8-2.3,.1-3.1,1.4-1.3,2.8-4.5,3.1-9,.1-2.8-.3-5.6-1.1-7.5-.7-1.6-1.5-2.3-2-2.4,0,0,0,0,0,0-1,0-2.9,2.3-3.7,6.6-.2,1.2-1.4,2-2.6,1.7-1.2-.2-2-1.4-1.7-2.6,1.2-6.4,4.4-10.3,8.3-10.2,2.4,.1,4.5,1.9,5.8,5,1.1,2.6,1.6,6,1.4,9.5-.3,5.2-1.9,9.7-4.5,12-.4,.4-1,.6-1.5,.6Z"/>
            <path d="M1352.5,1151.2c-.1,0-.2,0-.4,0-2.8-.1-5.3-1.9-7.1-5-1.5-2.8-2.3-6.3-2.1-10,.4-8.2,5-14.4,10.6-14.1,2.8,.1,5.3,1.9,7.1,5,1.5,2.8,2.3,6.3,2.1,10-.4,8-4.9,14.1-10.3,14.1Zm-5.1-14.9c-.1,2.9,.4,5.7,1.5,7.7,.5,1,1.7,2.7,3.4,2.8,2.5,.1,5.7-3.9,6-9.9,.1-2.9-.4-5.7-1.5-7.7-.5-1-1.7-2.7-3.4-2.8-2.6,0-5.7,3.9-6,9.9Z"/>
            <path d="M1346.1,1133c0,0-.1,0-.2,0l-28.4-2.5c-1.2-.1-2.1-1.2-2-2.4,.1-1.2,1.2-2.1,2.4-2l28.4,2.5c1.2,.1,2.1,1.2,2,2.4-.1,1.1-1.1,2-2.2,2Z"/>
          </g>
        </g>
        <g>
          <path class="cls-1" d="M1300.9,1254.8s11,17.3,21,14.3c5.2-1.6,10.3-18.7,12.4-19.3,6.7-1.9,19.4-5.1,27.2-19,7.3-13,5.7-20,3.8-23.2-.9-1.5-.9-3.3,.1-4.7,1.4-2.1,2.7-5.2,1.3-8.4-.5-1.1-.4-2.4,0-3.5,1.9-4.3,5.3-14.2-1.4-16.2-1.8-.5-3.8,.1-4.9,1.7-2.1,2.9-6.5,8.4-12,11.9-7.7,4.9-12.3,8.3-16.2,10.5-3.3,1.9-5.1-14.7-13.1-20.9-7.1-5.5-9.5-2.7-10.2-.1-.7,2.6,3.7,3.6,6.2,16,2.9,14.5-.1,26.6-1,33.1-1,7.6-13.3,27.9-13.3,27.9Z"/>
          <path d="M1319.4,1271.6c-10.3,0-20-14.9-20.5-15.6-.5-.7-.5-1.6,0-2.3,3.4-5.5,12.2-21.2,13-27.1,.1-1.1,.4-2.3,.6-3.7,1.1-6.8,2.8-17,.5-28.8-1.4-7.1-3.4-10.1-4.7-12.1-1-1.5-1.9-2.9-1.4-4.9,.6-2.2,1.9-3.8,3.8-4.4,2.6-.9,5.9,.2,9.9,3.4,4.8,3.7,7.4,10.5,9.4,15.5,.6,1.6,1.5,3.7,2.1,4.7,1.9-1.1,4.1-2.6,6.7-4.3,2.4-1.6,5.2-3.4,8.6-5.6,5.1-3.3,9.3-8.5,11.4-11.3,1.6-2.3,4.6-3.3,7.3-2.5,2.1,.6,3.7,2,4.6,3.9,2,4.3,.1,10.7-1.9,15.3-.3,.6-.3,1.3,0,1.8,1.4,3.3,.9,6.9-1.5,10.5-.5,.7-.5,1.6,0,2.4,2.4,4.1,3.7,11.9-3.8,25.3-7.9,14.2-20.8,17.9-27.6,19.8h-.4c-.6,.9-1.8,3.5-2.6,5.3-3.4,7.3-6.3,13-10.1,14.2-1,.3-2,.5-3,.5Zm-16-16.9c3.4,4.9,11.4,14.2,17.7,12.2,2.3-.7,5.6-7.9,7.4-11.8,2.4-5.2,3.3-7,5-7.5l.8-.2c6.7-1.9,18-5.2,25-17.8,6.9-12.3,5.4-18.4,3.8-21-1.3-2.2-1.2-5,.2-7.1,1.6-2.3,2-4.4,1.1-6.3-.7-1.6-.7-3.6,0-5.3,2.2-5.2,2.9-9.5,1.9-11.7-.4-.8-1-1.3-1.9-1.5-.9-.3-1.9,0-2.5,.8-2.2,3.1-6.8,8.8-12.6,12.5-3.3,2.1-6.1,4-8.5,5.5-3.1,2.1-5.6,3.7-7.8,5-.8,.5-1.8,.6-2.7,.3-2.1-.7-3.1-3.4-4.8-7.7-1.8-4.5-4.2-10.7-8-13.6-3-2.4-5-2.9-5.8-2.7-.5,.2-.8,.9-.9,1.4,0,.2,.5,.8,.8,1.4,1.4,2.1,3.8,5.7,5.4,13.6,2.5,12.5,.7,23.3-.4,30.4-.2,1.3-.4,2.5-.6,3.5-.9,7-10.2,23-12.9,27.6Z"/>
        </g>
        <path class="cls-1" d="M1337.2,1262.5l-33.5-21.3s-45.2,73.1-79.5,97.9c-16.7,12.1-49-2.1-49-2.1,0,0-31.1,119.3,28.9,136.4,99.8,28.4,133-210.9,133-210.9Z"/>
        <path d="M1220.3,1477.9c-5.5,0-11.1-.8-16.7-2.4-61.3-17.4-31.7-134.1-30.4-139.1,.3-1.2,1.5-1.9,2.7-1.6,1.2,.3,1.9,1.5,1.6,2.7-.3,1.2-29.8,117.5,27.4,133.7,15.9,4.5,31.1,2.2,45.1-7,59-38.5,82.6-184.8,85-200.7l-30.4-19.4c-7.5,11.9-47.3,73.8-78.9,96.7-1,.7-2.4,.5-3.1-.5-.7-1-.5-2.4,.5-3.1,33.5-24.3,78.4-96.6,78.9-97.3,.3-.5,.8-.9,1.4-1,.6-.1,1.2,0,1.7,.3l33.5,21.3c.7,.5,1.1,1.3,1,2.2-.9,6.7-23.4,163.6-87.1,205.2-10.1,6.6-20.8,9.9-32,9.9Z"/>
        <g>
          <path d="M1437.9,1449.8c-37.7,0-90.4-29.1-128.8-57.7-1-.7-1.2-2.1-.5-3.1s2.1-1.2,3.1-.4c38.3,28.5,96.1,60.5,132.8,56.5,1.2-.1,2.3,.7,2.4,1.9,.1,1.2-.7,2.3-1.9,2.4-2.3,.2-4.7,.4-7.1,.4Z"/>
          <path d="M1387.3,1357.9c-21.1,0-59.8-18.1-61.6-18.9-1.1-.5-1.6-1.8-1.1-2.9,.5-1.1,1.8-1.6,2.9-1.1,.5,.2,47.5,22.2,64.6,18,28.6-7,22-42.7,21.7-44.2-.2-1.2,.5-2.3,1.7-2.6,1.2-.2,2.3,.5,2.6,1.7,0,.4,7.7,41.4-25,49.4-1.8,.4-3.8,.6-6,.6Z"/>
        </g>
      </g>
    </g>
  </g>
</svg>