<svg width="13" height="11" viewBox="0 0 13 11" fill="none" xmlns="http://www.w3.org/2000/svg">
<path fill-rule="evenodd" clip-rule="evenodd" d="M6.7287 0.439075C6.86935 0.29847 7.06008 0.219482 7.25896 0.219482C7.45783 0.219482 7.64856 0.29847 7.78921 0.439075L12.2893 4.93914C12.4299 5.07978 12.5089 5.27052 12.5089 5.46939C12.5089 5.66827 12.4299 5.859 12.2893 5.99965L7.78921 10.4997C7.64776 10.6363 7.45831 10.7119 7.26165 10.7102C7.065 10.7085 6.87689 10.6296 6.73783 10.4906C6.59878 10.3515 6.5199 10.1634 6.51819 9.96675C6.51648 9.7701 6.59208 9.58065 6.7287 9.4392L9.94849 6.2194H1.25888C1.05996 6.2194 0.869192 6.14038 0.728538 5.99973C0.587884 5.85907 0.508865 5.66831 0.508865 5.46939C0.508865 5.27048 0.587884 5.07971 0.728538 4.93906C0.869192 4.7984 1.05996 4.71938 1.25888 4.71938H9.94849L6.7287 1.49959C6.58809 1.35894 6.50911 1.16821 6.50911 0.969332C6.50911 0.770456 6.58809 0.579723 6.7287 0.439075Z" fill="#292929"/>
</svg>
