<svg width="20" height="20" viewBox="0 0 20 20" fill="none" xmlns="http://www.w3.org/2000/svg">
<path d="M19.9979 10.0004C19.9979 11.4433 20.0019 12.8863 19.9979 14.3333C19.9898 16.4293 19.0144 17.9811 17.2731 19.0774C16.2534 19.7142 15.1208 19.9964 13.9196 19.9964C11.2916 19.9964 8.66769 20.0085 6.03971 19.9924C4.21382 19.9803 2.64187 19.3354 1.3964 17.9811C0.626542 17.1427 0.167048 16.1552 0.0340366 15.0145C0.00582206 14.7727 0.0017914 14.5349 0.0017914 14.293C0.0017914 11.4192 -0.00223925 8.5453 0.0017914 5.67145C0.0138834 3.57148 0.989301 2.01968 2.73054 0.923342C3.75836 0.282468 4.895 0.00435309 6.1042 0.00435309C8.72412 0.00435309 11.344 -0.00773884 13.964 0.00838376C15.7979 0.0204757 17.3739 0.66941 18.6194 2.03177C19.3812 2.86612 19.8366 3.85363 19.9656 4.98221C20.018 5.42558 19.9938 5.86895 19.9979 6.30829C20.0019 7.54167 19.9979 8.77102 19.9979 10.0004ZM1.49716 10.0004C1.49716 11.4796 1.49313 12.9548 1.49716 14.4341C1.50119 15.4498 1.87201 16.3245 2.56529 17.05C3.49637 18.0214 4.65719 18.493 5.99134 18.501C8.63948 18.5171 11.2836 18.505 13.9317 18.505C14.7862 18.505 15.6004 18.3196 16.342 17.8924C17.7286 17.0983 18.5105 15.9295 18.5105 14.293C18.5105 11.3829 18.5105 8.47678 18.5105 5.56665C18.5105 4.55899 18.1438 3.68837 17.4545 2.96688C16.5315 1.99146 15.3666 1.51182 14.0365 1.50376C11.3602 1.4836 8.68784 1.49569 6.01149 1.49569C5.17715 1.49569 4.38714 1.6932 3.66162 2.10432C2.27911 2.90239 1.49313 4.07128 1.49716 5.70772C1.49716 7.13861 1.49716 8.56949 1.49716 10.0004Z" fill="#FEFEFE"/>
<path d="M10.014 14.2728C7.41018 14.2728 5.3223 12.193 5.32633 9.59727C5.33036 7.07005 7.44645 4.99829 10.0301 5.00233C12.6258 5.00233 14.7218 7.08617 14.7177 9.65773C14.7137 12.2051 12.6057 14.2728 10.014 14.2728ZM10.014 12.7815C11.7834 12.7815 13.2264 11.3748 13.2264 9.64564C13.2264 7.90842 11.7955 6.49367 10.0301 6.49367C8.26064 6.49367 6.81767 7.90036 6.81767 9.62951C6.81767 11.3667 8.24855 12.7815 10.014 12.7815Z" fill="#FEFEFE"/>
<path d="M14.2743 4.62364C14.2743 4.05129 14.7136 3.5918 15.2618 3.5918C15.81 3.5918 16.2493 4.05532 16.2493 4.62364C16.2493 5.1839 15.81 5.6434 15.2699 5.64743C14.7217 5.65146 14.2743 5.196 14.2743 4.62364Z" fill="#FEFEFE"/>
</svg>
