<svg width="2500" height="2500" viewBox="0 0 2500 2500" fill="none" xmlns="http://www.w3.org/2000/svg">
<g clip-path="url(#clip0_1_4)">
<path d="M2500 0H0V2500H2500V0Z" fill="#202125"/>
<path d="M775.5 1294.3C758.2 1330 739.9 1393.5 726.6 1396.7C713.3 1400 685.2 1322.7 648.3 1295.6C611.4 1268.5 530.4 1242 479.2 1370.1C437.2 1475.3 433 1742.6 653.4 1868.2C1105 2125.5 1204.5 1500.7 954.8 1321.8C842.2 1241.1 792.8 1258.6 775.6 1294.2L775.5 1294.3ZM824.2 1493.1C844.8 1523.4 847.6 1558 830.4 1570.4C813.2 1582.8 782.5 1568.2 761.9 1537.8C741.3 1507.5 738.5 1472.9 755.7 1460.5C772.9 1448.1 803.6 1462.7 824.2 1493.1Z" fill="#303030"/>
<path d="M849.7 1931.8C790.4 1931.8 724.2 1911.2 652.2 1870.2C529.9 1800.5 483.3 1691.4 465.7 1612.1C443.1 1510.5 457.7 1417.9 477.1 1369.4C498.3 1316.2 526.7 1284.2 561.4 1274.3C601.3 1262.9 636.3 1284.2 649.5 1293.9C669.7 1308.8 687.1 1338 701.1 1361.6C710.6 1377.6 721.4 1395.7 726 1394.7C733.6 1392.8 745.1 1363.2 755.3 1337C759.4 1326.6 763.5 1315.8 767.7 1306.1C768.2 1305 769.5 1304.5 770.6 1304.9C771.7 1305.4 772.2 1306.7 771.8 1307.8C767.7 1317.4 763.5 1328.1 759.5 1338.5C745.5 1374.6 736.3 1396.6 727.1 1398.9C719.7 1400.7 711.8 1388.1 697.4 1363.8C683.6 1340.6 666.5 1311.8 647 1297.4C634.3 1288.1 600.7 1267.6 562.7 1278.5C529.3 1288 501.9 1319.2 481.2 1371C436.2 1483.7 440.8 1744.6 654.4 1866.3C817.1 1959 954.6 1944.8 1031.5 1827.3C1076.1 1759.1 1095.2 1660.5 1082.4 1563.5C1069.1 1462.3 1023.6 1375.9 957.5 1326.5C956.5 1325.8 956.3 1324.4 957.1 1323.4C957.8 1322.4 959.2 1322.2 960.2 1323C1027.3 1373.1 1073.4 1460.5 1086.9 1562.9C1099.8 1660.9 1080.5 1760.7 1035.3 1829.7C999.5 1884.4 948.9 1918.5 889 1928.5C876.3 1930.6 863.3 1931.7 849.9 1931.7L849.7 1931.8Z" fill="#E3E3E3"/>
<path d="M653.525 1417.22C665.867 1394 657.648 1365.5 635.168 1353.54C612.688 1341.59 584.459 1350.72 572.117 1373.93C559.776 1397.14 567.994 1425.65 590.474 1437.6C612.955 1449.55 641.183 1440.43 653.525 1417.22Z" fill="#E3E3E3"/>
<path d="M555 1582.4C547.5 1582.4 540 1580.6 532.9 1576.9C509.4 1564.4 500.7 1534.5 513.5 1510.3C519.7 1498.6 530 1489.9 542.5 1485.9C555 1481.9 568.1 1483 579.5 1489C590.9 1495.1 599.2 1505.3 602.9 1517.9C606.5 1530.5 605.1 1543.9 598.9 1555.6C589.9 1572.6 572.6 1582.4 554.9 1582.4H555ZM557.5 1487.9C553 1487.9 548.4 1488.6 543.9 1490.1C532.5 1493.8 523.2 1501.7 517.5 1512.4C505.8 1534.5 513.6 1561.7 535 1573.1C556.4 1584.5 583.3 1575.7 595.1 1553.6C600.8 1542.9 602.1 1530.7 598.8 1519.2C595.5 1507.8 588 1498.4 577.6 1492.9C571.3 1489.6 564.5 1487.9 557.6 1487.9H557.5Z" fill="#E3E3E3"/>
<path d="M592.4 1734.5C584.8 1734.5 577.2 1732.6 570.3 1729C558.9 1722.9 550.6 1712.7 546.9 1700.1C543.3 1687.5 544.7 1674.1 550.9 1662.4C563.8 1638.2 593.4 1628.6 616.9 1641.1C640.4 1653.6 649.1 1683.5 636.3 1707.7C630.1 1719.4 619.8 1728.1 607.3 1732.1C602.4 1733.7 597.3 1734.5 592.3 1734.5H592.4ZM594.9 1640C578.8 1640 563.1 1648.9 554.8 1664.5C549.1 1675.2 547.8 1687.4 551.1 1698.9C554.4 1710.3 561.9 1719.7 572.3 1725.2C582.7 1730.7 594.6 1731.7 605.9 1728C617.3 1724.3 626.6 1716.4 632.3 1705.7C644 1683.6 636.2 1656.4 614.8 1645C608.4 1641.6 601.6 1640 594.8 1640H594.9Z" fill="#E3E3E3"/>
<path d="M699 1833.2C691.4 1833.2 683.8 1831.3 676.9 1827.7C665.5 1821.6 657.2 1811.4 653.5 1798.8C649.9 1786.2 651.3 1772.8 657.5 1761.1C670.4 1736.9 700 1727.3 723.5 1739.8C747 1752.3 755.7 1782.2 742.9 1806.4C736.7 1818.1 726.4 1826.8 713.9 1830.8C709 1832.4 703.9 1833.2 698.9 1833.2H699ZM701.5 1738.7C685.4 1738.7 669.7 1747.6 661.4 1763.2C655.7 1773.9 654.4 1786.1 657.7 1797.6C661 1809 668.5 1818.4 678.9 1823.9C689.3 1829.4 701.2 1830.4 712.5 1826.7C723.9 1823 733.2 1815.1 738.9 1804.4C750.6 1782.3 742.8 1755.1 721.4 1743.7C715 1740.3 708.2 1738.7 701.4 1738.7H701.5Z" fill="#303030"/>
<path d="M561.6 1146.8L605.2 1094.4L911.1 1377.9L947.8 1435.8C947.8 1435.8 887.3 1409.5 884.7 1407.5L561.6 1146.8Z" fill="#303030"/>
<path d="M947.8 1438C947.5 1438 947.2 1438 946.9 1437.8C936.8 1433.4 886 1411.3 883.4 1409.2L560.3 1148.5C559.8 1148.1 559.6 1147.6 559.5 1147C559.5 1146.4 559.6 1145.8 560 1145.4L603.6 1093C604 1092.5 604.5 1092.3 605.1 1092.2C605.7 1092.2 606.3 1092.4 606.7 1092.8L912.6 1376.3C912.7 1376.4 912.9 1376.6 913 1376.7L949.7 1434.6C950.2 1435.4 950.1 1436.5 949.5 1437.2C949.1 1437.7 948.5 1438 947.8 1438ZM564.7 1146.5L886.1 1405.8C888.3 1407.3 918.7 1420.7 942.1 1430.9L909.4 1379.3L605.4 1097.5L564.7 1146.4V1146.5Z" fill="#E3E3E3"/>
<path d="M561.6 1146.8L605.2 1094.4L673 1157.2L633.8 1205L561.6 1146.8Z" fill="#303030"/>
<path d="M633.8 1207.2C633.3 1207.2 632.8 1207 632.4 1206.7L560.2 1148.5C559.7 1148.1 559.5 1147.6 559.4 1147C559.4 1146.4 559.5 1145.8 559.9 1145.4L603.5 1093C603.9 1092.5 604.4 1092.3 605 1092.2C605.6 1092.2 606.2 1092.4 606.6 1092.8L674.3 1155.6C675.2 1156.4 675.2 1157.7 674.5 1158.6L635.4 1206.4C635 1206.9 634.3 1207.2 633.7 1207.2H633.8ZM564.7 1146.4L633.5 1201.9L670 1157.4L605.5 1097.6L564.8 1146.5L564.7 1146.4Z" fill="#E3E3E3"/>
<path d="M470.5 1116.3C508.3 1147.4 538.7 1154.7 561.9 1147.4L605.6 1094.3C605.6 1094.3 605.6 1094.3 605.6 1094.2C608.5 1069.7 595.4 1040.8 557.2 1009.4C500.5 962.8 377.6 950.8 377.6 950.8C377.6 950.8 413.8 1069.7 470.4 1116.3H470.5Z" fill="#FFDF9A"/>
<path d="M766.271 337.866L548.964 397.722L878.413 1593.78L1095.72 1533.92L766.271 337.866Z" fill="#034A76"/>
<path d="M879.4 1595.2C878.4 1595.2 877.6 1594.6 877.3 1593.6L546.9 397.8C546.7 397.2 546.9 396.6 547.1 396.1C547.4 395.6 547.9 395.2 548.4 395.1L765.6 335.1C766.8 334.8 768 335.5 768.3 336.6L1098.6 1532.4C1098.8 1533 1098.6 1533.6 1098.4 1534.1C1098.1 1534.6 1097.6 1535 1097.1 1535.1L879.9 1595.1C879.7 1595.1 879.5 1595.1 879.3 1595.1L879.4 1595.2ZM551.8 398.7L881 1590.3L1094 1531.5L764.8 339.9L551.8 398.7Z" fill="#034A76"/>
<path d="M1014.9 1427.5C1013.9 1427.5 1013 1426.8 1012.8 1425.8C1012.5 1424.6 1013.2 1423.4 1014.4 1423.1L1061.3 1411.3C1062.5 1411 1063.7 1411.7 1064 1412.9C1064.3 1414.1 1063.6 1415.3 1062.4 1415.6L1015.5 1427.4C1015.3 1427.4 1015.1 1427.4 1015 1427.4L1014.9 1427.5Z" fill="black"/>
<path d="M1006.1 1397.7C1005.1 1397.7 1004.2 1397 1004 1396C1003.7 1394.8 1004.5 1393.6 1005.7 1393.4L1053.4 1382.4C1054.6 1382.1 1055.8 1382.9 1056 1384.1C1056.3 1385.3 1055.5 1386.5 1054.3 1386.7L1006.6 1397.7C1006.4 1397.7 1006.3 1397.7 1006.1 1397.7Z" fill="black"/>
<path d="M998.9 1369.6C997.9 1369.6 997 1368.9 996.8 1367.9C996.5 1366.7 997.2 1365.5 998.4 1365.2L1045.3 1353.4C1046.5 1353.1 1047.7 1353.8 1048 1355C1048.3 1356.2 1047.6 1357.4 1046.4 1357.7L999.5 1369.5C999.3 1369.5 999.1 1369.5 999 1369.5L998.9 1369.6Z" fill="black"/>
<path d="M981.1 1346.7C980.1 1346.7 979.2 1346 979 1345C978.7 1343.8 979.5 1342.6 980.6 1342.4L1036.3 1329.2C1037.5 1328.9 1038.7 1329.7 1038.9 1330.8C1039.2 1332 1038.4 1333.2 1037.3 1333.4L981.6 1346.6C981.4 1346.6 981.3 1346.6 981.1 1346.6V1346.7Z" fill="black"/>
<path d="M961.2 1233.1C960.2 1233.1 959.3 1232.4 959.1 1231.4C958.8 1230.2 959.5 1229 960.7 1228.7L1007.6 1216.9C1008.8 1216.6 1010 1217.3 1010.3 1218.5C1010.6 1219.7 1009.9 1220.9 1008.7 1221.2L961.8 1233C961.6 1233 961.4 1233 961.3 1233L961.2 1233.1Z" fill="black"/>
<path d="M937.9 1211.8C936.9 1211.8 936 1211.1 935.8 1210.1C935.5 1208.9 936.2 1207.7 937.4 1207.4L998.6 1192.7C999.8 1192.4 1001 1193.1 1001.3 1194.3C1001.6 1195.5 1000.9 1196.7 999.7 1197L938.5 1211.7C938.3 1211.7 938.2 1211.7 938 1211.7L937.9 1211.8Z" fill="black"/>
<path d="M981.9 1316.5C980.9 1316.5 980 1315.8 979.8 1314.8C979.5 1313.6 980.2 1312.4 981.4 1312.1L1028.3 1300.3C1029.5 1300 1030.7 1300.7 1031 1301.9C1031.3 1303.1 1030.6 1304.3 1029.4 1304.6L982.5 1316.4C982.3 1316.4 982.1 1316.4 982 1316.4L981.9 1316.5Z" fill="black"/>
<path d="M973 1286.6C972 1286.6 971.1 1285.9 970.9 1284.9C970.6 1283.7 971.4 1282.5 972.6 1282.3L1020.3 1271.3C1021.5 1271 1022.7 1271.8 1022.9 1273C1023.1 1274.2 1022.4 1275.4 1021.2 1275.6L973.5 1286.6C973.3 1286.6 973.2 1286.6 973 1286.6Z" fill="black"/>
<path d="M968.1 1258C967.1 1258 966.2 1257.3 966 1256.3C965.7 1255.1 966.4 1253.9 967.6 1253.6L1014.5 1241.8C1015.7 1241.5 1016.9 1242.2 1017.2 1243.4C1017.5 1244.6 1016.8 1245.8 1015.6 1246.1L968.7 1257.9C968.5 1257.9 968.3 1257.9 968.2 1257.9L968.1 1258Z" fill="black"/>
<path d="M946.7 1182.6C945.7 1182.6 944.8 1181.9 944.6 1180.9C944.3 1179.7 945.1 1178.5 946.3 1178.3L994 1167.3C995.2 1167 996.4 1167.8 996.6 1169C996.9 1170.2 996.1 1171.4 994.9 1171.6L947.2 1182.6C947 1182.6 946.9 1182.6 946.7 1182.6Z" fill="black"/>
<path d="M939.5 1154.6C938.5 1154.6 937.6 1153.9 937.4 1152.9C937.1 1151.7 937.8 1150.5 939 1150.2L985.9 1138.4C987.1 1138.1 988.3 1138.8 988.6 1140C988.9 1141.2 988.2 1142.4 987 1142.7L940.1 1154.5C939.9 1154.5 939.7 1154.5 939.6 1154.5L939.5 1154.6Z" fill="black"/>
<path d="M930.7 1124.7C929.7 1124.7 928.8 1124 928.6 1123C928.3 1121.8 929.1 1120.6 930.3 1120.4L978 1109.4C979.2 1109.1 980.4 1109.9 980.6 1111.1C980.8 1112.3 980.1 1113.5 978.9 1113.7L931.2 1124.7C931 1124.7 930.9 1124.7 930.7 1124.7Z" fill="black"/>
<path d="M923.5 1096.7C922.5 1096.7 921.6 1096 921.4 1095C921.1 1093.8 921.8 1092.6 923 1092.3L969.9 1080.5C971.1 1080.2 972.3 1080.9 972.6 1082.1C972.9 1083.3 972.2 1084.5 971 1084.8L924.1 1096.6C923.9 1096.6 923.7 1096.6 923.6 1096.6L923.5 1096.7Z" fill="black"/>
<path d="M905.7 1073.8C904.7 1073.8 903.8 1073.1 903.6 1072.1C903.3 1070.9 904.1 1069.7 905.2 1069.5L960.9 1056.3C962.1 1056 963.3 1056.8 963.5 1057.9C963.8 1059.1 963 1060.3 961.9 1060.5L906.2 1073.7C906 1073.7 905.9 1073.7 905.7 1073.7V1073.8Z" fill="black"/>
<path d="M885.8 960.2C884.8 960.2 883.9 959.5 883.7 958.5C883.4 957.3 884.1 956.1 885.3 955.8L932.2 944C933.4 943.7 934.6 944.4 934.9 945.6C935.2 946.8 934.5 948 933.3 948.3L886.4 960.1C886.2 960.1 886 960.1 885.9 960.1L885.8 960.2Z" fill="black"/>
<path d="M862.5 938.8C861.5 938.8 860.6 938.1 860.4 937.1C860.1 935.9 860.8 934.7 862 934.4L923.2 919.7C924.4 919.4 925.6 920.1 925.9 921.3C926.2 922.5 925.5 923.7 924.3 924L863.1 938.7C862.9 938.7 862.8 938.7 862.6 938.7L862.5 938.8Z" fill="black"/>
<path d="M906.5 1043.5C905.5 1043.5 904.6 1042.8 904.4 1041.8C904.1 1040.6 904.8 1039.4 906 1039.1L952.9 1027.3C954.1 1027 955.3 1027.7 955.6 1028.9C955.9 1030.1 955.2 1031.3 954 1031.6L907.1 1043.4C906.9 1043.4 906.7 1043.4 906.6 1043.4L906.5 1043.5Z" fill="black"/>
<path d="M897.6 1013.7C896.6 1013.7 895.7 1013 895.5 1012C895.2 1010.8 896 1009.6 897.2 1009.4L944.9 998.4C946.1 998.1 947.3 998.9 947.5 1000.1C947.7 1001.3 947 1002.5 945.8 1002.7L898.1 1013.7C897.9 1013.7 897.8 1013.7 897.6 1013.7Z" fill="black"/>
<path d="M892.7 985C891.7 985 890.8 984.3 890.6 983.3C890.3 982.1 891 980.9 892.2 980.6L939.1 968.8C940.3 968.5 941.5 969.2 941.8 970.4C942.1 971.6 941.4 972.8 940.2 973.1L893.3 984.9C893.1 984.9 892.9 984.9 892.8 984.9L892.7 985Z" fill="black"/>
<path d="M871.3 909.7C870.3 909.7 869.4 909 869.2 908C868.9 906.8 869.7 905.6 870.9 905.4L918.6 894.4C919.8 894.1 921 894.9 921.2 896.1C921.5 897.3 920.7 898.5 919.5 898.7L871.8 909.7C871.6 909.7 871.5 909.7 871.3 909.7Z" fill="black"/>
<path d="M864.1 881.6C863.1 881.6 862.2 880.9 862 879.9C861.7 878.7 862.4 877.5 863.6 877.2L910.5 865.4C911.7 865.1 912.9 865.8 913.2 867C913.5 868.2 912.8 869.4 911.6 869.7L864.7 881.5C864.5 881.5 864.3 881.5 864.2 881.5L864.1 881.6Z" fill="black"/>
<path d="M855.3 851.8C854.3 851.8 853.4 851.1 853.2 850.1C852.9 848.9 853.7 847.7 854.9 847.5L902.6 836.5C903.8 836.2 905 837 905.2 838.2C905.4 839.4 904.7 840.6 903.5 840.8L855.8 851.8C855.6 851.8 855.5 851.8 855.3 851.8Z" fill="black"/>
<path d="M848.1 823.7C847.1 823.7 846.2 823 846 822C845.7 820.8 846.4 819.6 847.6 819.3L894.5 807.5C895.7 807.2 896.9 807.9 897.2 809.1C897.5 810.3 896.8 811.5 895.6 811.8L848.7 823.6C848.5 823.6 848.3 823.6 848.2 823.6L848.1 823.7Z" fill="black"/>
<path d="M830.3 800.8C829.3 800.8 828.4 800.1 828.2 799.1C827.9 797.9 828.7 796.7 829.8 796.5L885.5 783.3C886.7 783 887.9 783.8 888.1 784.9C888.4 786.1 887.6 787.3 886.5 787.5L830.8 800.7C830.6 800.7 830.5 800.7 830.3 800.7V800.8Z" fill="black"/>
<path d="M810.4 687.3C809.4 687.3 808.5 686.6 808.3 685.6C808 684.4 808.7 683.2 809.9 682.9L856.8 671.1C858 670.8 859.2 671.5 859.5 672.7C859.8 673.9 859.1 675.1 857.9 675.4L811 687.2C810.8 687.2 810.6 687.2 810.5 687.2L810.4 687.3Z" fill="black"/>
<path d="M787.1 665.9C786.1 665.9 785.2 665.2 785 664.2C784.7 663 785.4 661.8 786.6 661.5L847.8 646.8C849 646.5 850.2 647.2 850.5 648.4C850.8 649.6 850.1 650.8 848.9 651.1L787.7 665.8C787.5 665.8 787.4 665.8 787.2 665.8L787.1 665.9Z" fill="black"/>
<path d="M831.1 770.6C830.1 770.6 829.2 769.9 829 768.9C828.7 767.7 829.4 766.5 830.6 766.2L877.5 754.4C878.7 754.1 879.9 754.8 880.2 756C880.5 757.2 879.8 758.4 878.6 758.7L831.7 770.5C831.5 770.5 831.3 770.5 831.2 770.5L831.1 770.6Z" fill="black"/>
<path d="M822.2 740.7C821.2 740.7 820.3 740 820.1 739C819.8 737.8 820.6 736.6 821.8 736.4L869.5 725.4C870.7 725.1 871.9 725.9 872.1 727.1C872.4 728.3 871.6 729.5 870.4 729.7L822.7 740.7C822.5 740.7 822.4 740.7 822.2 740.7Z" fill="black"/>
<path d="M817.3 712.1C816.3 712.1 815.4 711.4 815.2 710.4C814.9 709.2 815.6 708 816.8 707.7L863.7 695.9C864.9 695.6 866.1 696.3 866.4 697.5C866.7 698.7 866 699.9 864.8 700.2L817.9 712C817.7 712 817.5 712 817.4 712L817.3 712.1Z" fill="black"/>
<path d="M795.9 636.7C794.9 636.7 794 636 793.8 635C793.5 633.8 794.3 632.6 795.5 632.4L843.2 621.4C844.4 621.1 845.6 621.9 845.8 623.1C846 624.3 845.3 625.5 844.1 625.7L796.4 636.7C796.2 636.7 796.1 636.7 795.9 636.7Z" fill="black"/>
<path d="M788.7 608.7C787.7 608.7 786.8 608 786.6 607C786.3 605.8 787 604.6 788.2 604.3L835.1 592.5C836.3 592.2 837.5 592.9 837.8 594.1C838.1 595.3 837.4 596.5 836.2 596.8L789.3 608.6C789.1 608.6 788.9 608.6 788.8 608.6L788.7 608.7Z" fill="black"/>
<path d="M779.9 578.8C778.9 578.8 778 578.1 777.8 577.1C777.5 575.9 778.3 574.7 779.5 574.5L827.2 563.5C828.4 563.2 829.6 564 829.8 565.2C830.1 566.4 829.3 567.6 828.1 567.8L780.4 578.8C780.2 578.8 780.1 578.8 779.9 578.8Z" fill="black"/>
<path d="M772.7 550.8C771.7 550.8 770.8 550.1 770.6 549.1C770.3 547.9 771 546.7 772.2 546.4L819.1 534.6C820.3 534.3 821.5 535 821.8 536.2C822.1 537.4 821.4 538.6 820.2 538.9L773.3 550.7C773.1 550.7 772.9 550.7 772.8 550.7L772.7 550.8Z" fill="black"/>
<path d="M754.9 527.9C753.9 527.9 753 527.2 752.8 526.2C752.5 525 753.3 523.8 754.4 523.6L810.1 510.4C811.3 510.1 812.5 510.9 812.7 512C813 513.2 812.2 514.4 811.1 514.6L755.4 527.8C755.2 527.8 755.1 527.8 754.9 527.8V527.9Z" fill="black"/>
<path d="M735 414.3C734 414.3 733.1 413.6 732.9 412.6C732.6 411.4 733.3 410.2 734.5 409.9L781.4 398.1C782.6 397.8 783.8 398.5 784.1 399.7C784.4 400.9 783.7 402.1 782.5 402.4L735.6 414.2C735.4 414.2 735.2 414.2 735.1 414.2L735 414.3Z" fill="black"/>
<path d="M711.7 392.9C710.7 392.9 709.8 392.2 709.6 391.2C709.3 390 710 388.8 711.2 388.5L772.4 373.8C773.6 373.5 774.8 374.2 775.1 375.4C775.4 376.6 774.7 377.8 773.5 378.1L712.3 392.8C712.1 392.8 712 392.8 711.8 392.8L711.7 392.9Z" fill="black"/>
<path d="M755.7 497.6C754.7 497.6 753.8 496.9 753.6 495.9C753.3 494.7 754 493.5 755.2 493.2L802.1 481.4C803.3 481.1 804.5 481.8 804.8 483C805.1 484.2 804.4 485.4 803.2 485.7L756.3 497.5C756.1 497.5 755.9 497.5 755.8 497.5L755.7 497.6Z" fill="black"/>
<path d="M746.8 467.8C745.8 467.8 744.9 467.1 744.7 466.1C744.4 464.9 745.2 463.7 746.4 463.5L794.1 452.5C795.3 452.2 796.5 453 796.7 454.2C796.9 455.4 796.2 456.6 795 456.8L747.3 467.8C747.1 467.8 747 467.8 746.8 467.8Z" fill="black"/>
<path d="M741.9 439.1C740.9 439.1 740 438.4 739.8 437.4C739.5 436.2 740.2 435 741.4 434.7L788.3 422.9C789.5 422.6 790.7 423.3 791 424.5C791.3 425.7 790.6 426.9 789.4 427.2L742.5 439C742.3 439 742.1 439 742 439L741.9 439.1Z" fill="black"/>
<path d="M581.7 780.9L509.1 835.1L1018.9 1515.4C1024.3 1522.6 1036.3 1523.8 1048.1 1517.9C1062.3 1510.9 1074.8 1501.5 1085.6 1489.9C1094.6 1480.2 1096.9 1468.4 1091.5 1461.2L581.7 780.9Z" fill="white"/>
<path d="M1033.3 1523.8C1026.5 1523.8 1020.7 1521.4 1017.1 1516.7L507.3 836.4C506.9 835.9 506.8 835.3 506.9 834.8C506.9 834.2 507.3 833.7 507.8 833.3L580.4 779.1C581.4 778.4 582.7 778.6 583.5 779.5L1093.3 1459.8C1099.4 1468 1096.9 1480.9 1087.3 1491.3C1076.4 1503.1 1063.6 1512.6 1049.2 1519.8C1043.8 1522.5 1038.4 1523.8 1033.4 1523.8H1033.3ZM512.2 835.5L1020.7 1514C1025.5 1520.4 1036.4 1521.2 1047.2 1515.8C1061.1 1508.9 1073.5 1499.7 1084 1488.3C1092.2 1479.5 1094.5 1468.8 1089.7 1462.4L581.2 783.9L512.1 835.4L512.2 835.5Z" fill="black"/>
<path d="M940.1 1369.1C939.4 1369.1 938.8 1368.8 938.3 1368.2L722.8 1080.7C722.1 1079.7 722.3 1078.3 723.2 1077.6C724.2 1076.9 725.6 1077.1 726.3 1078L941.8 1365.5C942.5 1366.5 942.3 1367.9 941.4 1368.6C941 1368.9 940.5 1369 940.1 1369V1369.1Z" fill="black"/>
<path d="M675.4 1015.8C674.7 1015.8 674.1 1015.5 673.6 1014.9L580.1 890.1C579.4 889.1 579.6 887.7 580.5 887C581.5 886.3 582.9 886.5 583.6 887.4L677.1 1012.2C677.8 1013.2 677.6 1014.6 676.7 1015.3C676.3 1015.6 675.8 1015.7 675.4 1015.7V1015.8Z" fill="black"/>
<path d="M1029.4 1433.2C1028.7 1433.2 1028.1 1432.9 1027.6 1432.3L669.3 954.2C668.6 953.2 668.8 951.8 669.7 951.1C670.7 950.4 672.1 950.6 672.8 951.5L1031.1 1429.6C1031.8 1430.6 1031.6 1432 1030.7 1432.7C1030.3 1433 1029.8 1433.1 1029.4 1433.1V1433.2Z" fill="black"/>
<path d="M462.1 656.6C457.1 662.9 448.3 670.2 441.6 675.1C434.9 680.1 430.8 682.4 423.4 685.5L508.9 834.9C539 824.7 563.2 806.6 581.5 780.7L462 656.5L462.1 656.6Z" fill="white"/>
<path d="M509 837.2C508.2 837.2 507.5 836.8 507.1 836.1L421.6 686.7C421.3 686.1 421.2 685.5 421.4 684.9C421.6 684.3 422.1 683.8 422.6 683.6C429.8 680.6 433.8 678.3 440.3 673.5C444.3 670.5 454.2 662.8 460 655.9C460.1 655.6 460.3 655.3 460.5 655.1C461.4 654.3 462.8 654.3 463.6 655.1V655.2L583 779.3C583.7 780.1 583.8 781.2 583.2 782.1C564.7 808.3 539.9 826.8 509.5 837.1C509.3 837.1 509 837.2 508.8 837.2H509ZM426.6 686.7L510 832.4C538.1 822.5 561.2 805.2 578.7 781.1L462.2 660.1C456 667 446.8 674.1 442.9 677.1C436.8 681.6 432.7 684.1 426.5 686.8L426.6 686.7Z" fill="black"/>
<path d="M444.7 673.6C451.4 668.6 457.2 662.9 462.2 656.7L389.2 580.8C382.8 574.1 366.6 586.1 371.3 594.2L423.6 685.6C431 682.5 438.1 678.6 444.8 673.6H444.7Z" fill="black"/>
<path d="M951.7 353.9H949.9C948.243 353.9 946.9 355.243 946.9 356.9V387.3C946.9 388.957 948.243 390.3 949.9 390.3H951.7C953.357 390.3 954.7 388.957 954.7 387.3V356.9C954.7 355.243 953.357 353.9 951.7 353.9Z" fill="black"/>
<path d="M911.3 1061.2C909.5 1064.6 908.6 1068.4 908.6 1072.3L908 1142.2L1051.8 1135.4L1045.8 1064.7C1045.5 1060.8 1044.2 1057 1042.1 1053.8L1039.8 1050.2C1035.3 1043.1 1034.8 1034.1 1038.5 1026.4L1039 1025.4C1040.9 1021.4 1041.8 1017 1041.4 1012.6L997.3 496.6C996.7 489.7 995.2 483 992.9 476.6L992.4 475.3C967.2 477.7 942 477.8 916.8 479.7L915.3 485C914.2 489.1 913.6 493.4 913.5 497.7L909.4 1017.2C909.4 1022 910.7 1026.6 913.3 1030.6C918.1 1037.9 918.5 1047.3 914.5 1055.1L911.3 1061.3V1061.2Z" fill="white"/>
<path d="M907.9 1144.4C907.3 1144.4 906.8 1144.2 906.4 1143.8C906 1143.4 905.7 1142.8 905.7 1142.2L906.3 1072.3C906.3 1068.1 907.4 1063.9 909.3 1060.2L912.5 1054C916.2 1046.9 915.8 1038.4 911.5 1031.7C908.7 1027.4 907.2 1022.3 907.2 1017.1L911.3 497.6C911.3 493.1 912 488.7 913.2 484.4L914.7 479.1C914.9 478.2 915.7 477.6 916.7 477.5C927.7 476.7 938.9 476.2 949.7 475.7C963.7 475.1 978.1 474.4 992.3 473.1C993.3 473 994.2 473.6 994.6 474.5L995.1 475.8C997.5 482.4 999 489.3 999.6 496.4L1043.7 1012.4C1044.1 1017.2 1043.2 1022 1041.1 1026.4L1040.6 1027.4C1037.2 1034.3 1037.7 1042.6 1041.8 1049L1044.1 1052.6C1046.4 1056.2 1047.8 1060.3 1048.1 1064.5L1054.1 1135.2C1054.1 1135.8 1054 1136.4 1053.6 1136.8C1053.2 1137.2 1052.6 1137.5 1052 1137.5L908.2 1144.3C908.2 1144.3 908.2 1144.3 908.1 1144.3L907.9 1144.4ZM918.4 481.8L917.3 485.6C916.2 489.5 915.6 493.6 915.6 497.7L911.5 1017.2C911.5 1021.6 912.7 1025.8 915 1029.4C920.2 1037.3 920.7 1047.6 916.3 1056.1L913.1 1062.3C911.5 1065.4 910.6 1068.9 910.6 1072.4L910 1140L1049.2 1133.4L1043.4 1065C1043.1 1061.5 1041.9 1058 1040 1055.1L1037.7 1051.5C1032.8 1043.8 1032.2 1033.9 1036.3 1025.6L1036.8 1024.6C1038.6 1021 1039.3 1016.9 1039 1012.9L994.9 496.9C994.3 490.3 992.9 483.9 990.8 477.7C977.1 478.9 963.2 479.6 949.7 480.1C939.4 480.6 928.8 481 918.4 481.8Z" fill="black"/>
<path d="M910.3 1261.1L907.5 1139.7L1052.2 1134.6L1055 1256C1055.5 1278.2 1038.4 1296.9 1016.7 1297.6L950.5 1299.9C928.8 1300.7 910.8 1283.2 910.3 1261V1261.1Z" fill="white"/>
<path d="M949.1 1302.2C938.7 1302.2 928.9 1298.3 921.3 1291.1C913 1283.3 908.4 1272.7 908.1 1261.1L905.3 1139.7C905.3 1138.5 906.2 1137.5 907.4 1137.5L1052.1 1132.4C1052.7 1132.4 1053.3 1132.6 1053.7 1133C1054.1 1133.4 1054.4 1134 1054.4 1134.5L1057.2 1255.9C1057.7 1279.3 1039.6 1299 1016.8 1299.8L950.6 1302.1C950.1 1302.1 949.6 1302.1 949.2 1302.1L949.1 1302.2ZM912.5 1261C912.7 1271.4 916.9 1280.9 924.3 1287.9C931.4 1294.6 940.7 1298.1 950.4 1297.8L1016.6 1295.5C1037.1 1294.8 1053.3 1277.1 1052.8 1256.1L1050 1136.9L909.7 1141.8L912.5 1261Z" fill="black"/>
<path d="M943 1043C941.8 1043 940.8 1042.1 940.8 1040.9C940.8 1039.7 941.7 1038.7 942.9 1038.6L1011.4 1036.9C1012.5 1036.9 1013.6 1037.8 1013.7 1039C1013.7 1040.2 1012.8 1041.2 1011.6 1041.3L943.1 1043H943Z" fill="white"/>
<path d="M946.5 1264.9C945.3 1264.9 944.3 1263.9 944.3 1262.7L942.8 1169.8C942.8 1168.6 943.7 1167.6 945 1167.6C946.1 1167.6 947.2 1168.5 947.2 1169.8L948.7 1262.7C948.7 1263.9 947.8 1264.9 946.5 1264.9Z" fill="white"/>
<path d="M946.5 372.1L916.7 479.7C941.9 477.8 967.1 477.7 992.3 475.3L955.2 372.1H946.4H946.5Z" fill="black"/>
<path d="M1312.3 645.1H1127.9C1084.8 645.1 1049.9 680 1049.9 723.1V774.3H1095.1V743C1095.1 709.6 1119.9 682.5 1150.5 682.5H1281.4C1312 682.5 1336.8 709.6 1336.8 743V774.3H1390.4V723.1C1390.4 680 1355.5 645.1 1312.4 645.1H1312.3Z" fill="#E3E3E3"/>
<path d="M1633 1983H782.9C750 1983 723.5 1953.6 724.4 1918.1L750.9 856.7C752.3 802.2 797 758.8 851.5 759.1L1573.9 762.8C1630.9 763.1 1677.3 808.5 1679 865.4L1708.6 1898.7C1709.9 1944.9 1675.7 1983.1 1632.9 1983.1L1633 1983Z" fill="#1F1F1F"/>
<path d="M1633 1985.2H782.9C767.3 1985.2 752.4 1978.8 741.1 1967.2C728.7 1954.4 721.8 1936.5 722.2 1918L748.7 856.6C750.1 801.5 795.9 756.9 851 756.9C906.1 756.9 851.3 756.9 851.5 756.9L1573.9 760.6C1632.4 760.9 1679.5 806.9 1681.1 865.3L1710.7 1898.6C1711.4 1922.4 1702.6 1945.6 1686.6 1962C1672.1 1977 1653 1985.2 1632.9 1985.2H1633ZM851 761.2C798.3 761.2 754.4 803.9 753.1 856.7L726.6 1918.1C726.2 1935.4 732.6 1952.2 744.2 1964.1C754.7 1974.9 768.4 1980.8 782.9 1980.8H1633C1651.9 1980.8 1669.9 1973 1683.6 1958.9C1698.8 1943.3 1707.1 1921.3 1706.5 1898.7L1676.9 865.4C1675.3 809.3 1630.1 765.2 1574 764.9L851.6 761.2C851.4 761.2 851.3 761.2 851.1 761.2H851Z" fill="#DBDBDD"/>
<path d="M855.1 753.8H1585.7C1595.3 753.8 1603 761.6 1603 771.1V1128.5C1603 1190.5 1552.7 1240.8 1490.7 1240.8H952.3C886.2 1240.8 832.5 1187.1 832.5 1121V776.5C832.5 764 842.7 753.8 855.2 753.8H855.1Z" fill="#6DD48B"/>
<path d="M947.7 1470.1H1486.1C1520.1 1470.1 1547.7 1497.7 1547.7 1531.7V1980.7H903.7V1514.1C903.7 1489.8 923.4 1470.1 947.7 1470.1Z" fill="#E3E3E3"/>
<path d="M975.9 1502.9H1453.2C1487.2 1502.9 1514.8 1530.5 1514.8 1564.5V1981.8H931.9V1546.9C931.9 1522.6 951.6 1502.9 975.9 1502.9Z" fill="#303030"/>
<path d="M1514.8 1984H931.9C930.7 1984 929.7 1983 929.7 1981.8V1546.9C929.7 1521.4 950.4 1500.7 975.9 1500.7H1453.2C1488.4 1500.7 1517 1529.3 1517 1564.5V1981.8C1517 1983 1516 1984 1514.8 1984ZM934.1 1979.6H1512.6V1564.5C1512.6 1531.7 1486 1505.1 1453.2 1505.1H975.9C952.9 1505.1 934.1 1523.8 934.1 1546.9V1979.6Z" fill="#E3E3E3"/>
<path d="M1794 1890.7C1792.8 1915.4 1770.3 1934.6 1743.7 1933.7L1732.8 1933.3C1666.9 1933.3 1613.5 1883.9 1613.5 1822.9V1512.9C1613.5 1487.2 1636 1466.4 1663.7 1466.4H1737.6C1758.9 1466.4 1777 1481 1779.7 1500.6C1796.8 1626.3 1800.8 1756.6 1794.1 1890.6L1794 1890.7Z" fill="white"/>
<path d="M1745.4 1935.9C1744.8 1935.9 1744.2 1935.9 1743.6 1935.9L1732.7 1935.5C1665.8 1935.5 1611.2 1885 1611.2 1822.9V1512.9C1611.2 1486.1 1634.7 1464.2 1663.6 1464.2H1737.5C1759.9 1464.2 1778.9 1479.7 1781.7 1500.3C1798.2 1621.6 1803 1752.9 1796.1 1890.7C1794.8 1915.9 1772.2 1935.8 1745.3 1935.8L1745.4 1935.9ZM1663.7 1468.6C1637.2 1468.6 1615.7 1488.5 1615.7 1512.9V1822.9C1615.7 1882.6 1668.2 1931.1 1732.8 1931.1L1743.8 1931.5C1769.1 1932.3 1790.7 1914 1791.9 1890.6C1798.8 1753.1 1794 1622 1777.5 1501C1775 1482.6 1757.8 1468.7 1737.6 1468.7H1663.7V1468.6Z" fill="black"/>
<path d="M1790.8 1592H1618.8C1605 1592 1594.5 1582.2 1596.7 1571.5L1616.3 1473.3C1618.3 1463.4 1629.2 1456.1 1641.9 1456.2L1764.2 1457.4C1781.2 1457.6 1795.6 1467.4 1798.3 1480.7L1816.1 1568.6C1818.6 1580.9 1806.6 1592 1790.9 1592H1790.8Z" fill="black"/>
<path d="M651.2 1905.6C652.4 1930.3 674.9 1949.5 701.5 1948.6L712.4 1948.2C778.3 1948.2 831.7 1898.8 831.7 1837.8V1527.8C831.7 1502.1 809.2 1481.3 781.5 1481.3H707.6C686.3 1481.3 668.2 1495.9 665.5 1515.5C648.4 1641.2 644.4 1771.5 651.1 1905.5L651.2 1905.6Z" fill="#202125"/>
<path d="M699.8 1950.8C672.9 1950.8 650.3 1930.9 649 1905.7C642.1 1767.9 646.9 1636.5 663.4 1515.3C666.2 1494.7 685.2 1479.2 707.6 1479.2H781.5C810.4 1479.2 833.9 1501 833.9 1527.9V1837.9C833.9 1900 779.4 1950.5 712.4 1950.5L701.6 1950.9C701 1950.9 700.4 1950.9 699.8 1950.9V1950.8ZM707.6 1483.5C687.4 1483.5 670.2 1497.4 667.7 1515.8C651.2 1636.8 646.4 1767.9 653.3 1905.4C654.5 1928.8 676.1 1947.1 701.4 1946.3L712.3 1945.9C777 1945.9 829.5 1897.4 829.5 1837.7V1527.7C829.5 1503.3 807.9 1483.4 781.5 1483.4H707.6V1483.5Z" fill="#E3E3E2"/>
<path d="M654.5 1606.9H826.5C840.3 1606.9 850.8 1597.1 848.6 1586.4L829 1488.2C827 1478.3 816.1 1471 803.4 1471.1L681.1 1472.3C664.1 1472.5 649.7 1482.3 647 1495.6L629.2 1583.5C626.7 1595.8 638.7 1606.9 654.4 1606.9H654.5Z" fill="#E3E3E2"/>
<path d="M1783.3 545.9H1283.4C1265 545.9 1250.1 560.8 1250.1 579.2C1250.1 597.6 1265 612.5 1283.4 612.5H1783.3C1801.7 612.5 1816.6 597.6 1816.6 579.2C1816.6 560.8 1801.7 545.9 1783.3 545.9Z" fill="#202125"/>
<path d="M1783.3 614.7H1283.4C1263.8 614.7 1247.9 598.8 1247.9 579.2C1247.9 559.6 1263.8 543.7 1283.4 543.7H1783.3C1802.9 543.7 1818.8 559.6 1818.8 579.2C1818.8 598.8 1802.9 614.7 1783.3 614.7ZM1283.4 548C1266.2 548 1252.3 562 1252.3 579.1C1252.3 596.2 1266.3 610.2 1283.4 610.2H1783.3C1800.5 610.2 1814.4 596.2 1814.4 579.1C1814.4 562 1800.4 548 1783.3 548H1283.4Z" fill="#A8C8FB"/>
<path d="M1452.5 439.7H1176.4C1159.3 439.7 1145.5 453.6 1145.5 470.6C1145.5 487.6 1159.4 501.5 1176.4 501.5H1452.5C1469.6 501.5 1483.4 487.6 1483.4 470.6C1483.4 453.6 1469.5 439.7 1452.5 439.7Z" fill="#202125"/>
<path d="M1452.5 503.8H1176.4C1158.1 503.8 1143.3 488.9 1143.3 470.7C1143.3 452.5 1158.2 437.5 1176.4 437.5H1452.5C1470.8 437.5 1485.6 452.4 1485.6 470.7C1485.6 489 1470.7 503.8 1452.5 503.8ZM1176.4 441.9C1160.5 441.9 1147.7 454.8 1147.7 470.7C1147.7 486.6 1160.6 499.4 1176.4 499.4H1452.5C1468.4 499.4 1481.2 486.5 1481.2 470.7C1481.2 454.9 1468.3 441.9 1452.5 441.9H1176.4Z" fill="#FF5353"/>
<path d="M1575.86 479.934C1581.25 463.74 1572.49 446.247 1556.29 440.86C1540.1 435.473 1522.61 444.233 1517.22 460.426C1511.83 476.62 1520.59 494.114 1536.79 499.5C1552.98 504.887 1570.47 496.127 1575.86 479.934Z" fill="#202125"/>
<path d="M1547.3 503.8C1529 503.8 1514.2 488.9 1514.2 470.7C1514.2 452.5 1529.1 437.5 1547.3 437.5C1565.5 437.5 1580.4 452.4 1580.4 470.7C1580.4 489 1565.5 503.8 1547.3 503.8ZM1547.3 441.9C1531.4 441.9 1518.6 454.8 1518.6 470.7C1518.6 486.6 1531.5 499.4 1547.3 499.4C1563.1 499.4 1576 486.5 1576 470.7C1576 454.9 1563.1 441.9 1547.3 441.9Z" fill="#6DD48B"/>
<path d="M1940.4 735.3L1936.2 719.8L1918.6 720.6C1917 717.2 1915.1 713.9 1913 710.9L1922.3 696L1910.9 684.7L1896.1 694.2C1893 692.1 1889.8 690.2 1886.4 688.7L1887 671.1L1871.4 667L1863.3 682.6C1859.6 682.3 1855.9 682.3 1852.1 682.6L1843.8 667.1L1828.3 671.4L1829.1 689C1825.7 690.6 1822.4 692.5 1819.4 694.6L1804.5 685.3L1793.2 696.7L1802.7 711.5C1800.6 714.6 1798.7 717.8 1797.2 721.2L1779.6 720.6L1775.5 736.2L1791.1 744.3C1790.8 748 1790.8 751.7 1791.1 755.5L1775.6 763.8L1779.8 779.3L1797.4 778.5C1799 781.9 1800.9 785.2 1803 788.2L1793.7 803.1L1805.1 814.4L1819.9 804.9C1823 807 1826.2 808.9 1829.6 810.4L1829 828L1844.6 832.1L1852.7 816.5C1856.4 816.8 1860.1 816.8 1863.9 816.5L1872.2 832L1887.7 827.7L1886.9 810.1C1890.3 808.5 1893.6 806.6 1896.6 804.5L1911.5 813.8L1922.8 802.4L1913.3 787.6C1915.4 784.5 1917.3 781.3 1918.8 777.9L1936.4 778.5L1940.5 762.9L1924.9 754.8C1925.2 751.1 1925.2 747.4 1924.9 743.6L1940.4 735.3ZM1868.9 789.5C1846.8 795.5 1824 782.5 1818 760.5C1812 738.4 1824.9 715.6 1847 709.6C1869.1 703.6 1891.9 716.6 1897.9 738.6C1903.9 760.7 1891 783.5 1868.9 789.5Z" fill="#A8C8FB"/>
<path d="M1017.3 2124.6C975.8 2124.6 934 2121 892.1 2113.8C890.9 2113.6 890.1 2112.5 890.3 2111.3C890.5 2110.1 891.6 2109.3 892.8 2109.5C978.2 2124.2 1063.4 2123.8 1146 2108.4C1147.2 2108.2 1148.3 2109 1148.6 2110.2C1148.8 2111.4 1148 2112.5 1146.8 2112.8C1104.2 2120.7 1060.9 2124.7 1017.2 2124.7L1017.3 2124.6Z" fill="#969696"/>
<path d="M853.7 2106.1C853.5 2106.1 853.4 2106.1 853.2 2106.1C841.9 2103.6 830.5 2100.7 819.2 2097.6C818 2097.3 817.3 2096.1 817.7 2094.9C818 2093.7 819.2 2093 820.4 2093.4C831.6 2096.5 843 2099.3 854.2 2101.8C855.4 2102.1 856.1 2103.2 855.9 2104.4C855.7 2105.4 854.8 2106.1 853.8 2106.1H853.7Z" fill="#969696"/>
<path d="M1012.3 2089.9C930.6 2089.9 848.8 2074.6 768.5 2044.3C767.4 2043.9 766.8 2042.6 767.2 2041.5C767.6 2040.4 768.9 2039.8 770 2040.2C870.3 2078.1 972.9 2092.3 1074.8 2082.5C1076 2082.4 1077.1 2083.3 1077.2 2084.5C1077.3 2085.7 1076.4 2086.8 1075.2 2086.9C1054.2 2088.9 1033.3 2089.9 1012.3 2089.9Z" fill="#969696"/>
<path d="M2044.6 752.9C2044.2 752.9 2043.8 752.8 2043.4 752.6C2042.4 751.9 2042.1 750.6 2042.7 749.6C2083.9 685.1 2101.2 638.6 2059.9 606C2058.9 605.2 2058.8 603.9 2059.5 602.9C2060.3 601.9 2061.6 601.8 2062.6 602.5C2106.3 637.1 2087.7 687.3 2046.3 751.9C2045.9 752.6 2045.2 752.9 2044.4 752.9H2044.6Z" fill="#969696"/>
<path d="M2016.6 794.8C2016.2 794.8 2015.7 794.7 2015.4 794.4C2014.4 793.7 2014.1 792.3 2014.8 791.3C2020.1 783.6 2026.2 774.5 2032.1 765.7C2032.8 764.7 2034.1 764.4 2035.1 765.1C2036.1 765.8 2036.4 767.1 2035.7 768.2C2029.8 777.1 2023.6 786.1 2018.4 793.8C2018 794.4 2017.3 794.8 2016.6 794.8Z" fill="#969696"/>
<path d="M2062 537.5C2061.5 537.5 2061 537.3 2060.6 537C2047 525.8 2030.9 514.6 2012.8 503.7C2011.8 503.1 2011.4 501.7 2012 500.7C2012.6 499.7 2014 499.3 2015 500C2033.2 511 2049.5 522.3 2063.3 533.7C2064.2 534.5 2064.4 535.9 2063.6 536.8C2063.2 537.3 2062.5 537.6 2061.9 537.6L2062 537.5Z" fill="#969696"/>
<path d="M2064.6 784.6C2064.1 784.6 2063.6 784.4 2063.2 784.1C2062.3 783.3 2062.2 781.9 2063 781C2143.1 689.3 2146 615 2072.4 547.3C2071.5 546.5 2071.4 545.1 2072.3 544.2C2073.1 543.3 2074.5 543.2 2075.4 544.1C2114.6 580.1 2132.2 617.6 2129.4 658.9C2126.8 697.5 2106.2 738.4 2066.3 784C2065.9 784.5 2065.3 784.8 2064.6 784.8V784.6Z" fill="#969696"/>
<path d="M1738.5 425.8C1738 425.8 1737.4 425.6 1737 425.2C1736.1 424.4 1736.1 423 1737 422.1L1745.1 413.6C1745.9 412.7 1747.3 412.7 1748.2 413.6C1749.1 414.4 1749.1 415.8 1748.2 416.7L1740.1 425.2C1739.7 425.7 1739.1 425.9 1738.5 425.9V425.8Z" fill="#969696"/>
<path d="M1710.2 455.4C1709.7 455.4 1709.1 455.2 1708.7 454.8C1707.8 454 1707.8 452.6 1708.7 451.7L1716.8 443.2C1717.6 442.3 1719 442.3 1719.9 443.2C1720.8 444 1720.8 445.4 1719.9 446.3L1711.8 454.8C1711.4 455.3 1710.8 455.5 1710.2 455.5V455.4Z" fill="#969696"/>
<path d="M1718.1 426.3C1717.5 426.3 1717 426.1 1716.6 425.7L1708.4 417.6C1707.5 416.7 1707.5 415.4 1708.4 414.5C1709.3 413.6 1710.6 413.6 1711.5 414.5L1719.7 422.6C1720.6 423.5 1720.6 424.8 1719.7 425.7C1719.3 426.1 1718.7 426.4 1718.1 426.4V426.3Z" fill="#969696"/>
<path d="M1746.9 454.6C1746.3 454.6 1745.8 454.4 1745.4 454L1737.2 445.9C1736.3 445 1736.3 443.7 1737.2 442.8C1738.1 441.9 1739.4 441.9 1740.3 442.8L1748.5 450.9C1749.4 451.8 1749.4 453.1 1748.5 454C1748.1 454.4 1747.5 454.7 1746.9 454.7V454.6Z" fill="#969696"/>
<path d="M1285.7 2047.9H2050.4C2071.4 2047.9 2088.5 2030.9 2088.5 2009.9V946.3C2087.9 917.8 2074.2 901.5 2050.4 901.5H1285.7C1266.8 901.5 1250.7 915.2 1247.7 934V2009.9C1247.7 2030.9 1264.7 2047.9 1285.7 2047.9Z" fill="#E3E3E3"/>
<path d="M1254.1 2048.9H2018.9C2039.9 2048.9 2057 2031.8 2057 2010.8V945.1C2056.4 916.6 2042.7 900.3 2018.9 900.3H1254.1C1235.2 900.3 1219.1 914.1 1216.1 932.8V2010.8C1216.1 2031.8 1233.1 2048.9 1254.2 2048.9H1254.1Z" fill="#1F1F1F"/>
<path d="M2018.9 2051.1H1254.1C1243.3 2051.1 1233.2 2046.9 1225.6 2039.3C1218 2031.7 1213.8 2021.6 1213.8 2010.8V932.9C1213.8 932.8 1213.8 932.7 1213.8 932.5C1217 912.6 1233.9 898.1 1254 898.1H2018.8C2043.8 898.1 2058.5 915.2 2059 945V2010.8C2059 2021.6 2054.9 2031.7 2047.2 2039.3C2039.6 2046.9 2029.5 2051.1 2018.7 2051.1H2018.9ZM1218.3 933.1V2010.8C1218.3 2020.4 1222 2029.4 1228.8 2036.2C1235.6 2043 1244.6 2046.7 1254.2 2046.7H2019C2028.6 2046.7 2037.6 2043 2044.4 2036.2C2051.2 2029.4 2054.9 2020.4 2054.9 2010.8V945.1C2054.3 917.7 2041.6 902.5 2019 902.5H1254.2C1236.3 902.5 1221.3 915.3 1218.4 933L1218.3 933.1Z" fill="#E3E3E3"/>
<path d="M1818.9 866.9H1475.7C1463.05 866.9 1452.8 877.153 1452.8 889.8V959.7C1452.8 972.347 1463.05 982.6 1475.7 982.6H1818.9C1831.55 982.6 1841.8 972.347 1841.8 959.7V889.8C1841.8 877.153 1831.55 866.9 1818.9 866.9Z" fill="#1F1F1F"/>
<path d="M1818.9 984.8H1475.7C1461.9 984.8 1450.6 973.5 1450.6 959.7V889.8C1450.6 876 1461.9 864.7 1475.7 864.7H1818.9C1832.7 864.7 1844 876 1844 889.8V959.7C1844 973.5 1832.7 984.8 1818.9 984.8ZM1475.7 869.1C1464.3 869.1 1455 878.4 1455 889.8V959.7C1455 971.1 1464.3 980.4 1475.7 980.4H1818.9C1830.3 980.4 1839.6 971.1 1839.6 959.7V889.8C1839.6 878.4 1830.3 869.1 1818.9 869.1H1475.7Z" fill="#E3E3E3"/>
<path d="M1647.1 773.1C1610.3 773.1 1580.6 802.9 1580.6 839.7V939.5C1580.6 948.5 1587.9 955.7 1596.8 955.7H1697.2C1706.2 955.7 1713.4 948.4 1713.4 939.5V839.7C1713.4 802.9 1683.7 773.1 1646.9 773.1H1647.1ZM1650.8 864.3C1633.1 866.5 1618.2 851.6 1620.4 833.9C1621.9 821.8 1631.7 812.1 1643.7 810.6C1661.4 808.4 1676.3 823.3 1674 841C1672.5 853.1 1662.7 862.8 1650.7 864.3H1650.8Z" fill="#1F1F1F"/>
<path d="M1697.3 958H1596.9C1586.7 958 1578.5 949.7 1578.5 939.6V839.8C1578.5 801.9 1609.3 771 1647.2 771C1685.1 771 1715.9 801.9 1715.9 839.8V939.6C1715.9 949.8 1707.6 958 1697.5 958H1697.3ZM1647.1 775.3C1611.7 775.3 1582.8 804.2 1582.8 839.7V939.5C1582.8 947.2 1589.1 953.5 1596.8 953.5H1697.2C1704.9 953.5 1711.2 947.2 1711.2 939.5V839.7C1711.2 804.2 1682.4 775.3 1646.9 775.3H1647.1ZM1647.3 866.7C1639.5 866.7 1632.2 863.7 1626.6 858.1C1620.2 851.7 1617.1 842.7 1618.3 833.6C1619.9 820.6 1630.5 810 1643.5 808.4C1652.6 807.3 1661.5 810.3 1668 816.7C1674.4 823.1 1677.5 832.1 1676.3 841.2C1674.7 854.2 1664.1 864.8 1651.1 866.4C1649.8 866.6 1648.6 866.6 1647.3 866.6V866.7ZM1647.3 812.6C1646.2 812.6 1645.2 812.6 1644.1 812.8C1633.1 814.2 1624.1 823.2 1622.7 834.2C1621.7 842 1624.3 849.5 1629.8 855C1635.3 860.5 1642.9 863.1 1650.6 862.1C1661.6 860.7 1670.6 851.7 1672 840.7C1673 832.9 1670.4 825.4 1664.9 819.9C1660.2 815.2 1653.9 812.6 1647.3 812.6Z" fill="#E3E3E3"/>
<path d="M1938.7 1107.3H1885.5C1873.2 1107.3 1863.2 1097.3 1863.2 1085V1031.8C1863.2 1019.5 1873.2 1009.5 1885.5 1009.5H1938.7C1951 1009.5 1961 1019.5 1961 1031.8V1085C1961 1097.3 1951 1107.3 1938.7 1107.3ZM1885.5 1013.9C1875.6 1013.9 1867.6 1021.9 1867.6 1031.8V1085C1867.6 1094.9 1875.6 1102.9 1885.5 1102.9H1938.7C1948.6 1102.9 1956.6 1094.9 1956.6 1085V1031.8C1956.6 1021.9 1948.6 1013.9 1938.7 1013.9H1885.5Z" fill="#E3E3E3"/>
<path d="M1905.1 1086.3C1904.8 1086.3 1904.4 1086.3 1904.1 1086.3C1902.1 1085.9 1900.4 1084.5 1899.8 1082.5L1888.6 1053.4C1888.2 1052.3 1888.7 1051 1889.9 1050.6C1891 1050.2 1892.3 1050.7 1892.7 1051.9L1903.9 1081.1C1904.1 1081.8 1904.7 1082 1904.9 1082C1905.1 1082 1905.6 1082 1906 1081.7L1936.9 1032.4C1937.5 1031.4 1938.9 1031.1 1939.9 1031.7C1940.9 1032.3 1941.2 1033.7 1940.6 1034.7L1909.6 1084.1C1909.6 1084.1 1909.5 1084.3 1909.4 1084.3C1908.3 1085.6 1906.7 1086.3 1905.1 1086.3Z" fill="#E3E3E3"/>
<path d="M1938.7 1248H1885.5C1873.2 1248 1863.2 1238 1863.2 1225.7V1172.5C1863.2 1160.2 1873.2 1150.2 1885.5 1150.2H1938.7C1951 1150.2 1961 1160.2 1961 1172.5V1225.7C1961 1238 1951 1248 1938.7 1248ZM1885.5 1154.6C1875.6 1154.6 1867.6 1162.6 1867.6 1172.5V1225.7C1867.6 1235.6 1875.6 1243.6 1885.5 1243.6H1938.7C1948.6 1243.6 1956.6 1235.6 1956.6 1225.7V1172.5C1956.6 1162.6 1948.6 1154.6 1938.7 1154.6H1885.5Z" fill="#E3E3E3"/>
<path d="M1905.1 1227C1904.8 1227 1904.4 1227 1904.1 1227C1902.1 1226.6 1900.4 1225.2 1899.8 1223.2L1888.6 1194.1C1888.2 1193 1888.7 1191.7 1889.9 1191.3C1891 1190.9 1892.3 1191.4 1892.7 1192.6L1903.9 1221.8C1904.1 1222.5 1904.7 1222.7 1904.9 1222.7C1905.1 1222.7 1905.6 1222.7 1906 1222.4L1936.9 1173.1C1937.5 1172.1 1938.9 1171.8 1939.9 1172.4C1940.9 1173 1941.2 1174.4 1940.6 1175.4L1909.6 1224.8C1909.6 1224.8 1909.5 1225 1909.4 1225C1908.3 1226.3 1906.7 1227 1905.1 1227Z" fill="#E3E3E3"/>
<path d="M1865.4 1349.3C1864.2 1349.3 1863.2 1348.3 1863.2 1347.1V1307.6C1863.2 1298.4 1870.7 1290.8 1880 1290.8H1944.3C1953.5 1290.8 1961.1 1298.3 1961.1 1307.6V1346.6C1961.1 1347.8 1960.1 1348.8 1958.9 1348.8C1957.7 1348.8 1956.7 1347.8 1956.7 1346.6V1307.6C1956.7 1300.8 1951.2 1295.2 1944.3 1295.2H1880C1873.2 1295.2 1867.6 1300.7 1867.6 1307.6V1347.1C1867.6 1348.3 1866.6 1349.3 1865.4 1349.3Z" fill="#E3E3E3"/>
<path d="M1680.3 1077.4H1315C1306.3 1077.4 1299.2 1070.3 1299.2 1061.6C1299.2 1052.9 1306.3 1045.8 1315 1045.8H1680.3C1689 1045.8 1696.1 1052.9 1696.1 1061.6C1696.1 1070.3 1689 1077.4 1680.3 1077.4ZM1315 1050.2C1308.7 1050.2 1303.6 1055.3 1303.6 1061.6C1303.6 1067.9 1308.7 1073 1315 1073H1680.3C1686.6 1073 1691.7 1067.9 1691.7 1061.6C1691.7 1055.3 1686.6 1050.2 1680.3 1050.2H1315Z" fill="#E3E3E3"/>
<path d="M1452.5 1218.1H1315C1306.3 1218.1 1299.2 1211 1299.2 1202.3C1299.2 1193.6 1306.3 1186.5 1315 1186.5H1452.5C1461.2 1186.5 1468.3 1193.6 1468.3 1202.3C1468.3 1211 1461.2 1218.1 1452.5 1218.1ZM1315 1190.9C1308.7 1190.9 1303.6 1196 1303.6 1202.3C1303.6 1208.6 1308.7 1213.7 1315 1213.7H1452.5C1458.8 1213.7 1463.9 1208.6 1463.9 1202.3C1463.9 1196 1458.8 1190.9 1452.5 1190.9H1315Z" fill="#E3E3E3"/>
<path d="M1756 1218.1H1528.3C1519.6 1218.1 1512.5 1211 1512.5 1202.3C1512.5 1193.6 1519.6 1186.5 1528.3 1186.5H1756C1764.7 1186.5 1771.8 1193.6 1771.8 1202.3C1771.8 1211 1764.7 1218.1 1756 1218.1ZM1528.3 1190.9C1522 1190.9 1516.9 1196 1516.9 1202.3C1516.9 1208.6 1522 1213.7 1528.3 1213.7H1756C1762.3 1213.7 1767.4 1208.6 1767.4 1202.3C1767.4 1196 1762.3 1190.9 1756 1190.9H1528.3Z" fill="#E3E3E3"/>
<path d="M1560.7 1358.7H1315C1306.3 1358.7 1299.2 1351.6 1299.2 1342.9C1299.2 1334.2 1306.3 1327.1 1315 1327.1H1560.7C1569.4 1327.1 1576.5 1334.2 1576.5 1342.9C1576.5 1351.6 1569.4 1358.7 1560.7 1358.7ZM1315 1331.5C1308.7 1331.5 1303.6 1336.6 1303.6 1342.9C1303.6 1349.2 1308.7 1354.3 1315 1354.3H1560.7C1567 1354.3 1572.1 1349.2 1572.1 1342.9C1572.1 1336.6 1567 1331.5 1560.7 1331.5H1315Z" fill="#E3E3E3"/>
<path d="M1615.6 1499.5H1315C1306.3 1499.5 1299.2 1492.4 1299.2 1483.7C1299.2 1475 1306.3 1467.9 1315 1467.9H1615.6C1624.3 1467.9 1631.4 1475 1631.4 1483.7C1631.4 1492.4 1624.3 1499.5 1615.6 1499.5ZM1315 1472.3C1308.7 1472.3 1303.6 1477.4 1303.6 1483.7C1303.6 1490 1308.7 1495.1 1315 1495.1H1615.6C1621.9 1495.1 1627 1490 1627 1483.7C1627 1477.4 1621.9 1472.3 1615.6 1472.3H1315Z" fill="#E3E3E3"/>
<path d="M1584.6 1640.6H1489.5C1480.8 1640.6 1473.7 1633.5 1473.7 1624.8C1473.7 1616.1 1480.8 1609 1489.5 1609H1584.6C1593.3 1609 1600.4 1616.1 1600.4 1624.8C1600.4 1633.5 1593.3 1640.6 1584.6 1640.6ZM1489.5 1613.4C1483.2 1613.4 1478.1 1618.5 1478.1 1624.8C1478.1 1631.1 1483.2 1636.2 1489.5 1636.2H1584.6C1590.9 1636.2 1596 1631.1 1596 1624.8C1596 1618.5 1590.9 1613.4 1584.6 1613.4H1489.5Z" fill="#E3E3E3"/>
<path d="M1852.3 2079.1L1854.6 2116C1854.7 2117 1854 2118 1853.1 2118L1835.1 2119.1C1834.3 2119.1 1833.7 2118.5 1833.5 2117.6L1827.6 2083L1852.3 2079V2079.1Z" fill="#9B3F2C"/>
<path d="M1835.1 2121.4C1833.2 2121.4 1831.7 2120 1831.5 2118L1825.6 2083.5C1825.5 2082.9 1825.6 2082.3 1826 2081.8C1826.3 2081.3 1826.9 2081 1827.4 2080.9L1852.1 2076.9C1852.7 2076.8 1853.3 2076.9 1853.8 2077.3C1854.3 2077.7 1854.6 2078.3 1854.6 2078.9L1856.9 2115.8C1857 2116.8 1856.7 2118 1856 2118.8C1855.3 2119.6 1854.4 2120.1 1853.4 2120.1L1835.4 2121.2H1835.2L1835.1 2121.4ZM1830.2 2085L1835.7 2117L1852.5 2116L1850.3 2081.8L1830.2 2085.1V2085Z" fill="black"/>
<path d="M1857.5 2106.6C1858.7 2110.9 1861.2 2123 1862.3 2130.2C1863 2134.8 1860.1 2139.1 1855.7 2140.3C1843.2 2143.7 1813.4 2143.5 1788.6 2144.6C1786.9 2144.6 1783.8 2143.8 1782.4 2139.7C1777.7 2125.7 1803.8 2121.4 1829.5 2107.2C1830 2106.9 1830.6 2106.9 1831.1 2107.2C1831.4 2107.4 1831.8 2107.7 1832.2 2108C1836.7 2110.9 1844.1 2110.9 1848.7 2108.1L1853.8 2105C1855.2 2104.2 1857 2104.9 1857.5 2106.5V2106.6Z" fill="#969696"/>
<path d="M1788.3 2146.9C1785.5 2146.9 1781.8 2145.3 1780.2 2140.5C1776.3 2128.9 1789.3 2123.2 1805.9 2116C1812.8 2113 1820.7 2109.6 1828.4 2105.4C1829.6 2104.7 1831.2 2104.8 1832.3 2105.6C1832.6 2105.8 1832.9 2106 1833.3 2106.3C1837.1 2108.7 1843.6 2108.7 1847.5 2106.3L1852.6 2103.2C1853.9 2102.4 1855.4 2102.3 1856.7 2102.9C1858.1 2103.4 1859.1 2104.6 1859.5 2106C1860.8 2110.5 1863.3 2122.6 1864.3 2129.9C1865.1 2135.5 1861.6 2140.9 1856.1 2142.4C1846.6 2145 1827.9 2145.5 1808.2 2146.1C1801.6 2146.3 1794.9 2146.5 1788.6 2146.8C1788.5 2146.8 1788.4 2146.8 1788.3 2146.8V2146.9ZM1830.1 2109.5C1822.3 2113.8 1814.5 2117.1 1807.6 2120.1C1791.1 2127.3 1781.8 2131.7 1784.3 2139.1C1785.4 2142.4 1787.9 2142.5 1788.3 2142.5C1794.7 2142.2 1801.4 2142 1808 2141.8C1826.6 2141.2 1845.9 2140.7 1854.9 2138.2C1858.3 2137.3 1860.4 2134 1859.9 2130.6C1858.9 2123.7 1856.4 2111.6 1855.2 2107.2C1855.2 2107.2 1855.2 2107 1855 2107C1854.9 2107 1854.8 2107 1854.8 2107L1849.7 2110.1C1844.4 2113.3 1836 2113.2 1830.9 2110C1830.6 2109.8 1830.3 2109.6 1830.1 2109.4V2109.5Z" fill="black"/>
<path d="M1863 2133.6C1863 2133.7 1863 2133.8 1863 2133.9C1863.7 2138.5 1859.3 2141.3 1855.2 2143.2C1842.9 2149 1793.3 2145.7 1791.4 2145.5C1791.4 2145.5 1791.4 2145.5 1791.3 2145.5C1790.7 2145.5 1784.4 2145.5 1782.6 2141.6C1782.4 2141.1 1782.2 2140.4 1782.2 2139.8C1782.1 2138.8 1782.2 2137.7 1782.4 2136.7C1782.6 2135.9 1783.4 2135.3 1784.2 2135.5C1793.4 2137.9 1814.9 2138.6 1836.4 2136.3C1850.7 2134.7 1856.9 2131.6 1860.2 2129.6C1861.1 2129.1 1862.3 2129.6 1862.5 2130.6C1862.7 2131.5 1862.9 2132.5 1863.1 2133.6H1863Z" fill="white"/>
<path d="M1822.6 2148.7C1808 2148.7 1794.1 2147.8 1791.3 2147.6C1790 2147.6 1783 2147.5 1780.6 2142.4C1780.3 2141.8 1780.1 2141 1780 2140C1779.8 2138.7 1779.9 2137.4 1780.2 2136.1C1780.4 2135.1 1781 2134.2 1781.9 2133.7C1782.8 2133.2 1783.8 2133 1784.7 2133.3C1793.1 2135.5 1814 2136.4 1836.1 2134C1849.6 2132.5 1855.6 2129.7 1859 2127.6C1860 2127 1861.3 2126.9 1862.4 2127.4C1863.5 2127.9 1864.3 2128.9 1864.5 2130.1L1865.1 2133.1V2133.5C1866.1 2140.4 1858.8 2143.8 1856 2145.1C1849.9 2147.9 1835.9 2148.7 1822.4 2148.7H1822.6ZM1791.3 2143.2H1791.5C1809.1 2144.4 1844.8 2145.5 1854.3 2141.1C1859.2 2138.8 1861.2 2136.6 1860.9 2134.1L1863 2133.5L1860.8 2133.9L1860.4 2131.8C1856.5 2134 1849.9 2136.8 1836.6 2138.3C1814.6 2140.7 1793.6 2139.8 1784.3 2137.7C1784.3 2138.3 1784.3 2138.9 1784.3 2139.4C1784.4 2140.2 1784.5 2140.5 1784.6 2140.6C1785.6 2142.7 1789.5 2143.3 1791.3 2143.2Z" fill="black"/>
<path d="M1827.7 2120.8C1827.2 2120.8 1826.8 2120.7 1826.4 2120.4L1818.9 2114.7C1817.9 2114 1817.7 2112.6 1818.5 2111.6C1819.3 2110.6 1820.6 2110.4 1821.6 2111.2L1829.1 2116.9C1830.1 2117.6 1830.3 2119 1829.5 2120C1829.1 2120.6 1828.4 2120.9 1827.7 2120.9V2120.8Z" fill="black"/>
<path d="M1817.7 2124.9C1817.2 2124.9 1816.8 2124.8 1816.4 2124.5L1809.8 2119.6C1808.8 2118.9 1808.6 2117.5 1809.4 2116.5C1810.1 2115.5 1811.5 2115.3 1812.5 2116.1L1819.1 2121C1820.1 2121.7 1820.3 2123.1 1819.5 2124.1C1819.1 2124.7 1818.4 2125 1817.7 2125V2124.9Z" fill="black"/>
<path d="M1904.8 1744C1904.8 1744 1919.1 1772.6 1923.9 1802.8C1928.4 1830.9 1944.8 1946.4 1985 2039.1C1989.5 2049.6 1984.3 2060.5 1973.1 2063C1968.6 2064 1966.7 2062.4 1962.9 2060.5C1960.9 2059.5 1957.6 2056.7 1957.6 2056.7C1957.6 2056.7 1886.6 1997.3 1857.6 1841.5C1839 1741.3 1842.1 1749.2 1842.1 1749.2L1904.9 1744H1904.8Z" fill="black"/>
<path d="M1884.8 1757.1C1884.8 1757.1 1893.1 1811.5 1877.4 1851.7C1862.2 1890.4 1852.5 2042.1 1858.2 2085.9C1858.6 2088.7 1856.6 2091.2 1853.9 2091.6C1847 2092.6 1834.6 2093.9 1826 2092.3C1824.4 2092 1823.2 2090.9 1822.8 2089.3C1817.2 2067.1 1770.6 1866.1 1803.4 1763.1L1884.8 1757.1Z" fill="black"/>
<path d="M1869.5 1898.8C1868.3 1898.8 1867.3 1897.9 1867.3 1896.7C1867.3 1895.8 1866.7 1874.7 1875.5 1854.4C1878.5 1847.5 1878.9 1840.6 1878.6 1831.7C1878.6 1830.5 1879.5 1829.5 1880.7 1829.4C1881.9 1829.3 1882.9 1830.3 1883 1831.5C1883.3 1840.7 1882.8 1848.4 1879.5 1856.1C1871.2 1875.5 1871.7 1896.3 1871.7 1896.5C1871.7 1897.7 1870.8 1898.7 1869.6 1898.8H1869.5Z" fill="#34383B"/>
<path d="M1835.9 1842.8C1833.7 1842.8 1831.5 1842.4 1829.5 1841.4L1814.6 1834.7C1809.3 1832.3 1805.9 1827 1806.1 1821.1L1807 1791.7C1807 1790.1 1807.8 1788.6 1809 1787.6C1810.2 1786.6 1811.8 1786.1 1813.4 1786.2C1831 1788.1 1847.5 1786.3 1855.8 1785.1C1857.5 1784.8 1859.2 1785.4 1860.5 1786.5C1861.8 1787.7 1862.4 1789.3 1862.4 1791L1860.7 1821.8C1860.5 1826.1 1858.3 1830.1 1854.8 1832.7L1845.1 1839.7C1842.4 1841.7 1839.1 1842.7 1835.9 1842.7V1842.8ZM1812.8 1790.7C1812.4 1790.7 1812.1 1790.9 1811.9 1791C1811.7 1791.1 1811.5 1791.5 1811.4 1791.9L1810.5 1821.3C1810.4 1825.3 1812.7 1829 1816.4 1830.7L1831.3 1837.4C1835 1839.1 1839.3 1838.6 1842.5 1836.2L1852.2 1829.2C1854.6 1827.4 1856.1 1824.7 1856.3 1821.7L1858 1790.9C1858 1790.4 1857.7 1790 1857.6 1789.9C1857.4 1789.7 1857.1 1789.5 1856.5 1789.6C1848 1790.8 1831.1 1792.6 1813 1790.7H1812.9H1812.8Z" fill="#3B4043"/>
<path d="M1911.2 1835.9C1910.3 1835.9 1909.4 1835.7 1908.6 1835.3L1892.2 1826.9C1890.4 1826 1889.3 1824.3 1889.1 1822.3L1885.4 1788.1C1885.1 1785 1887.2 1782.2 1890.3 1781.7L1910.3 1778.6C1911.5 1778.4 1912.6 1779.2 1912.8 1780.4C1913 1781.6 1912.2 1782.7 1911 1782.9L1891 1786C1890.2 1786.1 1889.7 1786.8 1889.8 1787.6L1893.5 1821.8C1893.5 1822.3 1893.8 1822.7 1894.3 1822.9L1910.7 1831.3C1911.2 1831.5 1911.7 1831.5 1912.2 1831.2L1922.1 1824.2C1923.1 1823.5 1924.5 1823.7 1925.2 1824.7C1925.9 1825.7 1925.7 1827.1 1924.7 1827.8L1914.8 1834.8C1913.8 1835.5 1912.6 1835.9 1911.4 1835.9H1911.2Z" fill="#34383B"/>
<path d="M1973.2 2080.6C1971 2069.6 1970.1 2067.4 1964.8 2059C1960.9 2052.7 1970.4 2043.3 1975.2 2042.5C1983.3 2040.8 1982 2043.4 1991.2 2055.2L1998.4 2064.1C1998.4 2064.1 1975.1 2090.2 1973.2 2080.6Z" fill="#9B3F2C"/>
<path d="M1975.3 2084.9C1974.9 2084.9 1974.5 2084.9 1974.2 2084.8C1973.2 2084.5 1971.6 2083.7 1971 2081.1C1969.1 2071.5 1968.5 2069 1964.7 2062.6C1964.1 2061.6 1964.4 2060.2 1965.5 2059.6C1966.5 2059 1967.9 2059.3 1968.5 2060.4C1972.7 2067.4 1973.4 2070.5 1975.4 2080.3C1975.4 2080.6 1975.5 2080.7 1975.5 2080.7C1977.6 2081.2 1986.8 2073.6 1995.5 2064.1L1989.8 2057.2C1987.1 2053.8 1985.5 2051.1 1984 2048.6C1983.4 2047.6 1983.7 2046.2 1984.8 2045.6C1985.8 2045 1987.2 2045.3 1987.8 2046.4C1989.2 2048.7 1990.8 2051.3 1993.3 2054.5L2000.1 2062.8C2000.8 2063.6 2000.8 2064.9 2000.1 2065.7C1994.7 2071.7 1982 2085 1975.3 2085V2084.9Z" fill="black"/>
<path d="M1971.9 2076.5L1981.2 2062.4C1985.6 2055.8 1994.8 2054.8 2000.5 2060.4L2011.2 2069.4C2011.2 2069.4 2013.2 2075.6 2012.6 2079.5C2011.8 2084.7 2010.1 2092.1 2006.9 2099.4C2001.9 2110.7 1988.2 2133.3 1983.3 2141.2C1982.3 2142.9 1979.7 2144.5 1977.9 2143.7C1975.8 2142.8 1973.6 2141 1971.5 2139.1C1968.2 2136 1969.3 2121.6 1970.5 2111.6C1971.3 2105.2 1970.7 2088.8 1970.5 2082C1970.5 2080 1971 2078.1 1972 2076.5H1971.9Z" fill="#969696"/>
<path d="M1978.9 2146.2C1978.3 2146.2 1977.6 2146.1 1977 2145.8C1974.9 2144.8 1972.6 2143.2 1970 2140.7C1968 2138.8 1965.7 2133.8 1968.3 2111.3C1969 2105 1968.5 2088.8 1968.3 2082.1C1968.3 2079.7 1968.9 2077.3 1970.2 2075.3L1979.5 2061.2C1981.9 2057.5 1985.9 2055.1 1990.3 2054.7C1994.7 2054.2 1999 2055.7 2002.2 2058.8L2012.8 2067.7C2013.1 2068 2013.3 2068.3 2013.5 2068.7C2013.7 2069.4 2015.7 2075.5 2015 2079.9C2014.2 2085 2012.5 2092.7 2009.1 2100.3C2004.2 2111.5 1990.9 2133.5 1985.4 2142.4C1984.3 2144.2 1981.7 2146.2 1979.2 2146.2H1978.9ZM1991.7 2059C1991.3 2059 1991 2059 1990.6 2059C1987.5 2059.3 1984.8 2061 1983.1 2063.6L1973.8 2077.7C1973 2078.9 1972.6 2080.4 1972.6 2081.9C1972.9 2088.7 1973.4 2105.2 1972.6 2111.8C1970 2133.5 1972.4 2137 1972.9 2137.4C1975.1 2139.5 1977.1 2140.9 1978.7 2141.6C1979.1 2141.8 1980.6 2141 1981.3 2139.9C1986.7 2131.1 1999.9 2109.3 2004.7 2098.3C2007.9 2091.1 2009.5 2083.8 2010.3 2078.9C2010.7 2076.4 2009.7 2072.3 2009.2 2070.4L1999 2061.8C1996.9 2059.8 1994.3 2058.7 1991.6 2058.7L1991.7 2059Z" fill="black"/>
<path d="M1970.8 2094.8C1969.8 2094.8 1968.9 2094.2 1968.7 2093.2C1968.4 2092 1969.1 2090.8 1970.2 2090.5L1980.3 2087.7C1981.5 2087.4 1982.7 2088.1 1983 2089.2C1983.3 2090.4 1982.6 2091.6 1981.5 2091.9L1971.4 2094.7C1971.2 2094.7 1971 2094.7 1970.8 2094.7V2094.8Z" fill="black"/>
<path d="M1971.5 2103.8C1970.5 2103.8 1969.6 2103.2 1969.4 2102.2C1969.1 2101 1969.8 2099.8 1970.9 2099.5L1981 2096.7C1982.2 2096.4 1983.4 2097.1 1983.7 2098.2C1984 2099.4 1983.3 2100.6 1982.2 2100.9L1972.1 2103.7C1971.9 2103.7 1971.7 2103.7 1971.5 2103.7V2103.8Z" fill="black"/>
<path d="M1981.8 2144.5C1980.8 2144.5 1979.8 2144.3 1978.9 2144C1975.9 2143 1968.4 2140.7 1969.2 2130C1970.1 2118.8 1978.6 2113.2 1984.7 2105.8C1989.4 2100.2 1989 2076.9 1990.4 2072.3C1993.1 2064.1 2005 2062.9 2011.1 2069.4C2014.9 2073.5 2015.4 2082.4 2015 2089C2014.3 2101.3 2007.1 2125.7 1998 2137.5C1993.6 2143.3 1986.7 2144.6 1981.7 2144.6L1981.8 2144.5Z" fill="white"/>
<path d="M1981.8 2146.7C1980.5 2146.7 1979.3 2146.5 1978.2 2146.1H1977.9C1974.7 2144.9 1966.1 2142 1967 2129.8C1967.7 2120.4 1973.3 2114.7 1978.6 2109.2C1980.1 2107.6 1981.7 2106 1983 2104.4C1985.7 2101.3 1986.5 2089.6 1987.1 2081.9C1987.5 2076.5 1987.8 2073.4 1988.3 2071.6C1989.7 2067.4 1993.1 2064.4 1997.8 2063.4C2003.2 2062.2 2009 2064 2012.7 2067.9C2017.1 2072.7 2017.6 2082 2017.2 2089.1C2016.5 2101 2009.4 2126.3 1999.7 2138.8C1994.4 2145.7 1986.1 2146.7 1981.7 2146.7H1981.8ZM2001.4 2067.4C2000.6 2067.4 1999.7 2067.4 1998.9 2067.7C1995.8 2068.4 1993.5 2070.3 1992.6 2073C1992.2 2074.3 1991.9 2078.2 1991.6 2082.2C1990.7 2094 1989.8 2103.3 1986.5 2107.2C1985 2108.9 1983.4 2110.6 1981.9 2112.2C1976.9 2117.4 1972.1 2122.3 1971.5 2130.1C1970.9 2138.2 1975.3 2140.4 1979.4 2141.8H1979.7C1980.4 2142.1 1981.1 2142.2 1981.9 2142.2C1985.5 2142.2 1992.2 2141.4 1996.4 2136C2005.6 2124.2 2012.3 2100.1 2013 2088.7C2013.5 2080.1 2012.3 2073.5 2009.7 2070.8C2007.7 2068.6 2004.6 2067.3 2001.5 2067.3L2001.4 2067.4Z" fill="black"/>
<path d="M1981.8 2146.7C1978.8 2146.7 1976 2145.5 1974.2 2143.5C1972.6 2141.6 1971.9 2139.2 1972.2 2136.7C1973.9 2124.7 1980.3 2118.6 1987.1 2112C1992 2107.3 1993.4 2089.5 1993.9 2081.8C1994.2 2078.5 1994.3 2077 1994.5 2076.2C1995.6 2072.3 2000.3 2068.9 2005.3 2068.3C2009.9 2067.8 2013.9 2069.9 2016.1 2074C2016.7 2075.1 2016.3 2076.4 2015.2 2077C2014.1 2077.6 2012.8 2077.2 2012.2 2076.1C2010.5 2072.9 2007.8 2072.4 2005.8 2072.7C2002.4 2073.1 1999.3 2075.5 1998.8 2077.4C1998.7 2077.9 1998.5 2080.1 1998.3 2082.2C1997.3 2095.4 1995.7 2109.8 1990.1 2115.2C1983.6 2121.5 1978 2126.9 1976.5 2137.3C1976.3 2138.6 1976.6 2139.8 1977.4 2140.7C1978.4 2141.8 1979.9 2142.4 1981.7 2142.4C1983.5 2142.4 1983.8 2142.4 1984.9 2142.2C1986.1 2142.1 1987.2 2142.9 1987.4 2144.1C1987.6 2145.3 1986.7 2146.4 1985.5 2146.6C1984.3 2146.8 1983 2146.8 1981.8 2146.8V2146.7Z" fill="black"/>
<path d="M1918.9 1518.7C1918.9 1518.7 1929.7 1485.7 1930.3 1474.9C1930.8 1464.1 1920 1414.3 1915.7 1398.1C1915.7 1398.1 1919.7 1367.7 1896.6 1362.4C1895 1362 1893.9 1360.8 1893.4 1359.2C1891.5 1354.1 1890.7 1350.7 1888.9 1344.6C1887.4 1339.5 1879.9 1341.7 1880.6 1347.5C1880.8 1349.7 1883.1 1368.3 1884.1 1375.8C1884.2 1376.8 1883.8 1378.2 1883.1 1378.9C1881.6 1380.7 1879.9 1384.4 1883.1 1391C1888 1401.2 1890.2 1398.3 1895.5 1406.7C1900.8 1415.2 1902.4 1445.6 1902.8 1461.9C1903.2 1478.1 1896.4 1491.9 1892.9 1497.9C1889.4 1503.9 1919.1 1518.6 1919.1 1518.6L1918.9 1518.7Z" fill="#9B3F2C"/>
<path d="M1918.9 1520.9C1918.6 1520.9 1918.2 1520.9 1917.9 1520.7C1913.7 1518.6 1892.6 1507.8 1890.4 1500.5C1889.9 1498.8 1890.4 1497.6 1890.8 1496.8C1893.8 1491.7 1900.7 1478.1 1900.4 1461.9C1899.9 1440.4 1897.9 1414.9 1893.5 1407.8C1891.3 1404.3 1889.8 1403 1888.2 1401.6C1886.1 1399.8 1884 1397.9 1881 1391.9C1877.2 1384 1879.5 1379.4 1881.3 1377.4C1881.6 1377.1 1881.8 1376.3 1881.8 1376C1880.8 1368.3 1878.6 1349.9 1878.3 1347.7C1877.8 1343.2 1880.8 1340.2 1883.9 1339.6C1887.1 1339 1890 1340.7 1890.9 1343.9C1891.5 1345.9 1892 1347.6 1892.5 1349.2C1893.4 1352.4 1894.2 1355 1895.4 1358.3C1895.8 1359.3 1896.4 1360 1897.1 1360.1C1920.3 1365.4 1918.3 1393.8 1917.9 1397.8C1922 1413.3 1933 1463.5 1932.5 1474.9C1932 1485.9 1921.5 1517.9 1921 1519.3C1920.8 1519.9 1920.3 1520.4 1919.8 1520.6C1919.5 1520.7 1919.2 1520.8 1918.9 1520.8V1520.9ZM1885.2 1343.9C1885.1 1343.9 1884.9 1343.9 1884.8 1343.9C1883.6 1344.1 1882.5 1345.3 1882.7 1347.2C1882.9 1349.3 1885.2 1367.9 1886.2 1375.5C1886.4 1377.1 1885.8 1379.1 1884.7 1380.3C1882.9 1382.4 1883 1385.8 1885.1 1390C1887.6 1395.3 1889.3 1396.7 1891.2 1398.3C1892.9 1399.8 1894.8 1401.4 1897.4 1405.5C1903.4 1415.1 1904.7 1448.1 1905 1461.8C1905.4 1479.1 1898 1493.6 1894.8 1499C1894.5 1501.4 1905.2 1509 1917.8 1515.5C1920.3 1507.7 1927.8 1483.4 1928.3 1474.7C1928.8 1464.4 1918.2 1415.4 1913.8 1398.6C1913.8 1398.3 1913.8 1398 1913.8 1397.7C1914 1396.5 1917.3 1369.2 1896.4 1364.4C1894.2 1363.9 1892.5 1362.3 1891.6 1359.8C1890.3 1356.3 1889.5 1353.5 1888.6 1350.3C1888.2 1348.7 1887.7 1347 1887.1 1345.1C1886.8 1344.1 1886.2 1343.8 1885.6 1343.8L1885.2 1343.9Z" fill="black"/>
<path d="M1901.8 1484.1C1897.8 1483.2 1893.6 1485.3 1891.7 1488.9C1887.7 1496.3 1859.4 1527.1 1855.2 1530.5C1850 1534.6 1835 1559.6 1802.7 1559C1800.8 1559 1799 1559.6 1797.5 1560.8C1793.8 1563.9 1785.1 1569.9 1770 1574.5C1760.9 1577.3 1753.6 1586 1752.8 1605.9C1751.8 1629.6 1727.2 1675.8 1734.4 1693.5C1746.9 1724.3 1766.8 1715.7 1785.7 1709.4C1785.7 1709.4 1787 1709.4 1785.9 1737.1C1784.2 1779.5 1783.2 1781.3 1841.8 1777.4C1885.9 1774.5 1926.2 1768.2 1926.6 1759C1926.9 1752.2 1915.2 1715.4 1912.7 1671.1C1910.2 1626.8 1918 1559.2 1922.9 1542C1927.3 1526.6 1921.6 1488.5 1901.8 1484.2V1484.1Z" fill="#FFCB2E"/>
<path d="M1812.4 1781C1800.4 1781 1793 1779.6 1788.6 1775.3C1782.4 1769.2 1782.8 1758.5 1783.6 1739.1V1737.1C1784.3 1721.8 1784.2 1715.2 1784 1712.4L1783.4 1712.6C1765.4 1718.7 1745 1725.5 1732.4 1694.4C1727.9 1683.4 1734.4 1663.8 1741.1 1643.2C1745.6 1629.6 1750.2 1615.5 1750.6 1605.9C1751.4 1587.3 1757.7 1576.1 1769.4 1572.5C1784 1568.1 1792.4 1562.3 1796.1 1559.2C1798 1557.6 1800.4 1556.9 1802.8 1556.9C1828.3 1557.4 1842.3 1541.6 1849.8 1533.1C1851.5 1531.1 1852.8 1529.7 1853.9 1528.9C1857.9 1525.7 1886 1495.1 1889.8 1488C1892.2 1483.4 1897.4 1481 1902.3 1482.1C1908.4 1483.4 1913.7 1487.7 1917.9 1494.6C1926.2 1508.5 1928.4 1531.1 1925.1 1542.6C1920.3 1559.5 1912.5 1626.8 1915 1671C1916.6 1700.4 1922.5 1726.9 1926 1742.7C1927.9 1751.4 1929.1 1756.6 1929 1759.2C1928.4 1771.4 1881.4 1777.1 1842.1 1779.7C1830 1780.5 1820.3 1781.1 1812.5 1781.1L1812.4 1781ZM1785.7 1707.2C1786.3 1707.2 1786.9 1707.5 1787.3 1707.9C1788 1708.7 1789.2 1709.8 1788.1 1737.2V1739.2C1787.3 1757.4 1786.9 1767.4 1791.7 1772.1C1797.3 1777.5 1810.5 1777.2 1841.7 1775.2C1906.8 1770.9 1924.3 1762.6 1924.5 1758.9C1924.5 1756.9 1923.3 1751 1921.6 1743.6C1918.1 1727.7 1912.2 1701 1910.5 1671.2C1908 1626.6 1915.9 1558.4 1920.8 1541.3C1923.8 1530.7 1921.6 1509.4 1914.1 1496.8C1910.6 1490.9 1906.3 1487.4 1901.4 1486.3C1898.4 1485.6 1895.2 1487.2 1893.7 1490C1889.6 1497.7 1861.3 1528.5 1856.6 1532.3C1855.8 1532.9 1854.6 1534.3 1853.1 1536C1845.7 1544.4 1830.2 1561.8 1802.7 1561.3C1801.3 1561.3 1800 1561.7 1798.9 1562.6C1794.9 1565.9 1786 1572 1770.7 1576.7C1761 1579.6 1755.7 1589.5 1755 1606.1C1754.6 1616.3 1750.1 1630.1 1745.3 1644.6C1739.1 1663.6 1732.6 1683.3 1736.5 1692.8C1747.5 1720.1 1764.3 1714.4 1782 1708.5L1785 1707.5C1785.2 1707.5 1785.5 1707.4 1785.7 1707.4V1707.2Z" fill="black"/>
<path d="M1782.3 1714.7C1781.4 1714.7 1780.5 1714.1 1780.2 1713.2C1779.8 1712.1 1780.4 1710.8 1781.5 1710.4C1781.8 1710.3 1797.3 1703.5 1794.7 1660.2C1794.7 1659 1795.6 1657.9 1796.8 1657.9C1798 1657.9 1799.1 1658.8 1799.1 1660C1801.9 1707.3 1783.8 1714.3 1783 1714.6C1782.8 1714.6 1782.5 1714.7 1782.3 1714.7Z" fill="black"/>
<path d="M1839 1466.1C1840.1 1469.9 1842.3 1479.4 1844.6 1482.3C1850.3 1489.6 1855.2 1512.9 1846.3 1528.9C1841.2 1538 1840.7 1545.3 1841.1 1549.6C1841.4 1552.4 1840 1555.2 1837.6 1556.8C1831.8 1560.7 1825.3 1563 1818.4 1563.7L1816.4 1563.9C1813.2 1564.2 1810.1 1562.5 1808.6 1559.6C1804.3 1550.7 1794.9 1532.3 1788.8 1527.6C1780.7 1521.4 1734.5 1469.2 1765.3 1453C1818.7 1424.8 1835.6 1454.3 1839.1 1466.2L1839 1466.1Z" fill="#9B3F2C"/>
<path d="M1815.5 1566.1C1811.7 1566.1 1808.2 1563.9 1806.5 1560.5C1798.5 1544.1 1791.4 1532.4 1787.4 1529.3C1781.8 1525 1750.7 1491.4 1752.7 1467.8C1753.3 1460.3 1757.2 1454.6 1764.2 1450.9C1787.2 1438.8 1806.2 1435.7 1820.6 1441.9C1835.1 1448.1 1840 1461.5 1841.1 1465.5C1841.3 1466.3 1841.6 1467.2 1841.9 1468.3C1843 1472.3 1844.7 1478.9 1846.3 1481C1852.3 1488.7 1857.6 1513.2 1848.2 1530.1C1843.4 1538.6 1842.9 1545.3 1843.3 1549.5C1843.6 1553.1 1841.9 1556.7 1838.8 1558.7C1832.7 1562.7 1825.7 1565.2 1818.5 1565.9L1816.5 1566.1C1816.2 1566.1 1815.9 1566.1 1815.5 1566.1ZM1804.5 1443.2C1793.7 1443.2 1780.9 1447.1 1766.2 1454.8C1760.5 1457.8 1757.5 1462.2 1757 1468.1C1755.2 1488.5 1783 1520.3 1790 1525.7C1796.3 1530.6 1805.5 1548.3 1810.4 1558.5C1811.4 1560.6 1813.6 1561.8 1816 1561.6L1818 1561.4C1824.5 1560.8 1830.8 1558.5 1836.2 1555C1838 1553.8 1839 1551.8 1838.8 1549.8C1838.4 1545 1839 1537.3 1844.3 1527.9C1852.7 1512.9 1848 1490.4 1842.8 1483.7C1840.8 1481.2 1839.2 1475.5 1837.6 1469.5C1837.3 1468.4 1837.1 1467.5 1836.9 1466.8C1835.9 1463.3 1831.6 1451.5 1818.9 1446C1814.6 1444.2 1809.8 1443.3 1804.6 1443.3L1804.5 1443.2Z" fill="black"/>
<path d="M1837.5 1505.7C1831.4 1505.5 1827.4 1498.4 1826.6 1491.5C1826 1485.5 1827.8 1481.2 1831.4 1480.3C1835.4 1479.3 1837.9 1483.9 1838.2 1484.4C1838.8 1485.5 1838.4 1486.8 1837.3 1487.4C1836.2 1488 1834.9 1487.6 1834.3 1486.5C1833.7 1485.4 1832.7 1484.6 1832.4 1484.6C1831.4 1484.8 1830.5 1487.4 1830.9 1491.1C1831.4 1496.1 1834 1501.3 1837.5 1501.4C1838.7 1501.4 1839.7 1502.4 1839.6 1503.7C1839.6 1504.9 1838.6 1505.8 1837.4 1505.8L1837.5 1505.7Z" fill="black"/>
<path d="M1850.7 1472.2C1850.7 1472.2 1849 1429.2 1820.7 1423.5C1792.4 1417.8 1758.5 1427.1 1749.3 1439.7C1740.1 1452.2 1748.1 1473.2 1748.1 1473.2C1748.1 1473.2 1737.2 1493 1751.6 1502.1C1766 1511.2 1780.5 1534.5 1795.6 1526.8C1810.7 1519.1 1818.9 1510.3 1818.2 1495C1817.3 1474.6 1850.6 1472.2 1850.6 1472.2H1850.7Z" fill="#3B4043"/>
<path d="M1238.7 2030.4L1229.2 2097.3L1204.8 2097.4L1203.6 2031.6L1238.7 2030.4Z" fill="#9B3F2C"/>
<path d="M1204.8 2099.6C1203.6 2099.6 1202.6 2098.6 1202.6 2097.4L1201.5 2031.6C1201.5 2030.4 1202.4 2029.4 1203.6 2029.4L1238.6 2028.2C1239.3 2028.2 1239.9 2028.4 1240.3 2028.9C1240.7 2029.4 1240.9 2030 1240.8 2030.7L1231.3 2097.6C1231.1 2098.7 1230.2 2099.5 1229.1 2099.5H1204.7L1204.8 2099.6ZM1205.9 2033.8L1207 2095.2H1227.3L1236.2 2032.7L1206 2033.7L1205.9 2033.8Z" fill="black"/>
<path d="M1230 2161.2C1220.4 2162.2 1206.2 2162.6 1187.2 2161C1180.4 2160.4 1175.6 2154.1 1176.7 2147.4C1179.7 2129.3 1187.9 2097.2 1200.9 2082.6L1207.3 2091.7L1211.1 2082.2C1211.7 2081.2 1227.9 2080.5 1228.2 2082.4L1229.2 2091.6L1238.4 2081.3L1237.9 2115C1237.9 2118.7 1238.2 2122.4 1239 2126.1L1241.4 2137.8C1242.8 2144.8 1241.1 2152.3 1236.2 2157.5C1234.3 2159.5 1232.2 2161 1230.1 2161.2H1230Z" fill="#7DCFFF"/>
<path d="M1211.5 2164.3C1204.7 2164.3 1196.5 2164 1187 2163.2C1183.1 2162.9 1179.7 2161 1177.3 2157.9C1174.9 2154.8 1173.9 2150.9 1174.5 2147C1175.3 2142.2 1182.6 2099.9 1199.2 2081.1C1199.6 2080.6 1200.3 2080.4 1201 2080.4C1201.7 2080.4 1202.3 2080.8 1202.7 2081.3L1206.8 2087.1L1209.1 2081.4C1209.1 2081.3 1209.1 2081.2 1209.3 2081.1C1211 2078.3 1225.5 2079.2 1226.9 2079.4C1227.8 2079.6 1230.1 2080 1230.5 2082L1231 2086.4L1236.9 2079.8C1237.5 2079.1 1238.5 2078.9 1239.3 2079.2C1240.2 2079.5 1240.7 2080.4 1240.7 2081.3L1240.2 2115C1240.2 2118.6 1240.5 2122.1 1241.2 2125.6L1243.6 2137.3C1245.2 2145.2 1243.1 2153.3 1237.8 2158.9C1235.4 2161.5 1232.8 2163 1230.4 2163.3C1225.9 2163.8 1219.7 2164.2 1211.7 2164.2L1211.5 2164.3ZM1200.7 2086.1C1188.9 2101.5 1181.4 2131.6 1178.8 2147.7C1178.4 2150.3 1179.1 2153.1 1180.7 2155.2C1182.3 2157.3 1184.7 2158.6 1187.3 2158.8C1207.6 2160.6 1221.6 2159.9 1229.7 2159C1231 2158.9 1232.7 2157.8 1234.4 2156C1238.7 2151.4 1240.4 2144.8 1239.1 2138.3L1236.7 2126.6C1235.9 2122.8 1235.5 2118.9 1235.6 2115L1236 2087.2L1230.8 2093.1C1230.2 2093.7 1229.3 2094 1228.5 2093.7C1227.7 2093.4 1227.1 2092.7 1227 2091.8L1226.1 2083.7C1223.4 2083.2 1215.4 2083.3 1212.8 2083.9L1209.3 2092.5C1209 2093.2 1208.3 2093.8 1207.5 2093.9C1206.7 2094 1205.9 2093.6 1205.4 2093L1200.6 2086.2L1200.7 2086.1Z" fill="black"/>
<path d="M1212.6 2152.4C1205.9 2152.4 1197.6 2151.9 1188.2 2150.2C1187 2150 1186.2 2148.8 1186.4 2147.7C1186.6 2146.5 1187.7 2145.7 1188.9 2145.9C1212.4 2150 1229.1 2146.7 1229.3 2146.7C1230.5 2146.5 1231.7 2147.2 1231.9 2148.4C1232.1 2149.6 1231.4 2150.8 1230.2 2151C1229.8 2151 1223.2 2152.4 1212.6 2152.4Z" fill="black"/>
<path d="M1220.3 2126.7H1198.2C1197 2126.7 1196 2125.7 1196 2124.5C1196 2123.3 1197 2122.3 1198.2 2122.3H1220.3C1221.5 2122.3 1222.5 2123.3 1222.5 2124.5C1222.5 2125.7 1221.5 2126.7 1220.3 2126.7Z" fill="black"/>
<path d="M1413.6 2036.4L1422.1 2114.3L1454.9 2121.2L1452.9 2029.8L1413.6 2036.4Z" fill="#9B3F2C"/>
<path d="M1454.9 2123.4C1454.7 2123.4 1454.6 2123.4 1454.4 2123.4L1421.6 2116.5C1420.7 2116.3 1420 2115.5 1419.9 2114.6L1411.3 2036.7C1411.2 2035.5 1412 2034.5 1413.1 2034.3L1452.5 2027.7C1453.1 2027.6 1453.8 2027.7 1454.3 2028.2C1454.8 2028.7 1455.1 2029.2 1455.1 2029.8L1457.1 2121.2C1457.1 2121.9 1456.8 2122.5 1456.3 2122.9C1455.9 2123.2 1455.4 2123.4 1454.9 2123.4ZM1424.1 2112.5L1452.6 2118.5L1450.7 2032.4L1415.9 2038.2L1424.1 2112.5Z" fill="black"/>
<path d="M1408.3 2151.5C1407.6 2137.8 1407.6 2112.7 1415.9 2100.6L1442.1 2109.9V2104.3C1442.1 2102.5 1443.4 2101 1445 2100.9L1459.6 2100.1C1465.1 2099.8 1470.5 2100.9 1475.5 2103.4C1490.2 2110.6 1534.9 2129.2 1541.1 2150C1542.9 2156.1 1538.1 2162.3 1531.7 2162.5C1517 2162.9 1481.6 2163.4 1418.1 2161.2C1412.8 2161 1408.5 2156.8 1408.3 2151.5Z" fill="#7DCFFF"/>
<path d="M1502.4 2165C1482.9 2165 1455.3 2164.6 1418.1 2163.4C1411.6 2163.2 1406.5 2158.1 1406.1 2151.7C1405.4 2137.6 1405.4 2112 1414.1 2099.4C1414.7 2098.6 1415.7 2098.2 1416.7 2098.6L1440 2106.9V2104.4C1440 2101.4 1442.2 2099 1445 2098.8L1459.6 2098C1465.4 2097.7 1471.3 2098.9 1476.6 2101.5C1478.4 2102.4 1480.5 2103.4 1483 2104.6C1502.1 2113.6 1537.6 2130.2 1543.3 2149.5C1544.3 2153 1543.7 2156.7 1541.5 2159.7C1539.3 2162.8 1535.7 2164.7 1531.8 2164.8C1525.5 2165 1515.9 2165.2 1502.4 2165.2V2165ZM1416.8 2103.2C1409.8 2115.2 1409.8 2138.3 1410.5 2151.3C1410.7 2155.5 1414 2158.7 1418.2 2158.9C1481.1 2161.1 1516.3 2160.6 1531.7 2160.2C1534.1 2160.2 1536.5 2158.9 1537.9 2156.9C1539.3 2155 1539.7 2152.7 1539 2150.5C1533.8 2133.1 1498.1 2116.4 1481 2108.3C1478.5 2107.1 1476.3 2106.1 1474.5 2105.2C1469.9 2102.9 1464.7 2101.9 1459.7 2102.2L1445.1 2103C1444.6 2103 1444.2 2103.6 1444.2 2104.2V2109.8C1444.2 2110.5 1443.9 2111.2 1443.3 2111.6C1442.7 2112 1442 2112.1 1441.3 2111.9L1416.7 2103.2H1416.8Z" fill="black"/>
<path d="M1492.2 2152.1C1473.6 2152.1 1448.5 2151.3 1421 2148.1C1419.8 2148 1418.9 2146.9 1419.1 2145.7C1419.2 2144.5 1420.3 2143.6 1421.5 2143.8C1477.3 2150.3 1523.5 2146.9 1523.9 2146.9C1525.1 2146.9 1526.2 2147.7 1526.3 2148.9C1526.3 2150.1 1525.5 2151.2 1524.3 2151.3C1524.1 2151.3 1511.7 2152.2 1492.2 2152.2V2152.1Z" fill="black"/>
<path d="M1484.1 2129.7C1483.7 2129.7 1483.2 2129.6 1482.8 2129.3L1457.6 2111.1C1456.6 2110.4 1456.4 2109 1457.1 2108C1457.8 2107 1459.2 2106.8 1460.2 2107.5L1485.4 2125.7C1486.4 2126.4 1486.6 2127.8 1485.9 2128.8C1485.5 2129.4 1484.8 2129.7 1484.1 2129.7Z" fill="black"/>
<path d="M1423.8 1492C1423.8 1492 1470.8 1853.2 1460.8 2068.3L1446.1 2069.8C1438.2 2070.6 1430.3 2070.8 1422.4 2070.4L1408.5 2069.7C1408.5 2069.7 1352.5 1704.1 1324.5 1649.8C1324.5 1649.8 1248.4 1979.3 1245.5 2058C1245.5 2058 1211.7 2061.4 1198.2 2056.5C1191 1980.5 1188.9 1863 1188.5 1813.6C1187.5 1672.3 1201 1608.1 1208.4 1577.7C1215.2 1549.7 1222.5 1527 1227.8 1511.6L1245.6 1460.9L1423.8 1492Z" fill="black"/>
<path d="M1325.3 1657.2C1325.2 1657.2 1325 1657.2 1324.9 1657.2C1323.7 1657 1322.9 1655.8 1323.1 1654.6L1327.5 1630.3C1329.9 1621.6 1336.7 1615.2 1345.3 1613.4L1352.6 1611.9C1353.8 1611.7 1355 1612.4 1355.2 1613.6C1355.4 1614.8 1354.7 1616 1353.5 1616.2L1346.2 1617.7C1339.2 1619.1 1333.7 1624.3 1331.8 1631.2L1327.5 1655.3C1327.3 1656.4 1326.4 1657.1 1325.3 1657.1V1657.2Z" fill="#3B4043"/>
<path d="M1228.9 1615.7C1227.8 1615.7 1226.9 1614.9 1226.7 1613.9C1226.5 1612.7 1227.3 1611.6 1228.5 1611.4C1269.2 1604.6 1277.3 1572.8 1277.4 1572.5C1277.7 1571.3 1278.9 1570.6 1280.1 1570.9C1281.3 1571.2 1282 1572.4 1281.7 1573.6C1281.7 1574 1272.7 1608.6 1229.2 1615.8C1229.1 1615.8 1229 1615.8 1228.8 1615.8L1228.9 1615.7Z" fill="#303030"/>
<path d="M1425.9 1587.2C1425.6 1587.2 1425.3 1587.2 1425 1587C1399.5 1575.9 1400.1 1551.7 1400.1 1551.4C1400.1 1550.2 1401.1 1549.2 1402.4 1549.3C1403.6 1549.3 1404.6 1550.4 1404.5 1551.6C1404.5 1552.5 1404.1 1573.1 1426.8 1583C1427.9 1583.5 1428.4 1584.8 1427.9 1585.9C1427.5 1586.7 1426.7 1587.2 1425.9 1587.2Z" fill="#303030"/>
<path d="M1203.3 1522.3C1199 1536.9 1192.3 1557.1 1199.7 1566.8C1213.2 1584.4 1224.4 1581.6 1241 1575.5C1274.3 1563.4 1327.4 1544.2 1342.9 1554.9L1343.6 1522.3H1203.3Z" fill="black"/>
<path d="M1394 1209.5C1421.6 1209.4 1446.9 1225 1459 1249.7C1473 1278.3 1492.8 1353.1 1493.5 1385.8C1494.8 1442.9 1444.8 1446.1 1443.3 1446.2C1443.5 1447.9 1449.3 1509.9 1449.8 1520.9C1450.6 1541.1 1413.3 1572.5 1370.3 1557C1327.6 1541.6 1210.9 1510.9 1199 1537L1248 1355.4L1207.8 1357.3L1175.1 1338.4L1183.4 1301.7C1199.1 1239 1241.3 1210.2 1295.6 1209.9L1394.1 1209.4L1394 1209.5Z" fill="#7DCFFF"/>
<path d="M1393.6 1563.4C1385.6 1563.4 1377.4 1562 1369.6 1559.2C1316.2 1539.9 1211.2 1515.7 1201.1 1538.1C1200.6 1539.1 1199.4 1539.7 1198.3 1539.3C1197.2 1538.9 1196.6 1537.7 1196.9 1536.6L1245.1 1357.8L1207.9 1359.6C1207.5 1359.6 1207 1359.6 1206.7 1359.3L1174 1340.4C1173.2 1339.9 1172.7 1338.9 1172.9 1338L1181.2 1301.3C1196.3 1241.3 1236.9 1208.1 1295.6 1207.8L1394.1 1207.3H1394.4C1422.6 1207.3 1448.7 1223.5 1461 1248.7C1474.7 1276.6 1495 1352.2 1495.8 1385.7C1497 1438.5 1456.1 1446.9 1445.8 1448.2C1446.9 1459.4 1451.7 1510.9 1452.1 1520.9C1452.5 1530.5 1445.4 1541.8 1433.7 1550.4C1422 1559 1408 1563.4 1393.7 1563.4H1393.6ZM1229.8 1524.7C1241.4 1524.7 1256 1526.2 1273.5 1529.3C1309 1535.5 1348.9 1547 1371.1 1555C1391.6 1562.4 1414 1559.3 1431 1546.8C1441.4 1539.1 1448 1529 1447.6 1521C1447.1 1510.1 1441.4 1449 1441.1 1446.4C1441 1445.2 1441.9 1444.1 1443.1 1444C1445.2 1443.9 1492.6 1440.6 1491.3 1385.8C1490.5 1352.8 1470.5 1278.2 1457 1250.6C1445.3 1226.8 1420.6 1211.5 1394 1211.7L1295.5 1212.2C1239 1212.5 1199.9 1244.5 1185.4 1302.3L1177.5 1337.4L1208.3 1355.2L1247.8 1353.3C1248.5 1353.3 1249.3 1353.6 1249.7 1354.2C1250.1 1354.8 1250.2 1355.5 1250 1356.2L1203.2 1529.8C1208.8 1526.5 1217.7 1524.9 1229.7 1524.9L1229.8 1524.7Z" fill="black"/>
<path d="M1265.2 1349.6C1257.7 1348.2 1259.7 1339.5 1233.3 1337.9C1157.1 1333.4 1194 1294.7 1237.7 1302.1C1252.2 1304.5 1257.8 1313.9 1263.3 1316.3C1308.9 1336.2 1280.2 1352.4 1265.2 1349.6Z" fill="#9B3F2C"/>
<path d="M1268.8 1352.1C1267.4 1352.1 1266.1 1352 1264.8 1351.7C1261.7 1351.1 1260 1349.6 1258.1 1348C1254.8 1345.1 1250.2 1341.1 1233.2 1340.1C1207.7 1338.6 1192.1 1333.1 1188.1 1324.4C1186.4 1320.6 1187 1316.3 1190 1312.5C1196.9 1303.5 1216.8 1296.4 1238.1 1299.9C1248.5 1301.7 1254.6 1306.8 1259.1 1310.5C1261 1312.1 1262.7 1313.5 1264.2 1314.2C1288.7 1324.9 1291.6 1334.4 1289.8 1340.4C1287.6 1347.6 1277.5 1352 1268.8 1352V1352.1ZM1265.6 1347.4C1272.8 1348.7 1283.8 1345 1285.6 1339.2C1287.5 1333.1 1279 1325.5 1262.5 1318.3C1260.5 1317.4 1258.6 1315.8 1256.3 1314C1252 1310.4 1246.6 1305.9 1237.4 1304.3C1217.7 1301 1199.7 1307.2 1193.5 1315.2C1191.5 1317.8 1191 1320.3 1192.1 1322.6C1193.6 1325.9 1200.7 1333.8 1233.5 1335.7C1252 1336.8 1257.2 1341.4 1261 1344.7C1262.6 1346.1 1263.7 1347.1 1265.6 1347.4Z" fill="black"/>
<path d="M1361 1220.2C1363.5 1218 1362.2 1213.9 1358.9 1213.5L1353.7 1212.9C1348.2 1212.2 1343.5 1208.5 1341.7 1203.4L1333.2 1140.6L1315.8 1146.8L1292.7 1135.4L1294.8 1202.5C1294.6 1208.4 1290.8 1213.5 1285.2 1215.5L1278.5 1217.9C1275 1219.2 1274.8 1224 1278.2 1225.5C1291.9 1231.5 1347.8 1231.5 1361.1 1220.1L1361 1220.2Z" fill="#9B3F2C"/>
<path d="M1312 1231.7C1297 1231.7 1283.2 1230.1 1277.3 1227.5C1274.9 1226.5 1273.4 1224.1 1273.5 1221.5C1273.5 1218.9 1275.2 1216.7 1277.7 1215.8L1284.4 1213.4C1289.2 1211.7 1292.4 1207.3 1292.6 1202.4L1290.5 1135.4C1290.5 1134.6 1290.9 1133.9 1291.5 1133.5C1292.1 1133.1 1293 1133 1293.7 1133.4L1315.9 1144.4L1332.5 1138.5C1333.1 1138.3 1333.8 1138.3 1334.4 1138.7C1335 1139 1335.3 1139.6 1335.4 1140.3L1343.9 1202.9C1345.5 1207.2 1349.3 1210.1 1354 1210.7L1359.2 1211.3C1361.6 1211.6 1363.6 1213.2 1364.3 1215.6C1365 1217.9 1364.3 1220.3 1362.5 1221.9C1354.3 1228.9 1332.1 1231.8 1312 1231.8V1231.7ZM1295 1138.9L1297 1202.4C1296.8 1209.3 1292.5 1215.2 1285.9 1217.6L1279.2 1220C1278 1220.4 1277.9 1221.4 1277.9 1221.7C1277.9 1222 1277.9 1223 1279.1 1223.5C1291.7 1229 1346.9 1229.4 1359.7 1218.5C1360.4 1217.9 1360.3 1217.1 1360.2 1216.8C1360.2 1216.5 1359.8 1215.7 1358.8 1215.6L1353.6 1215C1347.2 1214.2 1341.9 1210 1339.8 1204.1C1339.8 1204 1339.8 1203.8 1339.7 1203.7L1331.6 1143.6L1316.7 1148.9C1316.1 1149.1 1315.5 1149.1 1315 1148.9L1295.2 1139.1L1295 1138.9Z" fill="black"/>
<path d="M1341 1090.6C1370.7 1101.5 1365.6 1120.8 1365.6 1120.8C1365.2 1126.1 1365 1135.8 1366 1139.3C1366.8 1142.2 1371.6 1147.7 1371.8 1149.3C1372 1150.9 1369.5 1154.2 1364.3 1155.4C1364.3 1155.4 1362.3 1181.1 1355.6 1185.3C1348.9 1189.5 1322.9 1181.4 1322.9 1181.4L1318.5 1179.6C1304.4 1174 1295.8 1162.2 1291.7 1147.7C1291.7 1147.7 1272.8 1065.5 1340.9 1090.6H1341Z" fill="#9B3F2C"/>
<path d="M1349.2 1188.6C1339.5 1188.6 1325.7 1184.5 1322.3 1183.4L1317.8 1181.6C1304 1176.1 1294.3 1164.6 1289.7 1148.3C1289.3 1146.5 1280.3 1106.5 1298.8 1090.2C1308.1 1082 1322.6 1081.4 1341.7 1088.5C1371 1099.3 1368.2 1118.6 1367.7 1121C1367.3 1127.4 1367.3 1135.9 1368 1138.6C1368.3 1139.8 1369.9 1142.1 1371.1 1143.8C1372.8 1146.3 1373.7 1147.6 1373.9 1148.8C1374.3 1151.5 1371.4 1155.2 1366.3 1156.9C1365.7 1163.6 1363.4 1182.8 1356.7 1187C1354.9 1188.1 1352.2 1188.5 1349.1 1188.5L1349.2 1188.6ZM1318.3 1088C1311.5 1088 1305.9 1089.8 1301.7 1093.5C1285.2 1108.1 1293.8 1146.8 1293.9 1147.2C1298.1 1162 1306.9 1172.5 1319.3 1177.5L1323.7 1179.3C1333.2 1182.2 1350.1 1186 1354.4 1183.3C1358.4 1180.8 1361.3 1165.3 1362.1 1155.1C1362.1 1154.1 1362.9 1153.3 1363.8 1153.1C1367.7 1152.2 1369.3 1150.1 1369.6 1149.4C1369.3 1148.8 1368.3 1147.4 1367.6 1146.3C1366 1144 1364.4 1141.7 1363.9 1139.8C1362.7 1135.5 1363.1 1124.5 1363.4 1120.6C1363.4 1120.5 1363.4 1120.3 1363.4 1120.2C1363.6 1119.5 1367.5 1102.7 1340.1 1092.6C1331.7 1089.5 1324.4 1088 1318.2 1088H1318.3Z" fill="black"/>
<path d="M1331.2 1076.6C1339 1078.5 1346.7 1083.4 1350.7 1083.8C1357.2 1084.5 1361.9 1076.1 1370.1 1079.2C1377.3 1081.9 1381.4 1088 1382.4 1095C1382.6 1096.2 1382.6 1097.4 1382.5 1098.7C1381 1116.2 1370 1120 1365.5 1120.8C1365.5 1120.8 1339.7 1118.4 1334.7 1119.6C1330 1120.7 1322.7 1128.1 1320.5 1138.5C1320.2 1139.8 1319 1140.8 1317.7 1140.9C1316.1 1141 1314.6 1139.9 1314.4 1138.3C1313.5 1133.3 1311.2 1123.3 1306.1 1123C1300.2 1122.7 1292.6 1134.4 1300.4 1141.7C1302.8 1144 1302 1148.1 1298.9 1149.3C1296.4 1150.3 1293.2 1150.4 1289.7 1147.6C1289.7 1147.6 1274.4 1120.8 1281.7 1098.2C1289 1075.6 1320.7 1074.1 1331.1 1076.6H1331.2Z" fill="#3B4043"/>
<path d="M1372.7 1149.5C1372.1 1149.5 1371.5 1149.3 1371.1 1148.8C1370.3 1147.9 1370.3 1146.5 1371.2 1145.7C1372.6 1144.4 1374 1141.2 1374.3 1136.7C1374.4 1133.9 1374 1131.1 1373.2 1129.2C1372.5 1127.6 1371.7 1126.9 1371.2 1126.8C1370.2 1126.8 1368.3 1129.1 1367.5 1133.4C1367.3 1134.6 1366.1 1135.4 1364.9 1135.1C1363.7 1134.9 1362.9 1133.7 1363.2 1132.5C1364.4 1126.1 1367.6 1122.2 1371.5 1122.3C1373.9 1122.4 1376 1124.2 1377.3 1127.3C1378.4 1129.9 1378.9 1133.3 1378.7 1136.8C1378.4 1142 1376.8 1146.5 1374.2 1148.8C1373.8 1149.2 1373.2 1149.4 1372.7 1149.4V1149.5Z" fill="black"/>
<path d="M1352.5 1151.2C1352.4 1151.2 1352.3 1151.2 1352.1 1151.2C1349.3 1151.1 1346.8 1149.3 1345 1146.2C1343.5 1143.4 1342.7 1139.9 1342.9 1136.2C1343.3 1128 1347.9 1121.8 1353.5 1122.1C1356.3 1122.2 1358.8 1124 1360.6 1127.1C1362.1 1129.9 1362.9 1133.4 1362.7 1137.1C1362.3 1145.1 1357.8 1151.2 1352.4 1151.2H1352.5ZM1347.4 1136.3C1347.3 1139.2 1347.8 1142 1348.9 1144C1349.4 1145 1350.6 1146.7 1352.3 1146.8C1354.8 1146.9 1358 1142.9 1358.3 1136.9C1358.4 1134 1357.9 1131.2 1356.8 1129.2C1356.3 1128.2 1355.1 1126.5 1353.4 1126.4C1350.8 1126.4 1347.7 1130.3 1347.4 1136.3Z" fill="black"/>
<path d="M1346.1 1133C1346.1 1133 1346 1133 1345.9 1133L1317.5 1130.5C1316.3 1130.4 1315.4 1129.3 1315.5 1128.1C1315.6 1126.9 1316.7 1126 1317.9 1126.1L1346.3 1128.6C1347.5 1128.7 1348.4 1129.8 1348.3 1131C1348.2 1132.1 1347.2 1133 1346.1 1133Z" fill="black"/>
<path d="M1300.9 1254.8C1300.9 1254.8 1311.9 1272.1 1321.9 1269.1C1327.1 1267.5 1332.2 1250.4 1334.3 1249.8C1341 1247.9 1353.7 1244.7 1361.5 1230.8C1368.8 1217.8 1367.2 1210.8 1365.3 1207.6C1364.4 1206.1 1364.4 1204.3 1365.4 1202.9C1366.8 1200.8 1368.1 1197.7 1366.7 1194.5C1366.2 1193.4 1366.3 1192.1 1366.7 1191C1368.6 1186.7 1372 1176.8 1365.3 1174.8C1363.5 1174.3 1361.5 1174.9 1360.4 1176.5C1358.3 1179.4 1353.9 1184.9 1348.4 1188.4C1340.7 1193.3 1336.1 1196.7 1332.2 1198.9C1328.9 1200.8 1327.1 1184.2 1319.1 1178C1312 1172.5 1309.6 1175.3 1308.9 1177.9C1308.2 1180.5 1312.6 1181.5 1315.1 1193.9C1318 1208.4 1315 1220.5 1314.1 1227C1313.1 1234.6 1300.8 1254.9 1300.8 1254.9L1300.9 1254.8Z" fill="#9B3F2C"/>
<path d="M1319.4 1271.6C1309.1 1271.6 1299.4 1256.7 1298.9 1256C1298.4 1255.3 1298.4 1254.4 1298.9 1253.7C1302.3 1248.2 1311.1 1232.5 1311.9 1226.6C1312 1225.5 1312.3 1224.3 1312.5 1222.9C1313.6 1216.1 1315.3 1205.9 1313 1194.1C1311.6 1187 1309.6 1184 1308.3 1182C1307.3 1180.5 1306.4 1179.1 1306.9 1177.1C1307.5 1174.9 1308.8 1173.3 1310.7 1172.7C1313.3 1171.8 1316.6 1172.9 1320.6 1176.1C1325.4 1179.8 1328 1186.6 1330 1191.6C1330.6 1193.2 1331.5 1195.3 1332.1 1196.3C1334 1195.2 1336.2 1193.7 1338.8 1192C1341.2 1190.4 1344 1188.6 1347.4 1186.4C1352.5 1183.1 1356.7 1177.9 1358.8 1175.1C1360.4 1172.8 1363.4 1171.8 1366.1 1172.6C1368.2 1173.2 1369.8 1174.6 1370.7 1176.5C1372.7 1180.8 1370.8 1187.2 1368.8 1191.8C1368.5 1192.4 1368.5 1193.1 1368.8 1193.6C1370.2 1196.9 1369.7 1200.5 1367.3 1204.1C1366.8 1204.8 1366.8 1205.7 1367.3 1206.5C1369.7 1210.6 1371 1218.4 1363.5 1231.8C1355.6 1246 1342.7 1249.7 1335.9 1251.6H1335.5C1334.9 1252.5 1333.7 1255.1 1332.9 1256.9C1329.5 1264.2 1326.6 1269.9 1322.8 1271.1C1321.8 1271.4 1320.8 1271.6 1319.8 1271.6H1319.4ZM1303.4 1254.7C1306.8 1259.6 1314.8 1268.9 1321.1 1266.9C1323.4 1266.2 1326.7 1259 1328.5 1255.1C1330.9 1249.9 1331.8 1248.1 1333.5 1247.6L1334.3 1247.4C1341 1245.5 1352.3 1242.2 1359.3 1229.6C1366.2 1217.3 1364.7 1211.2 1363.1 1208.6C1361.8 1206.4 1361.9 1203.6 1363.3 1201.5C1364.9 1199.2 1365.3 1197.1 1364.4 1195.2C1363.7 1193.6 1363.7 1191.6 1364.4 1189.9C1366.6 1184.7 1367.3 1180.4 1366.3 1178.2C1365.9 1177.4 1365.3 1176.9 1364.4 1176.7C1363.5 1176.4 1362.5 1176.7 1361.9 1177.5C1359.7 1180.6 1355.1 1186.3 1349.3 1190C1346 1192.1 1343.2 1194 1340.8 1195.5C1337.7 1197.6 1335.2 1199.2 1333 1200.5C1332.2 1201 1331.2 1201.1 1330.3 1200.8C1328.2 1200.1 1327.2 1197.4 1325.5 1193.1C1323.7 1188.6 1321.3 1182.4 1317.5 1179.5C1314.5 1177.1 1312.5 1176.6 1311.7 1176.8C1311.2 1177 1310.9 1177.7 1310.8 1178.2C1310.8 1178.4 1311.3 1179 1311.6 1179.6C1313 1181.7 1315.4 1185.3 1317 1193.2C1319.5 1205.7 1317.7 1216.5 1316.6 1223.6C1316.4 1224.9 1316.2 1226.1 1316 1227.1C1315.1 1234.1 1305.8 1250.1 1303.1 1254.7H1303.4Z" fill="black"/>
<path d="M1337.2 1262.5L1303.7 1241.2C1303.7 1241.2 1258.5 1314.3 1224.2 1339.1C1207.5 1351.2 1175.2 1337 1175.2 1337C1175.2 1337 1144.1 1456.3 1204.1 1473.4C1303.9 1501.8 1337.1 1262.5 1337.1 1262.5H1337.2Z" fill="#7DCFFF"/>
<path d="M1220.3 1477.9C1214.8 1477.9 1209.2 1477.1 1203.6 1475.5C1142.3 1458.1 1171.9 1341.4 1173.2 1336.4C1173.5 1335.2 1174.7 1334.5 1175.9 1334.8C1177.1 1335.1 1177.8 1336.3 1177.5 1337.5C1177.2 1338.7 1147.7 1455 1204.9 1471.2C1220.8 1475.7 1236 1473.4 1250 1464.2C1309 1425.7 1332.6 1279.4 1335 1263.5L1304.6 1244.1C1297.1 1256 1257.3 1317.9 1225.7 1340.8C1224.7 1341.5 1223.3 1341.3 1222.6 1340.3C1221.9 1339.3 1222.1 1337.9 1223.1 1337.2C1256.6 1312.9 1301.5 1240.6 1302 1239.9C1302.3 1239.4 1302.8 1239 1303.4 1238.9C1304 1238.8 1304.6 1238.9 1305.1 1239.2L1338.6 1260.5C1339.3 1261 1339.7 1261.8 1339.6 1262.7C1338.7 1269.4 1316.2 1426.3 1252.5 1467.9C1242.4 1474.5 1231.7 1477.8 1220.5 1477.8L1220.3 1477.9Z" fill="black"/>
<path d="M1437.9 1449.8C1400.2 1449.8 1347.5 1420.7 1309.1 1392.1C1308.1 1391.4 1307.9 1390 1308.6 1389C1309.3 1388 1310.7 1387.8 1311.7 1388.6C1350 1417.1 1407.8 1449.1 1444.5 1445.1C1445.7 1445 1446.8 1445.8 1446.9 1447C1447 1448.2 1446.2 1449.3 1445 1449.4C1442.7 1449.6 1440.3 1449.8 1437.9 1449.8Z" fill="black"/>
<path d="M1387.3 1357.9C1366.2 1357.9 1327.5 1339.8 1325.7 1339C1324.6 1338.5 1324.1 1337.2 1324.6 1336.1C1325.1 1335 1326.4 1334.5 1327.5 1335C1328 1335.2 1375 1357.2 1392.1 1353C1420.7 1346 1414.1 1310.3 1413.8 1308.8C1413.6 1307.6 1414.3 1306.5 1415.5 1306.2C1416.7 1306 1417.8 1306.7 1418.1 1307.9C1418.1 1308.3 1425.8 1349.3 1393.1 1357.3C1391.3 1357.7 1389.3 1357.9 1387.1 1357.9H1387.3Z" fill="black"/>
</g>
<defs>
<clipPath id="clip0_1_4">
<rect width="2500" height="2500" fill="white"/>
</clipPath>
</defs>
</svg>
