<svg width="17" height="16" viewBox="0 0 17 16" fill="none" xmlns="http://www.w3.org/2000/svg">
<g clip-path="url(#clip0_1_686)">
<path d="M9.589 6.93001C9.817 6.67401 10.005 6.41401 10.239 6.19301C10.924 5.52501 11.848 5.16001 12.805 5.18001C13.35 5.17201 13.893 5.24001 14.419 5.38001C15.544 5.69001 16.405 6.59601 16.659 7.73501C16.883 8.61701 16.984 9.52501 16.959 10.435C16.959 12.353 16.953 14.271 16.959 16.19C16.959 16.37 16.909 16.417 16.732 16.415C15.744 16.407 14.756 16.407 13.767 16.415C13.593 16.415 13.556 16.363 13.556 16.198C13.561 14.373 13.561 12.547 13.556 10.722C13.567 10.264 13.513 9.80601 13.397 9.36301C13.229 8.59101 12.5 8.07501 11.716 8.17201C11.213 8.14601 10.722 8.32801 10.357 8.67501C9.992 9.02101 9.785 9.50301 9.785 10.006C9.75 10.29 9.732 10.576 9.733 10.862V16.187C9.733 16.364 9.689 16.416 9.509 16.415C8.514 16.406 7.518 16.406 6.523 16.415C6.363 16.415 6.317 16.373 6.317 16.215C6.321 12.7 6.321 9.18601 6.317 5.67201C6.317 5.49801 6.374 5.45801 6.538 5.45901C7.483 5.46601 8.429 5.46601 9.374 5.45901C9.548 5.45901 9.593 5.51401 9.589 5.67801C9.579 6.09801 9.589 6.51801 9.589 6.93801" fill="#FEFEFE"/>
<path d="M4.173 10.947V16.163C4.173 16.356 4.126 16.415 3.926 16.412C2.938 16.401 1.95 16.404 0.962001 16.412C0.804001 16.412 0.756001 16.374 0.756001 16.212C0.761001 12.692 0.761001 9.17199 0.756001 5.65099C0.756001 5.50499 0.791001 5.45099 0.946001 5.45099C1.946 5.45799 2.946 5.45899 3.953 5.45099C4.145 5.45099 4.172 5.52399 4.171 5.68899C4.166 7.44199 4.166 9.19499 4.171 10.948" fill="#FEFEFE"/>
<path d="M4.446 1.963C4.45 2.762 3.972 3.485 3.234 3.793C2.497 4.102 1.647 3.935 1.08 3.371C0.514001 2.807 0.344001 1.957 0.650001 1.218C0.956001 0.480002 1.677 -0.000998444 2.476 1.55627e-06C3.559 0.00500156 4.437 0.880002 4.446 1.963Z" fill="#FEFEFE"/>
</g>
<defs>
<clipPath id="clip0_1_686">
<rect width="16" height="16" fill="white" transform="translate(0.5)"/>
</clipPath>
</defs>
</svg>
