<svg viewBox="0 0 78 78" xml:space="preserve" xmlns="http://www.w3.org/2000/svg" enable-background="new 0 0 78 78"><path d="M39 0C17.461 0 0 17.461 0 39s17.461 39 39 39 39-17.461 39-39S60.539 0 39 0zm1.221 70.934a1.8 1.8 0 0 1-1.217.483 1.82 1.82 0 0 1-1.232-.491c-5.489-4.938-9.529-11.251-11.828-18.24a53.594 53.594 0 0 1 26.146-.091c-2.295 7.029-6.352 13.379-11.869 18.339zM24.474 46.87c-.469-2.574-.724-5.205-.724-7.87s.255-5.296.723-7.87A59.604 59.604 0 0 0 39.2 32.979c4.82 0 9.639-.587 14.345-1.754.457 2.544.706 5.143.706 7.775s-.249 5.231-.706 7.775a59.626 59.626 0 0 0-29.071.095zM37.78 7.066a1.797 1.797 0 0 1 1.216-.483c.313 0 .78.086 1.232.491 5.513 4.959 9.566 11.306 11.86 18.331a53.606 53.606 0 0 1-26.146-.091c2.3-6.992 6.344-13.309 11.838-18.248zm21.538 22.406a59.124 59.124 0 0 0 9.569-4.441C70.88 29.276 72 34.009 72 39s-1.12 9.724-3.112 13.969a59.04 59.04 0 0 0-9.569-4.441c.604-3.106.932-6.293.932-9.528a49.904 49.904 0 0 0-.933-9.528zm6.536-9.617a53.03 53.03 0 0 1-8.029 3.782 48.663 48.663 0 0 0-8.866-16.099c6.879 2.183 12.783 6.566 16.895 12.317zM29.042 7.539A48.637 48.637 0 0 0 20.225 23.5a53.011 53.011 0 0 1-7.963-3.807c4.106-5.671 9.965-9.992 16.78-12.154zM9.193 24.85a59.049 59.049 0 0 0 9.513 4.491A49.886 49.886 0 0 0 17.75 39c0 3.28.334 6.511.956 9.659a59.134 59.134 0 0 0-9.513 4.491C7.148 48.859 6 44.062 6 39s1.148-9.859 3.193-14.15zm3.069 33.456a53.016 53.016 0 0 1 7.963-3.807 48.642 48.642 0 0 0 8.817 15.962c-6.815-2.162-12.674-6.483-16.78-12.155zm36.697 12.155a48.67 48.67 0 0 0 8.865-16.099 53.126 53.126 0 0 1 8.029 3.782c-4.111 5.751-10.015 10.134-16.894 12.317z" fill="#888888" class="fill-333f4f"></path></svg>